<svg width="250px" height="250px" viewBox="0 0 1699 2719" fill="none" xmlns="http://www.w3.org/2000/svg">
<g id="Group 13">
<g id="Brain">
<path id="Vector 3" d="M259.779 906.323C198.603 871 185.663 737.754 294.965 615.518C404.266 493.281 680.254 416.618 759.33 421.763C773.485 422.684 783.603 424.402 788.901 431.326C793.518 437.36 794.391 450.833 794.391 450.833V2438.79C794.391 2438.79 796.712 2476.06 789.608 2483.88C771.888 2503.38 752.587 2494.16 731.921 2487.33C604.609 2445.26 174.55 2292.65 115.225 2108.37C46.2706 1894.17 140.696 1749.37 190.28 1754.49C190.28 1754.49 14.6977 1677.44 23.317 1345.96C31.9363 1014.48 212.663 912.585 259.779 906.323Z" fill="#FF6A97" stroke="#B14E6C" stroke-width="45"/>
<path id="Vector 6" d="M109.375 2077.89C45.5702 1856.11 232.961 1700.54 285.176 1705.66C285.176 1705.66 137.939 1902.5 172.469 2044.57C237.333 2311.44 794.798 2486.89 794.798 2486.89C794.798 2486.89 173.181 2299.66 109.375 2077.89Z" fill="#B14E6C"/>
<path id="Vector 5" d="M23.0764 1340.13C16.1483 763.543 482.714 935.681 568.51 927.509C568.51 927.509 132.392 998.178 132.392 1340.13C132.392 1717.19 540.727 1868.94 540.727 1868.94C540.727 1868.94 30.0044 1916.71 23.0764 1340.13Z" fill="#B14E6C"/>
<path id="Vector 4" d="M343.161 1001.48C275.522 967.765 160.202 793.616 293.569 625.637C426.937 457.658 686.683 444.441 686.683 444.441C686.683 444.441 778.661 432.584 785.971 444.441C788.495 448.534 781.625 468.481 782.172 472.433C783.209 479.928 773.664 513.516 773.664 513.516C773.664 513.516 772.231 481.028 746.529 481.36C691.115 482.075 600.479 490.902 538.903 513.516C402.527 563.602 345.073 640.972 336.708 653.101C336.343 653.641 335.981 654.182 335.62 654.724C315.84 684.47 284.11 762.665 293.569 822.976C306.516 905.524 363.77 991.191 363.77 991.191L343.161 1001.48Z" fill="#B14E6C"/>
</g>
<path id="Line" d="M816 711H1188V120" stroke="#595959" stroke-width="44"/>
<path id="Line" d="M816 1044H1188.45L1521 711" stroke="#595959" stroke-width="44"/>
<path id="Line" d="M816 1360L1579 1360" stroke="#595959" stroke-width="44"/>
<path id="Line" d="M816 1675H1188.45L1521 2008" stroke="#595959" stroke-width="44"/>
<path id="Line" d="M816 2008H1188V2599" stroke="#595959" stroke-width="44"/>
<circle id="node" cx="1188" cy="120" r="60" stroke="#595959" stroke-width="120"/>
<circle id="node" cx="1521" cy="711" r="60" stroke="#595959" stroke-width="120"/>
<circle id="node" cx="1579" cy="1360" r="60" stroke="#595959" stroke-width="120"/>
<circle id="node" cx="1521" cy="2009" r="60" stroke="#595959" stroke-width="120"/>
<circle id="node" cx="1188" cy="2599" r="60" stroke="#595959" stroke-width="120"/>
</g>
</svg>
