<svg width="1400" height="250" viewBox="-410 0 8000 1000" fill="none" xmlns="http://www.w3.org/2000/svg">
<path className="path" d="M968.721 270.064C909.874 154.728 782.857 58.1563 636.257 17.3201C338.95 -65.5154 -0.303894 160.724 0.000305176 441.62C0.221619 641.633 188.589 839.596 419.068 882.039C455.552 888.755 486.67 896.565 488.219 899.39C528.133 972.02 546.957 992.583 597.132 1018.44C662.895 1052.32 775.196 1066.13 783.964 1041.42C786.965 1032.95 770.314 1018.08 746.955 1008.4C698.881 988.457 649.742 932.651 650.779 899.182C651.194 885.805 684.414 861.198 733.484 837.921C831.54 791.407 920.883 705.622 968.182 612.526C1017.06 516.327 1017.31 365.265 968.721 270.064Z" fill="#D5877C"/>
<path className="path" d="M1139.72 270.064C1080.87 154.728 953.857 58.1563 807.257 17.3201C509.95 -65.5154 170.696 160.724 171 441.62C171.222 641.633 359.589 839.596 590.068 882.039C626.552 888.755 657.67 896.565 659.219 899.39C699.133 972.02 717.957 992.583 768.132 1018.44C833.895 1052.32 946.196 1066.13 954.964 1041.42C957.965 1032.95 941.314 1018.08 917.955 1008.4C869.881 988.457 820.742 932.651 821.779 899.182C822.194 885.805 855.414 861.198 904.484 837.921C1002.54 791.407 1091.88 705.622 1139.18 612.526C1188.06 516.327 1188.31 365.265 1139.72 270.064Z" fill="#D58C7C"/>
<path className="path" d="M1310.72 270.064C1251.87 154.728 1124.86 58.1563 978.257 17.3201C680.95 -65.5154 341.696 160.724 342 441.62C342.222 641.633 530.589 839.596 761.068 882.039C797.552 888.755 828.67 896.565 830.219 899.39C870.133 972.02 888.957 992.583 939.132 1018.44C1004.89 1052.32 1117.2 1066.13 1125.96 1041.42C1128.97 1032.95 1112.31 1018.08 1088.95 1008.4C1040.88 988.457 991.742 932.651 992.779 899.182C993.194 885.805 1026.41 861.198 1075.48 837.921C1173.54 791.407 1262.88 705.622 1310.18 612.526C1359.06 516.327 1359.31 365.265 1310.72 270.064Z" fill="#D5917C"/>
<path className="path" d="M1481.72 270.064C1422.87 154.728 1295.86 58.1563 1149.26 17.3201C851.95 -65.5154 512.696 160.724 513 441.62C513.222 641.633 701.589 839.596 932.068 882.039C968.552 888.755 999.67 896.565 1001.22 899.39C1041.13 972.02 1059.96 992.583 1110.13 1018.44C1175.89 1052.32 1288.2 1066.13 1296.96 1041.42C1299.97 1032.95 1283.31 1018.08 1259.95 1008.4C1211.88 988.457 1162.74 932.651 1163.78 899.182C1164.19 885.805 1197.41 861.198 1246.48 837.921C1344.54 791.407 1433.88 705.622 1481.18 612.526C1530.06 516.327 1530.31 365.265 1481.72 270.064Z" fill="#D5977C"/>
<path className="path" d="M1652.72 270.064C1593.87 154.728 1466.86 58.1563 1320.26 17.3201C1022.95 -65.5154 683.696 160.724 684 441.62C684.222 641.633 872.589 839.596 1103.07 882.039C1139.55 888.755 1170.67 896.565 1172.22 899.39C1212.13 972.02 1230.96 992.583 1281.13 1018.44C1346.89 1052.32 1459.2 1066.13 1467.96 1041.42C1470.97 1032.95 1454.31 1018.08 1430.95 1008.4C1382.88 988.457 1333.74 932.651 1334.78 899.182C1335.19 885.805 1368.41 861.198 1417.48 837.921C1515.54 791.407 1604.88 705.622 1652.18 612.526C1701.06 516.327 1701.31 365.265 1652.72 270.064Z" fill="#D5A67C"/>
<path className="path" d="M1823.72 270.064C1764.87 154.728 1637.86 58.1563 1491.26 17.3201C1193.95 -65.5154 854.696 160.724 855 441.62C855.222 641.633 1043.59 839.596 1274.07 882.039C1310.55 888.755 1341.67 896.565 1343.22 899.39C1383.13 972.02 1401.96 992.583 1452.13 1018.44C1517.89 1052.32 1630.2 1066.13 1638.96 1041.42C1641.97 1032.95 1625.31 1018.08 1601.95 1008.4C1553.88 988.457 1504.74 932.651 1505.78 899.182C1506.19 885.805 1539.41 861.198 1588.48 837.921C1686.54 791.407 1775.88 705.622 1823.18 612.526C1872.06 516.327 1872.31 365.265 1823.72 270.064Z" fill="#D5B67C"/>
<path className="path" d="M1994.72 270.064C1935.87 154.728 1808.86 58.1563 1662.26 17.3201C1364.95 -65.5154 1025.7 160.724 1026 441.62C1026.22 641.633 1214.59 839.596 1445.07 882.039C1481.55 888.755 1512.67 896.565 1514.22 899.39C1554.13 972.02 1572.96 992.583 1623.13 1018.44C1688.89 1052.32 1801.2 1066.13 1809.96 1041.42C1812.97 1032.95 1796.31 1018.08 1772.95 1008.4C1724.88 988.457 1675.74 932.651 1676.78 899.182C1677.19 885.805 1710.41 861.198 1759.48 837.921C1857.54 791.407 1946.88 705.622 1994.18 612.526C2043.06 516.327 2043.31 365.265 1994.72 270.064Z" fill="#D5C17C"/>
<path className="path" d="M2165.72 270.064C2106.87 154.728 1979.86 58.1563 1833.26 17.3201C1535.95 -65.5154 1196.7 160.724 1197 441.62C1197.22 641.633 1385.59 839.596 1616.07 882.039C1652.55 888.755 1683.67 896.565 1685.22 899.39C1725.13 972.02 1743.96 992.583 1794.13 1018.44C1859.89 1052.32 1972.2 1066.13 1980.96 1041.42C1983.97 1032.95 1967.31 1018.08 1943.95 1008.4C1895.88 988.457 1846.74 932.651 1847.78 899.182C1848.19 885.805 1881.41 861.198 1930.48 837.921C2028.54 791.407 2117.88 705.622 2165.18 612.526C2214.06 516.327 2214.31 365.265 2165.72 270.064Z" fill="#D5D17C"/>
<path className="path" d="M2336.72 270.064C2277.87 154.728 2150.86 58.1563 2004.26 17.3201C1706.95 -65.5154 1367.7 160.724 1368 441.62C1368.22 641.633 1556.59 839.596 1787.07 882.039C1823.55 888.755 1854.67 896.565 1856.22 899.39C1896.13 972.02 1914.96 992.583 1965.13 1018.44C2030.89 1052.32 2143.2 1066.13 2151.96 1041.42C2154.97 1032.95 2138.31 1018.08 2114.95 1008.4C2066.88 988.457 2017.74 932.651 2018.78 899.182C2019.19 885.805 2052.41 861.198 2101.48 837.921C2199.54 791.407 2288.88 705.622 2336.18 612.526C2385.06 516.327 2385.31 365.265 2336.72 270.064Z" fill="#93D57C"/>
<path className="path" d="M2507.72 270.064C2448.87 154.728 2321.86 58.1563 2175.26 17.3201C1877.95 -65.5154 1538.7 160.724 1539 441.62C1539.22 641.633 1727.59 839.596 1958.07 882.039C1994.55 888.755 2025.67 896.565 2027.22 899.39C2067.13 972.02 2085.96 992.583 2136.13 1018.44C2201.89 1052.32 2314.2 1066.13 2322.96 1041.42C2325.97 1032.95 2309.31 1018.08 2285.95 1008.4C2237.88 988.457 2188.74 932.651 2189.78 899.182C2190.19 885.805 2223.41 861.198 2272.48 837.921C2370.54 791.407 2459.88 705.622 2507.18 612.526C2556.06 516.327 2556.31 365.265 2507.72 270.064Z" fill="#7ED57C"/>
<path className="path" d="M2678.72 270.064C2619.87 154.728 2492.86 58.1563 2346.26 17.3201C2048.95 -65.5154 1709.7 160.724 1710 441.62C1710.22 641.633 1898.59 839.596 2129.07 882.039C2165.55 888.755 2196.67 896.565 2198.22 899.39C2238.13 972.02 2256.96 992.583 2307.13 1018.44C2372.89 1052.32 2485.2 1066.13 2493.96 1041.42C2496.97 1032.95 2480.31 1018.08 2456.95 1008.4C2408.88 988.457 2359.74 932.651 2360.78 899.182C2361.19 885.805 2394.41 861.198 2443.48 837.921C2541.54 791.407 2630.88 705.622 2678.18 612.526C2727.06 516.327 2727.31 365.265 2678.72 270.064Z" fill="#7CD585"/>
<path className="path" d="M2849.72 270.064C2790.87 154.728 2663.86 58.1563 2517.26 17.3201C2219.95 -65.5154 1880.7 160.724 1881 441.62C1881.22 641.633 2069.59 839.596 2300.07 882.039C2336.55 888.755 2367.67 896.565 2369.22 899.39C2409.13 972.02 2427.96 992.583 2478.13 1018.44C2543.89 1052.32 2656.2 1066.13 2664.96 1041.42C2667.97 1032.95 2651.31 1018.08 2627.95 1008.4C2579.88 988.457 2530.74 932.651 2531.78 899.182C2532.19 885.805 2565.41 861.198 2614.48 837.921C2712.54 791.407 2801.88 705.622 2849.18 612.526C2898.06 516.327 2898.31 365.265 2849.72 270.064Z" fill="#7CD58F"/>
<path className="path" d="M3020.72 270.064C2961.87 154.728 2834.86 58.1563 2688.26 17.3201C2390.95 -65.5154 2051.7 160.724 2052 441.62C2052.22 641.633 2240.59 839.596 2471.07 882.039C2507.55 888.755 2538.67 896.565 2540.22 899.39C2580.13 972.02 2598.96 992.583 2649.13 1018.44C2714.89 1052.32 2827.2 1066.13 2835.96 1041.42C2838.97 1032.95 2822.31 1018.08 2798.95 1008.4C2750.88 988.457 2701.74 932.651 2702.78 899.182C2703.19 885.805 2736.41 861.198 2785.48 837.921C2883.54 791.407 2972.88 705.622 3020.18 612.526C3069.06 516.327 3069.31 365.265 3020.72 270.064Z" fill="#7CD59F"/>
<path className="path" d="M3191.72 270.064C3132.87 154.728 3005.86 58.1563 2859.26 17.3201C2561.95 -65.5154 2222.7 160.724 2223 441.62C2223.22 641.633 2411.59 839.596 2642.07 882.039C2678.55 888.755 2709.67 896.565 2711.22 899.39C2751.13 972.02 2769.96 992.583 2820.13 1018.44C2885.89 1052.32 2998.2 1066.13 3006.96 1041.42C3009.97 1032.95 2993.31 1018.08 2969.95 1008.4C2921.88 988.457 2872.74 932.651 2873.78 899.182C2874.19 885.805 2907.41 861.198 2956.48 837.921C3054.54 791.407 3143.88 705.622 3191.18 612.526C3240.06 516.327 3240.31 365.265 3191.72 270.064Z" fill="#7CD5B5"/>
<path className="path" d="M3362.72 270.064C3303.87 154.728 3176.86 58.1563 3030.26 17.3201C2732.95 -65.5154 2393.7 160.724 2394 441.62C2394.22 641.633 2582.59 839.596 2813.07 882.039C2849.55 888.755 2880.67 896.565 2882.22 899.39C2922.13 972.02 2940.96 992.583 2991.13 1018.44C3056.89 1052.32 3169.2 1066.13 3177.96 1041.42C3180.97 1032.95 3164.31 1018.08 3140.95 1008.4C3092.88 988.457 3043.74 932.651 3044.78 899.182C3045.19 885.805 3078.41 861.198 3127.48 837.921C3225.54 791.407 3314.88 705.622 3362.18 612.526C3411.06 516.327 3411.31 365.265 3362.72 270.064Z" fill="#7CD5CF"/>
<path className="path" d="M3533.72 270.064C3474.87 154.728 3347.86 58.1563 3201.26 17.3201C2903.95 -65.5154 2564.7 160.724 2565 441.62C2565.22 641.633 2753.59 839.596 2984.07 882.039C3020.55 888.755 3051.67 896.565 3053.22 899.39C3093.13 972.02 3111.96 992.583 3162.13 1018.44C3227.89 1052.32 3340.2 1066.13 3348.96 1041.42C3351.97 1032.95 3335.31 1018.08 3311.95 1008.4C3263.88 988.457 3214.74 932.651 3215.78 899.182C3216.19 885.805 3249.41 861.198 3298.48 837.921C3396.54 791.407 3485.88 705.622 3533.18 612.526C3582.06 516.327 3582.31 365.265 3533.72 270.064Z" fill="#7CD5D5"/>
<path className="path" d="M3704.72 270.064C3645.87 154.728 3518.86 58.1563 3372.26 17.3201C3074.95 -65.5154 2735.7 160.724 2736 441.62C2736.22 641.633 2924.59 839.596 3155.07 882.039C3191.55 888.755 3222.67 896.565 3224.22 899.39C3264.13 972.02 3282.96 992.583 3333.13 1018.44C3398.89 1052.32 3511.2 1066.13 3519.96 1041.42C3522.97 1032.95 3506.31 1018.08 3482.95 1008.4C3434.88 988.457 3385.74 932.651 3386.78 899.182C3387.19 885.805 3420.41 861.198 3469.48 837.921C3567.54 791.407 3656.88 705.622 3704.18 612.526C3753.06 516.327 3753.31 365.265 3704.72 270.064Z" fill="#7CCFD5"/>
<path className="path" d="M3875.72 270.064C3816.87 154.728 3689.86 58.1563 3543.26 17.3201C3245.95 -65.5154 2906.7 160.724 2907 441.62C2907.22 641.633 3095.59 839.596 3326.07 882.039C3362.55 888.755 3393.67 896.565 3395.22 899.39C3435.13 972.02 3453.96 992.583 3504.13 1018.44C3569.89 1052.32 3682.2 1066.13 3690.96 1041.42C3693.97 1032.95 3677.31 1018.08 3653.95 1008.4C3605.88 988.457 3556.74 932.651 3557.78 899.182C3558.19 885.805 3591.41 861.198 3640.48 837.921C3738.54 791.407 3827.88 705.622 3875.18 612.526C3924.06 516.327 3924.31 365.265 3875.72 270.064Z" fill="#7CCAD5"/>
<path className="path" d="M4046.72 270.064C3987.87 154.728 3860.86 58.1563 3714.26 17.3201C3416.95 -65.5154 3077.7 160.724 3078 441.62C3078.22 641.633 3266.59 839.596 3497.07 882.039C3533.55 888.755 3564.67 896.565 3566.22 899.39C3606.13 972.02 3624.96 992.583 3675.13 1018.44C3740.89 1052.32 3853.2 1066.13 3861.96 1041.42C3864.97 1032.95 3848.31 1018.08 3824.95 1008.4C3776.88 988.457 3727.74 932.651 3728.78 899.182C3729.19 885.805 3762.41 861.198 3811.48 837.921C3909.54 791.407 3998.88 705.622 4046.18 612.526C4095.06 516.327 4095.31 365.265 4046.72 270.064Z" fill="#7CC5D5"/>
<path className="path" d="M4217.72 270.064C4158.87 154.728 4031.86 58.1563 3885.26 17.3201C3587.95 -65.5154 3248.7 160.724 3249 441.62C3249.22 641.633 3437.59 839.596 3668.07 882.039C3704.55 888.755 3735.67 896.565 3737.22 899.39C3777.13 972.02 3795.96 992.583 3846.13 1018.44C3911.89 1052.32 4024.2 1066.13 4032.96 1041.42C4035.97 1032.95 4019.31 1018.08 3995.95 1008.4C3947.88 988.457 3898.74 932.651 3899.78 899.182C3900.19 885.805 3933.41 861.198 3982.48 837.921C4080.54 791.407 4169.88 705.622 4217.18 612.526C4266.06 516.327 4266.31 365.265 4217.72 270.064Z" fill="#7CBFD5"/>
<path className="path" d="M4388.72 270.064C4329.87 154.728 4202.86 58.1563 4056.26 17.3201C3758.95 -65.5154 3419.7 160.724 3420 441.62C3420.22 641.633 3608.59 839.596 3839.07 882.039C3875.55 888.755 3906.67 896.565 3908.22 899.39C3948.13 972.02 3966.96 992.583 4017.13 1018.44C4082.89 1052.32 4195.2 1066.13 4203.96 1041.42C4206.97 1032.95 4190.31 1018.08 4166.95 1008.4C4118.88 988.457 4069.74 932.651 4070.78 899.182C4071.19 885.805 4104.41 861.198 4153.48 837.921C4251.54 791.407 4340.88 705.622 4388.18 612.526C4437.06 516.327 4437.31 365.265 4388.72 270.064Z" fill="#7CBAD5"/>
<path className="path" d="M4559.72 270.064C4500.87 154.728 4373.86 58.1563 4227.26 17.3201C3929.95 -65.5154 3590.7 160.724 3591 441.62C3591.22 641.633 3779.59 839.596 4010.07 882.039C4046.55 888.755 4077.67 896.565 4079.22 899.39C4119.13 972.02 4137.96 992.583 4188.13 1018.44C4253.89 1052.32 4366.2 1066.13 4374.96 1041.42C4377.97 1032.95 4361.31 1018.08 4337.95 1008.4C4289.88 988.457 4240.74 932.651 4241.78 899.182C4242.19 885.805 4275.41 861.198 4324.48 837.921C4422.54 791.407 4511.88 705.622 4559.18 612.526C4608.06 516.327 4608.31 365.265 4559.72 270.064Z" fill="#7CAFD5"/>
<path className="path" d="M4730.72 270.064C4671.87 154.728 4544.86 58.1563 4398.26 17.3201C4100.95 -65.5154 3761.7 160.724 3762 441.62C3762.22 641.633 3950.59 839.596 4181.07 882.039C4217.55 888.755 4248.67 896.565 4250.22 899.39C4290.13 972.02 4308.96 992.583 4359.13 1018.44C4424.89 1052.32 4537.2 1066.13 4545.96 1041.42C4548.97 1032.95 4532.31 1018.08 4508.95 1008.4C4460.88 988.457 4411.74 932.651 4412.78 899.182C4413.19 885.805 4446.41 861.198 4495.48 837.921C4593.54 791.407 4682.88 705.622 4730.18 612.526C4779.06 516.327 4779.31 365.265 4730.72 270.064Z" fill="#7CA5D5"/>
<path className="path" d="M4901.72 270.064C4842.87 154.728 4715.86 58.1563 4569.26 17.3201C4271.95 -65.5154 3932.7 160.724 3933 441.62C3933.22 641.633 4121.59 839.596 4352.07 882.039C4388.55 888.755 4419.67 896.565 4421.22 899.39C4461.13 972.02 4479.96 992.583 4530.13 1018.44C4595.89 1052.32 4708.2 1066.13 4716.96 1041.42C4719.97 1032.95 4703.31 1018.08 4679.95 1008.4C4631.88 988.457 4582.74 932.651 4583.78 899.182C4584.19 885.805 4617.41 861.198 4666.48 837.921C4764.54 791.407 4853.88 705.622 4901.18 612.526C4950.06 516.327 4950.31 365.265 4901.72 270.064Z" fill="#7C9FD5"/>
<path className="path" d="M5072.72 270.064C5013.87 154.728 4886.86 58.1563 4740.26 17.3201C4442.95 -65.5154 4103.7 160.724 4104 441.62C4104.22 641.633 4292.59 839.596 4523.07 882.039C4559.55 888.755 4590.67 896.565 4592.22 899.39C4632.13 972.02 4650.96 992.583 4701.13 1018.44C4766.89 1052.32 4879.2 1066.13 4887.96 1041.42C4890.97 1032.95 4874.31 1018.08 4850.95 1008.4C4802.88 988.457 4753.74 932.651 4754.78 899.182C4755.19 885.805 4788.41 861.198 4837.48 837.921C4935.54 791.407 5024.88 705.622 5072.18 612.526C5121.06 516.327 5121.31 365.265 5072.72 270.064Z" fill="#7C95D5"/>
<path className="path" d="M5243.72 270.064C5184.87 154.728 5057.86 58.1563 4911.26 17.3201C4613.95 -65.5154 4274.7 160.724 4275 441.62C4275.22 641.633 4463.59 839.596 4694.07 882.039C4730.55 888.755 4761.67 896.565 4763.22 899.39C4803.13 972.02 4821.96 992.583 4872.13 1018.44C4937.89 1052.32 5050.2 1066.13 5058.96 1041.42C5061.97 1032.95 5045.31 1018.08 5021.95 1008.4C4973.88 988.457 4924.74 932.651 4925.78 899.182C4926.19 885.805 4959.41 861.198 5008.48 837.921C5106.54 791.407 5195.88 705.622 5243.18 612.526C5292.06 516.327 5292.31 365.265 5243.72 270.064Z" fill="#7C8AD5"/>
<path className="path" d="M5414.72 270.064C5355.87 154.728 5228.86 58.1563 5082.26 17.3201C4784.95 -65.5154 4445.7 160.724 4446 441.62C4446.22 641.633 4634.59 839.596 4865.07 882.039C4901.55 888.755 4932.67 896.565 4934.22 899.39C4974.13 972.02 4992.96 992.583 5043.13 1018.44C5108.89 1052.32 5221.2 1066.13 5229.96 1041.42C5232.97 1032.95 5216.31 1018.08 5192.95 1008.4C5144.88 988.457 5095.74 932.651 5096.78 899.182C5097.19 885.805 5130.41 861.198 5179.48 837.921C5277.54 791.407 5366.88 705.622 5414.18 612.526C5463.06 516.327 5463.31 365.265 5414.72 270.064Z" fill="#7C80D5"/>
<path className="path" d="M5585.72 270.064C5526.87 154.728 5399.86 58.1563 5253.26 17.3201C4955.95 -65.5154 4616.7 160.724 4617 441.62C4617.22 641.633 4805.59 839.596 5036.07 882.039C5072.55 888.755 5103.67 896.565 5105.22 899.39C5145.13 972.02 5163.96 992.583 5214.13 1018.44C5279.89 1052.32 5392.2 1066.13 5400.96 1041.42C5403.97 1032.95 5387.31 1018.08 5363.95 1008.4C5315.88 988.457 5266.74 932.651 5267.78 899.182C5268.19 885.805 5301.41 861.198 5350.48 837.921C5448.54 791.407 5537.88 705.622 5585.18 612.526C5634.06 516.327 5634.31 365.265 5585.72 270.064Z" fill="#A37CD5"/>
<path className="path" d="M5756.72 270.064C5697.87 154.728 5570.86 58.1563 5424.26 17.3201C5126.95 -65.5154 4787.7 160.724 4788 441.62C4788.22 641.633 4976.59 839.596 5207.07 882.039C5243.55 888.755 5274.67 896.565 5276.22 899.39C5316.13 972.02 5334.96 992.583 5385.13 1018.44C5450.89 1052.32 5563.2 1066.13 5571.96 1041.42C5574.97 1032.95 5558.31 1018.08 5534.95 1008.4C5486.88 988.457 5437.74 932.651 5438.78 899.182C5439.19 885.805 5472.41 861.198 5521.48 837.921C5619.54 791.407 5708.88 705.622 5756.18 612.526C5805.06 516.327 5805.31 365.265 5756.72 270.064Z" fill="#BD7CD5"/>
<path className="path" d="M5927.72 270.064C5868.87 154.728 5741.86 58.1563 5595.26 17.3201C5297.95 -65.5154 4958.7 160.724 4959 441.62C4959.22 641.633 5147.59 839.596 5378.07 882.039C5414.55 888.755 5445.67 896.565 5447.22 899.39C5487.13 972.02 5505.96 992.583 5556.13 1018.44C5621.89 1052.32 5734.2 1066.13 5742.96 1041.42C5745.97 1032.95 5729.31 1018.08 5705.95 1008.4C5657.88 988.457 5608.74 932.651 5609.78 899.182C5610.19 885.805 5643.41 861.198 5692.48 837.921C5790.54 791.407 5879.88 705.622 5927.18 612.526C5976.06 516.327 5976.31 365.265 5927.72 270.064Z" fill="#D57CD1"/>
<path className="path" d="M6098.72 270.064C6039.87 154.728 5912.86 58.1563 5766.26 17.3201C5468.95 -65.5154 5129.7 160.724 5130 441.62C5130.22 641.633 5318.59 839.596 5549.07 882.039C5585.55 888.755 5616.67 896.565 5618.22 899.39C5658.13 972.02 5676.96 992.583 5727.13 1018.44C5792.89 1052.32 5905.2 1066.13 5913.96 1041.42C5916.97 1032.95 5900.31 1018.08 5876.95 1008.4C5828.88 988.457 5779.74 932.651 5780.78 899.182C5781.19 885.805 5814.41 861.198 5863.48 837.921C5961.54 791.407 6050.88 705.622 6098.18 612.526C6147.06 516.327 6147.31 365.265 6098.72 270.064Z" fill="#D57CC1"/>
<path className="path" d="M6269.72 270.064C6210.87 154.728 6083.86 58.1563 5937.26 17.3201C5639.95 -65.5154 5300.7 160.724 5301 441.62C5301.22 641.633 5489.59 839.596 5720.07 882.039C5756.55 888.755 5787.67 896.565 5789.22 899.39C5829.13 972.02 5847.96 992.583 5898.13 1018.44C5963.89 1052.32 6076.2 1066.13 6084.96 1041.42C6087.97 1032.95 6071.31 1018.08 6047.95 1008.4C5999.88 988.457 5950.74 932.651 5951.78 899.182C5952.19 885.805 5985.41 861.198 6034.48 837.921C6132.54 791.407 6221.88 705.622 6269.18 612.526C6318.06 516.327 6318.31 365.265 6269.72 270.064Z" fill="#D57CB1"/>
<path className="path" d="M6440.72 270.064C6381.87 154.728 6254.86 58.1563 6108.26 17.3201C5810.95 -65.5154 5471.7 160.724 5472 441.62C5472.22 641.633 5660.59 839.596 5891.07 882.039C5927.55 888.755 5958.67 896.565 5960.22 899.39C6000.13 972.02 6018.96 992.583 6069.13 1018.44C6134.89 1052.32 6247.2 1066.13 6255.96 1041.42C6258.97 1032.95 6242.31 1018.08 6218.95 1008.4C6170.88 988.457 6121.74 932.651 6122.78 899.182C6123.19 885.805 6156.41 861.198 6205.48 837.921C6303.54 791.407 6392.88 705.622 6440.18 612.526C6489.06 516.327 6489.31 365.265 6440.72 270.064Z" fill="#D57CA1"/>
<path className="path" d="M6611.72 270.064C6552.87 154.728 6425.86 58.1563 6279.26 17.3201C5981.95 -65.5154 5642.7 160.724 5643 441.62C5643.22 641.633 5831.59 839.596 6062.07 882.039C6098.55 888.755 6129.67 896.565 6131.22 899.39C6171.13 972.02 6189.96 992.583 6240.13 1018.44C6305.89 1052.32 6418.2 1066.13 6426.96 1041.42C6429.97 1032.95 6413.31 1018.08 6389.95 1008.4C6341.88 988.457 6292.74 932.651 6293.78 899.182C6294.19 885.805 6327.41 861.198 6376.48 837.921C6474.54 791.407 6563.88 705.622 6611.18 612.526C6660.06 516.327 6660.31 365.265 6611.72 270.064Z" fill="#D57C8C"/>
<path className="path" d="M6782.72 270.064C6723.87 154.728 6596.86 58.1563 6450.26 17.3201C6152.95 -65.5154 5813.7 160.724 5814 441.62C5814.22 641.633 6002.59 839.596 6233.07 882.039C6269.55 888.755 6300.67 896.565 6302.22 899.39C6342.13 972.02 6360.96 992.583 6411.13 1018.44C6476.89 1052.32 6589.2 1066.13 6597.96 1041.42C6600.97 1032.95 6584.31 1018.08 6560.95 1008.4C6512.88 988.457 6463.74 932.651 6464.78 899.182C6465.19 885.805 6498.41 861.198 6547.48 837.921C6645.54 791.407 6734.88 705.622 6782.18 612.526C6831.06 516.327 6831.31 365.265 6782.72 270.064Z" fill="#D57C7C"/>
<path className="path" d="M6953.72 270.064C6894.87 154.728 6767.86 58.1563 6621.26 17.3201C6323.95 -65.5154 5984.7 160.724 5985 441.62C5985.22 641.633 6173.59 839.596 6404.07 882.039C6440.55 888.755 6471.67 896.565 6473.22 899.39C6513.13 972.02 6531.96 992.583 6582.13 1018.44C6647.89 1052.32 6760.2 1066.13 6768.96 1041.42C6771.97 1032.95 6755.31 1018.08 6731.95 1008.4C6683.88 988.457 6634.74 932.651 6635.78 899.182C6636.19 885.805 6669.41 861.198 6718.48 837.921C6816.54 791.407 6905.88 705.622 6953.18 612.526C7002.06 516.327 7002.31 365.265 6953.72 270.064Z" fill="#D57C7C"/>
<path className="path" d="M7124.72 270.064C7065.87 154.728 6938.86 58.1563 6792.26 17.3201C6494.95 -65.5154 6155.7 160.724 6156 441.62C6156.22 641.633 6344.59 839.596 6575.07 882.039C6611.55 888.755 6642.67 896.565 6644.22 899.39C6684.13 972.02 6702.96 992.583 6753.13 1018.44C6818.89 1052.32 6931.2 1066.13 6939.96 1041.42C6942.97 1032.95 6926.31 1018.08 6902.95 1008.4C6854.88 988.457 6805.74 932.651 6806.78 899.182C6807.19 885.805 6840.41 861.198 6889.48 837.921C6987.54 791.407 7076.88 705.622 7124.18 612.526C7173.06 516.327 7173.31 365.265 7124.72 270.064Z" fill="#D57C7C"/>
</svg>
