<svg width="auto" height="350" viewBox="-380 250 7500 1200" fill="none" xmlns="http://www.w3.org/2000/svg">
<path className="path" d="M699.793 634.989C657.282 551.716 565.527 481.989 459.625 452.505C244.853 392.697 -0.219541 556.045 0.00020993 758.855C0.160093 903.266 136.234 1046.2 302.73 1076.84C329.086 1081.69 351.565 1087.33 352.684 1089.37C381.517 1141.81 395.115 1156.66 431.361 1175.32C478.867 1199.79 559.992 1209.76 566.326 1191.92C568.494 1185.8 556.465 1175.06 539.591 1168.07C504.863 1153.68 469.366 1113.38 470.115 1089.22C470.415 1079.56 494.413 1061.8 529.86 1044.99C600.694 1011.41 665.235 949.467 699.403 882.251C734.71 812.794 734.89 703.726 699.793 634.989Z" fill="#D5877C"/>
<path className="path" d="M699.793 850.989C657.282 767.716 565.527 697.989 459.625 668.505C244.853 608.697 -0.219541 772.045 0.00020993 974.855C0.160093 1119.27 136.234 1262.2 302.73 1292.84C329.086 1297.69 351.565 1303.33 352.684 1305.37C381.517 1357.81 395.115 1372.66 431.361 1391.32C478.867 1415.79 559.992 1425.76 566.326 1407.92C568.494 1401.8 556.465 1391.06 539.591 1384.07C504.863 1369.68 469.366 1329.38 470.115 1305.22C470.415 1295.56 494.413 1277.8 529.86 1260.99C600.694 1227.41 665.235 1165.47 699.403 1098.25C734.71 1028.79 734.89 919.726 699.793 850.989Z" fill="#D5877C"/>
<path className="path" d="M764.763 944.523C728.694 873.834 650.841 814.644 560.985 789.616C378.754 738.845 170.814 877.508 171 1049.67C171.136 1172.26 286.593 1293.59 427.862 1319.6C450.224 1323.72 469.298 1328.51 470.247 1330.24C494.712 1374.75 506.249 1387.36 537.003 1403.2C577.312 1423.97 646.145 1432.43 651.519 1417.29C653.359 1412.1 643.152 1402.98 628.835 1397.05C599.369 1384.83 569.25 1350.63 569.886 1330.11C570.14 1321.91 590.502 1306.83 620.578 1292.56C680.68 1264.06 735.441 1211.48 764.433 1154.42C794.391 1095.46 794.543 1002.87 764.763 944.523Z" fill="#D58C7C"/>
<path className="path" d="M896.244 525.505C862.575 459.521 789.903 404.272 706.028 380.909C535.927 333.518 341.826 462.951 342 623.654C342.127 738.082 449.899 851.338 581.766 875.62C602.639 879.462 620.443 883.93 621.329 885.547C644.166 927.099 654.935 938.863 683.643 953.654C721.268 973.039 785.52 980.938 790.537 966.805C792.254 961.956 782.727 953.448 769.362 947.91C741.857 936.502 713.743 904.576 714.336 885.428C714.574 877.775 733.58 863.697 761.655 850.38C817.756 823.769 868.873 774.691 895.935 721.43C923.899 666.394 924.041 579.971 896.244 525.505Z" fill="#D5917C"/>
<path className="path" d="M1041.22 956.331C1009.13 893.411 939.871 840.727 859.934 818.449C697.82 773.259 512.834 896.682 513 1049.92C513.121 1159.04 615.832 1267.03 741.507 1290.19C761.401 1293.85 778.369 1298.11 779.213 1299.65C800.977 1339.28 811.241 1350.49 838.6 1364.6C874.459 1383.08 935.694 1390.62 940.475 1377.14C942.111 1372.52 933.032 1364.4 920.295 1359.12C894.081 1348.24 867.287 1317.8 867.853 1299.54C868.079 1292.24 886.193 1278.82 912.949 1266.12C966.417 1240.74 1015.13 1193.95 1040.92 1143.16C1067.57 1090.68 1067.71 1008.27 1041.22 956.331Z" fill="#D5977C"/>
<path className="path" d="M1256.56 530.63C1221.78 462.457 1146.7 405.375 1060.06 381.238C884.335 332.275 683.82 466.001 684 632.034C684.131 750.257 795.464 867.27 931.688 892.357C953.252 896.327 971.644 900.943 972.559 902.613C996.15 945.543 1007.28 957.698 1036.93 972.979C1075.8 993.008 1142.18 1001.17 1147.36 986.566C1149.13 981.557 1139.29 972.766 1125.48 967.045C1097.07 955.259 1068.03 922.273 1068.64 902.49C1068.89 894.583 1088.52 880.039 1117.52 866.28C1175.48 838.786 1228.28 788.08 1256.24 733.053C1285.13 676.192 1285.27 586.902 1256.56 530.63Z" fill="#D5A67C"/>
<path className="path" d="M1256.56 979.63C1221.78 911.457 1146.7 854.375 1060.06 830.238C884.335 781.275 683.82 915.001 684 1081.03C684.131 1199.26 795.464 1316.27 931.688 1341.36C953.252 1345.33 971.644 1349.94 972.559 1351.61C996.15 1394.54 1007.28 1406.7 1036.93 1421.98C1075.8 1442.01 1142.18 1450.17 1147.36 1435.57C1149.13 1430.56 1139.29 1421.77 1125.48 1416.04C1097.07 1404.26 1068.03 1371.27 1068.64 1351.49C1068.89 1343.58 1088.52 1329.04 1117.52 1315.28C1175.48 1287.79 1228.28 1237.08 1256.24 1182.05C1285.13 1125.19 1285.27 1035.9 1256.56 979.63Z" fill="#D5A67C"/>
<path className="path" d="M1418.88 905.324C1384.63 838.136 1310.69 781.879 1225.36 758.09C1052.3 709.834 854.823 841.629 855 1005.26C855.129 1121.78 964.775 1237.1 1098.94 1261.83C1120.17 1265.74 1138.29 1270.29 1139.19 1271.93C1162.42 1314.24 1173.38 1326.22 1202.58 1341.28C1240.86 1361.02 1306.23 1369.06 1311.34 1354.67C1313.08 1349.74 1303.39 1341.07 1289.79 1335.43C1261.81 1323.82 1233.21 1291.31 1233.81 1271.81C1234.05 1264.02 1253.39 1249.68 1281.95 1236.12C1339.03 1209.03 1391.04 1159.06 1418.57 1104.82C1447.02 1048.78 1447.16 960.783 1418.88 905.324Z" fill="#D5B67C"/>
<path className="path" d="M1711.33 631.146C1669.7 549.514 1579.84 481.162 1476.13 452.259C1265.79 393.629 1025.78 553.757 1026 752.57C1026.16 894.135 1159.42 1034.25 1322.48 1064.29C1348.29 1069.04 1370.3 1074.57 1371.4 1076.57C1399.63 1127.98 1412.95 1142.53 1448.45 1160.83C1494.97 1184.81 1574.42 1194.58 1580.63 1177.1C1582.75 1171.1 1570.97 1160.57 1554.44 1153.72C1520.43 1139.61 1485.67 1100.11 1486.4 1076.42C1486.7 1066.96 1510.2 1049.54 1544.91 1033.06C1614.28 1000.14 1677.49 939.425 1710.95 873.533C1745.53 805.446 1745.71 698.527 1711.33 631.146Z" fill="#D5C17C"/>
<path className="path" d="M1774.38 699.911C1739.3 631.191 1663.6 573.651 1576.22 549.32C1399.02 499.964 1196.82 634.764 1197 802.129C1197.13 921.301 1309.4 1039.25 1446.77 1064.54C1468.52 1068.54 1487.07 1073.2 1487.99 1074.88C1511.78 1118.15 1523 1130.41 1552.9 1145.81C1592.1 1166 1659.03 1174.23 1664.26 1159.51C1666.05 1154.46 1656.12 1145.6 1642.2 1139.83C1613.55 1127.95 1584.26 1094.7 1584.88 1074.76C1585.12 1066.79 1604.92 1052.12 1634.17 1038.25C1692.61 1010.54 1745.86 959.428 1774.06 903.958C1803.19 846.641 1803.34 756.634 1774.38 699.911Z" fill="#D5D17C"/>
<path className="path" d="M1600.87 1148.48C1576.34 1100.45 1523.39 1060.22 1462.27 1043.21C1338.31 1008.71 1196.87 1102.94 1197 1219.94C1197.09 1303.25 1275.63 1385.7 1371.72 1403.38C1386.93 1406.17 1399.9 1409.43 1400.55 1410.6C1417.19 1440.85 1425.03 1449.42 1445.95 1460.19C1473.37 1474.3 1520.19 1480.05 1523.85 1469.76C1525.1 1466.23 1518.16 1460.04 1508.42 1456.01C1488.37 1447.7 1467.89 1424.46 1468.32 1410.52C1468.49 1404.95 1482.34 1394.7 1502.8 1385C1543.68 1365.63 1580.93 1329.9 1600.65 1291.12C1621.03 1251.05 1621.13 1188.14 1600.87 1148.48Z" fill="#D5D17C"/>
<path className="path" d="M1926.1 526.53C1892.2 460.108 1819.02 404.492 1734.56 380.975C1563.28 333.27 1367.82 463.561 1368 625.33C1368.13 740.517 1476.65 854.525 1609.43 878.967C1630.45 882.835 1648.38 887.333 1649.27 888.96C1672.27 930.787 1683.11 942.63 1712.02 957.519C1749.91 977.033 1814.61 984.984 1819.66 970.757C1821.39 965.876 1811.79 957.311 1798.34 951.737C1770.64 940.253 1742.33 908.115 1742.93 888.84C1743.17 881.137 1762.3 866.965 1790.57 853.56C1847.07 826.772 1898.54 777.369 1925.79 723.754C1953.95 668.354 1954.09 581.357 1926.1 526.53Z" fill="#93D57C"/>
<path className="path" d="M1740.07 1205.77C1717.46 1161.45 1668.68 1124.35 1612.37 1108.66C1498.18 1076.83 1367.88 1163.76 1368 1271.69C1368.09 1348.55 1440.43 1424.62 1528.96 1440.92C1542.97 1443.5 1554.92 1446.51 1555.52 1447.59C1570.85 1475.5 1578.07 1483.4 1597.35 1493.33C1622.6 1506.35 1665.74 1511.66 1669.1 1502.17C1670.26 1498.91 1663.86 1493.2 1654.89 1489.48C1636.43 1481.81 1617.55 1460.37 1617.95 1447.51C1618.11 1442.37 1630.87 1432.92 1649.72 1423.97C1687.38 1406.1 1721.69 1373.14 1739.86 1337.36C1758.63 1300.4 1758.73 1242.35 1740.07 1205.77Z" fill="#93D57C"/>
<path className="path" d="M2033.48 875.851C2003.44 816.979 1938.61 767.685 1863.78 746.841C1712.02 704.559 1538.84 820.04 1539 963.419C1539.11 1065.51 1635.26 1166.56 1752.91 1188.22C1771.54 1191.65 1787.42 1195.64 1788.21 1197.08C1808.58 1234.15 1818.19 1244.65 1843.8 1257.85C1877.37 1275.14 1934.7 1282.19 1939.17 1269.58C1940.7 1265.25 1932.2 1257.66 1920.28 1252.72C1895.74 1242.54 1870.66 1214.06 1871.19 1196.98C1871.4 1190.15 1888.36 1177.59 1913.41 1165.71C1963.46 1141.96 2009.06 1098.18 2033.21 1050.66C2058.15 1001.55 2058.28 924.445 2033.48 875.851Z" fill="#7ED57C"/>
<path className="path" d="M2311.47 565.573C2274.94 494.008 2196.07 434.086 2105.05 408.747C1920.45 357.348 1709.81 497.728 1710 672.022C1710.14 796.129 1827.09 918.964 1970.2 945.299C1992.85 949.467 2012.17 954.313 2013.13 956.065C2037.92 1001.13 2049.6 1013.89 2080.76 1029.93C2121.59 1050.96 2191.32 1059.52 2196.76 1044.2C2198.62 1038.94 2188.28 1029.71 2173.78 1023.7C2143.93 1011.33 2113.42 976.704 2114.07 955.936C2114.32 947.636 2134.95 932.368 2165.42 917.924C2226.3 889.063 2281.77 835.834 2311.14 778.068C2341.49 718.378 2341.64 624.645 2311.47 565.573Z" fill="#7CD585"/>
<path className="path" d="M2311.47 1033.57C2274.94 962.008 2196.07 902.086 2105.05 876.747C1920.45 825.348 1709.81 965.728 1710 1140.02C1710.14 1264.13 1827.09 1386.96 1970.2 1413.3C1992.85 1417.47 2012.17 1422.31 2013.13 1424.07C2037.92 1469.13 2049.6 1481.89 2080.76 1497.93C2121.59 1518.96 2191.32 1527.52 2196.76 1512.2C2198.62 1506.94 2188.28 1497.71 2173.78 1491.7C2143.93 1479.33 2113.42 1444.7 2114.07 1423.94C2114.32 1415.64 2134.95 1400.37 2165.42 1385.92C2226.3 1357.06 2281.77 1303.83 2311.14 1246.07C2341.49 1186.38 2341.64 1092.64 2311.47 1033.57Z" fill="#7CD585"/>
<path className="path" d="M2375.48 600.851C2345.44 541.979 2280.61 492.685 2205.78 471.841C2054.02 429.559 1880.84 545.04 1881 688.419C1881.11 790.513 1977.26 891.561 2094.91 913.225C2113.54 916.653 2129.42 920.639 2130.21 922.081C2150.58 959.154 2160.19 969.651 2185.8 982.847C2219.37 1000.14 2276.7 1007.19 2281.17 994.58C2282.7 990.255 2274.2 982.663 2262.28 977.723C2237.74 967.544 2212.66 939.059 2213.19 921.975C2213.4 915.147 2230.36 902.587 2255.41 890.705C2305.46 866.963 2351.06 823.175 2375.21 775.655C2400.15 726.552 2400.28 649.445 2375.48 600.851Z" fill="#7CD58F"/>
<path className="path" d="M2594.68 944.431C2561.71 879.76 2490.56 825.609 2408.43 802.712C2241.88 756.264 2051.83 883.122 2052 1040.63C2052.12 1152.78 2157.65 1263.78 2286.76 1287.58C2307.2 1291.34 2324.63 1295.72 2325.5 1297.31C2347.86 1338.03 2358.4 1349.56 2386.51 1364.06C2423.35 1383.06 2486.26 1390.8 2491.18 1376.95C2492.86 1372.2 2483.53 1363.86 2470.44 1358.43C2443.51 1347.25 2415.98 1315.96 2416.57 1297.19C2416.8 1289.69 2435.41 1275.89 2462.9 1262.84C2517.83 1236.76 2567.88 1188.66 2594.37 1136.46C2621.75 1082.52 2621.89 997.812 2594.68 944.431Z" fill="#7CD59F"/>
<path className="path" d="M2418.28 505.235C2396.03 461.574 2348.01 425.016 2292.57 409.557C2180.16 378.199 2051.89 463.843 2052 570.179C2052.08 645.895 2123.31 720.836 2210.45 736.903C2224.25 739.445 2236.01 742.402 2236.6 743.471C2251.69 770.966 2258.81 778.75 2277.78 788.537C2302.65 801.364 2345.11 806.591 2348.42 797.239C2349.56 794.031 2343.26 788.401 2334.43 784.737C2316.25 777.188 2297.67 756.063 2298.07 743.392C2298.22 738.329 2310.78 729.013 2329.34 720.202C2366.41 702.593 2400.19 670.119 2418.08 634.876C2436.56 598.46 2436.65 541.274 2418.28 505.235Z" fill="#7CD59F"/>
<path className="path" d="M2769.53 586.455C2736.33 521.347 2664.67 466.83 2581.96 443.777C2414.23 397.015 2222.83 524.732 2223 683.302C2223.13 796.212 2329.4 907.966 2459.43 931.925C2480.01 935.716 2497.57 940.125 2498.44 941.72C2520.96 982.721 2531.58 994.329 2559.89 1008.92C2596.99 1028.05 2660.35 1035.85 2665.3 1021.9C2666.99 1017.12 2657.59 1008.72 2644.42 1003.26C2617.29 992 2589.57 960.497 2590.16 941.603C2590.39 934.051 2609.13 920.16 2636.82 907.02C2692.14 880.762 2742.54 832.335 2769.23 779.781C2796.8 725.475 2796.94 640.198 2769.53 586.455Z" fill="#7CD5B5"/>
<path className="path" d="M3033.07 710.334C2994.25 634.174 2910.45 570.403 2813.74 543.437C2617.61 488.737 2393.8 638.133 2394 823.62C2394.15 955.697 2518.41 1086.42 2670.46 1114.45C2694.53 1118.88 2715.06 1124.04 2716.08 1125.9C2742.41 1173.86 2754.83 1187.44 2787.93 1204.52C2831.31 1226.89 2905.4 1236.01 2911.18 1219.7C2913.16 1214.1 2902.18 1204.28 2886.77 1197.89C2855.05 1184.72 2822.64 1147.87 2823.32 1125.77C2823.59 1116.93 2845.51 1100.69 2877.88 1085.31C2942.57 1054.6 3001.51 997.952 3032.71 936.476C3064.95 872.952 3065.12 773.2 3033.07 710.334Z" fill="#7CD5CF"/>
<path className="path" d="M2984.87 923.011C2948.98 852.54 2871.5 793.534 2782.09 768.583C2600.74 717.97 2393.81 856.204 2394 1027.83C2394.14 1150.04 2509.03 1271 2649.61 1296.93C2671.86 1301.03 2690.84 1305.81 2691.79 1307.53C2716.14 1351.91 2727.62 1364.47 2758.22 1380.27C2798.33 1400.97 2866.83 1409.41 2872.18 1394.32C2874.01 1389.14 2863.85 1380.05 2849.61 1374.14C2820.28 1361.95 2790.31 1327.86 2790.94 1307.41C2791.2 1299.23 2811.46 1284.2 2841.39 1269.97C2901.2 1241.55 2955.69 1189.14 2984.54 1132.26C3014.35 1073.48 3014.51 981.179 2984.87 923.011Z" fill="#7CD5CF"/>
<path className="path" d="M3224.31 756.972C3184.26 678.403 3097.81 612.617 2998.03 584.799C2795.69 528.37 2564.79 682.488 2565 873.838C2565.15 1010.09 2693.35 1144.95 2850.22 1173.86C2875.05 1178.43 2896.23 1183.75 2897.28 1185.68C2924.45 1235.15 2937.26 1249.16 2971.41 1266.77C3016.16 1289.86 3092.6 1299.26 3098.56 1282.43C3100.61 1276.66 3089.27 1266.53 3073.38 1259.93C3040.66 1246.35 3007.21 1208.34 3007.92 1185.54C3008.2 1176.42 3030.81 1159.66 3064.21 1143.8C3130.94 1112.12 3191.75 1053.68 3223.94 990.261C3257.21 924.73 3257.38 821.824 3224.31 756.972Z" fill="#7CD5D5"/>
<path className="path" d="M3424.23 576.915C3382.42 494.954 3292.18 426.327 3188.03 397.308C2976.81 338.443 2735.78 499.215 2736 698.827C2736.16 840.961 2869.98 981.639 3033.73 1011.8C3059.65 1016.57 3081.75 1022.12 3082.85 1024.13C3111.21 1075.74 3124.58 1090.36 3160.23 1108.73C3206.95 1132.81 3286.74 1142.62 3292.97 1125.06C3295.1 1119.04 3283.27 1108.47 3266.67 1101.59C3232.52 1087.42 3197.61 1047.77 3198.34 1023.98C3198.64 1014.48 3222.24 996.99 3257.1 980.449C3326.77 947.395 3390.24 886.434 3423.84 820.277C3458.57 751.916 3458.74 644.567 3424.23 576.915Z" fill="#7CCFD5"/>
<path className="path" d="M3222.25 1027.78C3195.08 974.492 3136.44 929.871 3068.75 911.003C2931.49 872.729 2774.86 977.263 2775 1107.05C2775.1 1199.47 2862.07 1290.93 2968.48 1310.55C2985.32 1313.65 2999.69 1317.26 3000.41 1318.56C3018.83 1352.12 3027.53 1361.62 3050.69 1373.57C3081.05 1389.22 3132.9 1395.6 3136.95 1384.19C3138.34 1380.27 3130.65 1373.4 3119.86 1368.93C3097.67 1359.72 3074.98 1333.93 3075.46 1318.47C3075.65 1312.29 3090.99 1300.92 3113.64 1290.16C3158.91 1268.67 3200.16 1229.03 3222 1186.02C3244.57 1141.57 3244.68 1071.77 3222.25 1027.78Z" fill="#7CCFD5"/>
<path className="path" d="M3623.18 570.601C3579.67 485.358 3485.77 413.983 3377.39 383.801C3157.59 322.578 2906.78 489.79 2907 697.397C2907.16 845.224 3046.42 991.537 3216.82 1022.91C3243.79 1027.87 3266.8 1033.64 3267.94 1035.73C3297.45 1089.41 3311.37 1104.61 3348.46 1123.72C3397.08 1148.76 3480.1 1158.96 3486.59 1140.7C3488.81 1134.44 3476.5 1123.45 3459.23 1116.3C3423.69 1101.56 3387.36 1060.31 3388.12 1035.58C3388.43 1025.69 3412.99 1007.5 3449.27 990.298C3521.76 955.921 3587.81 892.518 3622.78 823.711C3658.91 752.612 3659.1 640.964 3623.18 570.601Z" fill="#7CCAD5"/>
<path className="path" d="M3629.35 905.737C3595.86 840.081 3523.57 785.106 3440.13 761.86C3270.91 714.705 3077.83 843.494 3078 1003.4C3078.13 1117.26 3185.34 1229.95 3316.51 1254.11C3337.28 1257.93 3354.99 1262.38 3355.87 1263.99C3378.59 1305.33 3389.3 1317.04 3417.86 1331.76C3455.29 1351.04 3519.21 1358.9 3524.2 1344.84C3525.9 1340.02 3516.43 1331.55 3503.13 1326.04C3475.77 1314.69 3447.8 1282.92 3448.39 1263.87C3448.63 1256.25 3467.54 1242.25 3495.47 1228.99C3551.27 1202.52 3602.12 1153.68 3629.04 1100.69C3656.86 1045.92 3657 959.931 3629.35 905.737Z" fill="#7CC5D5"/>
<path className="path" d="M4084.7 603.911C4033.94 504.442 3924.36 421.156 3797.89 385.937C3541.41 314.498 3248.74 509.613 3249 751.866C3249.19 924.363 3411.69 1095.09 3610.52 1131.7C3642 1137.49 3668.84 1144.22 3670.18 1146.66C3704.61 1209.3 3720.85 1227.03 3764.14 1249.33C3820.87 1278.55 3917.75 1290.46 3925.32 1269.15C3927.9 1261.84 3913.54 1249.02 3893.39 1240.67C3851.92 1223.47 3809.52 1175.35 3810.42 1146.48C3810.78 1134.94 3839.43 1113.72 3881.77 1093.65C3966.36 1053.53 4043.43 979.549 4084.24 899.26C4126.4 816.296 4126.62 686.015 4084.7 603.911Z" fill="#7CBFD5"/>
<path className="path" d="M4172.81 715.851C4127.08 626.23 4028.37 551.19 3914.44 519.458C3683.4 455.092 3419.76 630.889 3420 849.157C3420.17 1004.57 3566.55 1158.4 3745.66 1191.38C3774.02 1196.6 3798.2 1202.67 3799.4 1204.86C3830.42 1261.3 3845.05 1277.28 3884.04 1297.37C3935.15 1323.7 4022.42 1334.42 4029.23 1315.23C4031.56 1308.64 4018.62 1297.09 4000.47 1289.56C3963.11 1274.07 3924.92 1230.71 3925.73 1204.7C3926.05 1194.31 3951.87 1175.19 3990 1157.1C4066.2 1120.96 4135.63 1054.3 4172.39 981.957C4210.37 907.207 4210.56 789.826 4172.81 715.851Z" fill="#7CBAD5"/>
<path className="path" d="M4069.67 899.153C4030.2 821.788 3945.02 757.01 3846.7 729.618C3647.32 674.054 3419.8 825.81 3420 1014.23C3420.15 1148.39 3546.48 1281.18 3701.05 1309.65C3725.51 1314.16 3746.38 1319.4 3747.42 1321.29C3774.19 1370.01 3786.81 1383.8 3820.46 1401.14C3864.57 1423.87 3939.88 1433.13 3945.76 1416.56C3947.78 1410.88 3936.61 1400.9 3920.94 1394.41C3888.7 1381.03 3855.75 1343.6 3856.44 1321.15C3856.72 1312.18 3879 1295.67 3911.91 1280.06C3977.67 1248.86 4037.59 1191.32 4069.31 1128.87C4102.09 1064.34 4102.25 963.012 4069.67 899.153Z" fill="#7CBAD5"/>
<path className="path" d="M4091.27 553.388C4060.88 493.86 3995.28 444.016 3919.57 422.939C3766.04 380.186 3590.84 496.955 3591 641.933C3591.11 745.165 3688.39 847.34 3807.41 869.246C3826.26 872.712 3842.33 876.743 3843.13 878.201C3863.74 915.688 3873.46 926.301 3899.37 939.645C3933.33 957.133 3991.32 964.259 3995.85 951.509C3997.4 947.135 3988.8 939.459 3976.74 934.463C3951.91 924.171 3926.54 895.368 3927.07 878.094C3927.29 871.19 3944.44 858.49 3969.78 846.475C4020.42 822.468 4066.56 778.192 4090.99 730.142C4116.23 680.492 4116.36 602.524 4091.27 553.388Z" fill="#7CAFD5"/>
<path className="path" d="M3951.5 1155.44C3929.6 1112.55 3882.33 1076.63 3827.78 1061.44C3717.14 1030.63 3590.89 1114.78 3591 1219.25C3591.08 1293.63 3661.18 1367.26 3746.95 1383.04C3760.53 1385.54 3772.11 1388.45 3772.69 1389.5C3787.54 1416.51 3794.54 1424.16 3813.22 1433.77C3837.69 1446.38 3879.48 1451.51 3882.74 1442.32C3883.86 1439.17 3877.66 1433.64 3868.97 1430.04C3851.08 1422.62 3832.79 1401.87 3833.18 1389.42C3833.34 1384.45 3845.7 1375.29 3863.96 1366.64C3900.45 1349.34 3933.7 1317.43 3951.3 1282.81C3969.49 1247.03 3969.58 1190.85 3951.5 1155.44Z" fill="#7CAFD5"/>
<path className="path" d="M4431.91 882.79C4391.22 803.018 4303.38 736.224 4202 707.979C3996.4 650.686 3761.79 807.165 3762 1001.45C3762.15 1139.79 3892.42 1276.71 4051.8 1306.06C4077.03 1310.71 4098.55 1316.11 4099.62 1318.06C4127.23 1368.3 4140.24 1382.52 4174.94 1400.4C4220.42 1423.84 4298.08 1433.39 4304.14 1416.3C4306.22 1410.44 4294.7 1400.15 4278.55 1393.46C4245.31 1379.67 4211.32 1341.07 4212.04 1317.92C4212.33 1308.67 4235.3 1291.65 4269.23 1275.55C4337.04 1243.38 4398.83 1184.04 4431.54 1119.65C4465.34 1053.12 4465.51 948.636 4431.91 882.79Z" fill="#7CA5D5"/>
<path className="path" d="M4330.32 495.722C4308.13 452.28 4260.23 415.905 4204.94 400.524C4092.82 369.323 3964.89 454.538 3965 560.341C3965.08 635.678 4036.12 710.243 4123.04 726.229C4136.8 728.759 4148.53 731.7 4149.11 732.764C4164.17 760.121 4171.27 767.867 4190.19 777.605C4214.99 790.368 4257.34 795.568 4260.64 786.263C4261.78 783.071 4255.5 777.469 4246.69 773.823C4228.56 766.312 4210.03 745.293 4210.42 732.686C4210.57 727.648 4223.1 718.379 4241.61 709.612C4278.59 692.092 4312.28 659.78 4330.12 624.714C4348.55 588.48 4348.64 531.581 4330.32 495.722Z" fill="#7C9FD5"/>
<path className="path" d="M4420.19 1060.61C4394.54 1010.38 4339.19 968.326 4275.29 950.543C4145.72 914.469 3997.87 1012.99 3998 1135.32C3998.1 1222.42 4080.19 1308.63 4180.64 1327.11C4196.54 1330.04 4210.1 1333.44 4210.78 1334.67C4228.17 1366.3 4236.38 1375.25 4258.24 1386.51C4286.9 1401.27 4335.85 1407.28 4339.67 1396.52C4340.98 1392.83 4333.72 1386.36 4323.54 1382.14C4302.59 1373.46 4281.17 1349.15 4281.62 1334.58C4281.8 1328.75 4296.28 1318.04 4317.67 1307.9C4360.4 1287.65 4399.34 1250.29 4419.95 1209.75C4441.25 1167.85 4441.36 1102.07 4420.19 1060.61Z" fill="#7C9FD5"/>
<path className="path" d="M4783.55 875.352C4742.27 794.486 4653.17 726.776 4550.33 698.144C4341.77 640.065 4103.79 798.69 4104 995.637C4104.16 1135.87 4236.29 1274.67 4397.97 1304.43C4423.57 1309.14 4445.4 1314.62 4446.48 1316.6C4474.48 1367.52 4487.69 1381.94 4522.88 1400.06C4569.02 1423.82 4647.79 1433.5 4653.94 1416.18C4656.05 1410.24 4644.37 1399.81 4627.98 1393.03C4594.26 1379.05 4559.79 1339.92 4560.52 1316.45C4560.81 1307.07 4584.11 1289.82 4618.53 1273.5C4687.32 1240.89 4749.99 1180.74 4783.17 1115.47C4817.46 1048.02 4817.63 942.102 4783.55 875.352Z" fill="#7C95D5"/>
<path className="path" d="M4697.19 488.609C4671.54 438.382 4616.19 396.326 4552.29 378.543C4422.72 342.469 4274.87 440.993 4275 563.318C4275.1 650.421 4357.19 736.631 4457.64 755.114C4473.54 758.038 4487.1 761.44 4487.78 762.67C4505.17 794.299 4513.38 803.254 4535.24 814.513C4563.9 829.269 4612.85 835.281 4616.67 824.523C4617.98 820.832 4610.72 814.356 4600.54 810.141C4579.59 801.457 4558.17 777.155 4558.62 762.579C4558.8 756.754 4573.28 746.038 4594.67 735.901C4637.4 715.645 4676.34 678.287 4696.95 637.745C4718.25 595.852 4718.36 530.067 4697.19 488.609Z" fill="#7C8AD5"/>
<path className="path" d="M4618.15 1167.57C4597.3 1126.76 4552.31 1092.58 4500.38 1078.13C4395.07 1048.81 4274.89 1128.88 4275 1228.28C4275.08 1299.07 4341.8 1369.12 4423.45 1384.14C4436.37 1386.52 4447.39 1389.29 4447.94 1390.28C4462.08 1415.99 4468.75 1423.27 4486.52 1432.41C4509.82 1444.41 4549.6 1449.29 4552.7 1440.55C4553.77 1437.55 4547.87 1432.29 4539.59 1428.86C4522.56 1421.8 4505.16 1402.06 4505.52 1390.21C4505.67 1385.48 4517.44 1376.77 4534.82 1368.53C4569.56 1352.07 4601.2 1321.71 4617.96 1288.77C4635.27 1254.72 4635.36 1201.26 4618.15 1167.57Z" fill="#7C8AD5"/>
<path className="path" d="M5130.37 714.633C5088.8 633.22 4999.06 565.051 4895.5 536.226C4685.46 477.754 4445.79 637.453 4446 835.732C4446.16 976.917 4579.23 1116.66 4742.06 1146.62C4767.83 1151.36 4789.82 1156.87 4790.91 1158.86C4819.11 1210.13 4832.41 1224.65 4867.85 1242.9C4914.31 1266.81 4993.65 1276.56 4999.85 1259.12C5001.97 1253.14 4990.2 1242.64 4973.7 1235.81C4939.74 1221.73 4905.02 1182.34 4905.75 1158.72C4906.05 1149.27 4929.52 1131.9 4964.18 1115.47C5033.46 1082.64 5096.57 1022.09 5129.99 956.371C5164.52 888.466 5164.69 781.834 5130.37 714.633Z" fill="#7C80D5"/>
<path className="path" d="M5191.49 623.142C5156.59 554.751 5081.26 497.485 4994.32 473.27C4818.01 424.151 4616.82 558.306 4617 724.872C4617.13 843.475 4728.84 960.863 4865.52 986.031C4887.16 990.013 4905.61 994.644 4906.53 996.319C4930.2 1039.39 4941.36 1051.58 4971.12 1066.91C5010.12 1087 5076.72 1095.19 5081.92 1080.54C5083.7 1075.52 5073.82 1066.7 5059.97 1060.96C5031.46 1049.13 5002.32 1016.04 5002.93 996.196C5003.18 988.264 5022.88 973.673 5051.98 959.87C5110.13 932.288 5163.12 881.419 5191.17 826.215C5220.15 769.171 5220.3 679.595 5191.49 623.142Z" fill="#A37CD5"/>
<path className="path" d="M5191.49 925.142C5156.59 856.751 5081.26 799.485 4994.32 775.27C4818.01 726.151 4616.82 860.306 4617 1026.87C4617.13 1145.47 4728.84 1262.86 4865.52 1288.03C4887.16 1292.01 4905.61 1296.64 4906.53 1298.32C4930.2 1341.39 4941.36 1353.58 4971.12 1368.91C5010.12 1389 5076.72 1397.19 5081.92 1382.54C5083.7 1377.52 5073.82 1368.7 5059.97 1362.96C5031.46 1351.13 5002.32 1318.04 5002.93 1298.2C5003.18 1290.26 5022.88 1275.67 5051.98 1261.87C5110.13 1234.29 5163.12 1183.42 5191.17 1128.21C5220.15 1071.17 5220.3 981.595 5191.49 925.142Z" fill="#A37CD5"/>
<path className="path" d="M5190.91 1010.23C5166.44 962.299 5113.61 922.167 5052.63 905.198C4928.98 870.774 4787.87 964.791 4788 1081.52C4788.09 1164.64 4866.44 1246.9 4962.3 1264.54C4977.47 1267.33 4990.42 1270.58 4991.06 1271.75C5007.66 1301.93 5015.49 1310.48 5036.36 1321.22C5063.71 1335.3 5110.42 1341.04 5114.07 1330.77C5115.31 1327.25 5108.39 1321.07 5098.67 1317.05C5078.68 1308.76 5058.24 1285.57 5058.67 1271.66C5058.85 1266.11 5072.66 1255.88 5093.07 1246.21C5133.85 1226.88 5171.01 1191.23 5190.69 1152.54C5211.01 1112.56 5211.12 1049.79 5190.91 1010.23Z" fill="#BD7CD5"/>
<path className="path" d="M5506.5 592.712C5473.24 527.494 5401.45 472.885 5318.6 449.794C5150.57 402.953 4958.83 530.884 4959 689.721C4959.13 802.821 5065.59 914.762 5195.85 938.762C5216.47 942.56 5234.05 946.976 5234.93 948.573C5257.49 989.643 5268.13 1001.27 5296.48 1015.89C5333.65 1035.05 5397.12 1042.86 5402.08 1028.89C5403.77 1024.1 5394.36 1015.69 5381.16 1010.21C5353.99 998.938 5326.22 967.382 5326.8 948.456C5327.04 940.892 5345.81 926.978 5373.55 913.815C5428.96 887.513 5479.46 839.005 5506.19 786.362C5533.81 731.965 5533.96 646.545 5506.5 592.712Z" fill="#D57CD1"/>
<path className="path" d="M5689.06 756.786C5655.1 690.255 5581.8 634.547 5497.19 610.991C5325.61 563.207 5129.82 693.714 5130 855.749C5130.13 971.126 5238.84 1085.32 5371.85 1109.8C5392.91 1113.68 5410.86 1118.18 5411.76 1119.81C5434.79 1161.71 5445.66 1173.57 5474.61 1188.49C5512.57 1208.03 5577.38 1216 5582.44 1201.75C5584.17 1196.86 5574.56 1188.28 5561.08 1182.69C5533.33 1171.19 5504.98 1139 5505.57 1119.69C5505.81 1111.98 5524.99 1097.78 5553.3 1084.35C5609.89 1057.52 5661.45 1008.04 5688.75 954.336C5716.96 898.843 5717.1 811.703 5689.06 756.786Z" fill="#D57CC1"/>
<path className="path" d="M5689.06 981.786C5655.1 915.255 5581.8 859.547 5497.19 835.991C5325.61 788.207 5129.82 918.714 5130 1080.75C5130.13 1196.13 5238.84 1310.32 5371.85 1334.8C5392.91 1338.68 5410.86 1343.18 5411.76 1344.81C5434.79 1386.71 5445.66 1398.57 5474.61 1413.49C5512.57 1433.03 5577.38 1441 5582.44 1426.75C5584.17 1421.86 5574.56 1413.28 5561.08 1407.69C5533.33 1396.19 5504.98 1364 5505.57 1344.69C5505.81 1336.98 5524.99 1322.78 5553.3 1309.35C5609.89 1282.52 5661.45 1233.04 5688.75 1179.34C5716.96 1123.84 5717.1 1036.7 5689.06 981.786Z" fill="#D57CC1"/>
<path className="path" d="M5940.07 600.078C5901.25 524.027 5817.45 460.348 5720.74 433.421C5524.61 378.8 5300.8 527.98 5301 713.201C5301.15 845.088 5425.41 975.624 5577.46 1003.61C5601.53 1008.04 5622.06 1013.19 5623.08 1015.05C5649.41 1062.94 5661.83 1076.5 5694.93 1093.55C5738.31 1115.89 5812.4 1125 5818.18 1108.71C5820.16 1103.12 5809.18 1093.31 5793.77 1086.93C5762.05 1073.78 5729.64 1036.98 5730.32 1014.91C5730.59 1006.09 5752.51 989.868 5784.88 974.519C5849.57 943.848 5908.51 887.282 5939.71 825.895C5971.95 762.463 5972.12 662.853 5940.07 600.078Z" fill="#D57CB1"/>
<path className="path" d="M5940.07 903.078C5901.25 827.027 5817.45 763.348 5720.74 736.421C5524.61 681.8 5300.8 830.98 5301 1016.2C5301.15 1148.09 5425.41 1278.62 5577.46 1306.61C5601.53 1311.04 5622.06 1316.19 5623.08 1318.05C5649.41 1365.94 5661.83 1379.5 5694.93 1396.55C5738.31 1418.89 5812.4 1428 5818.18 1411.71C5820.16 1406.12 5809.18 1396.31 5793.77 1389.93C5762.05 1376.78 5729.64 1339.98 5730.32 1317.91C5730.59 1309.09 5752.51 1292.87 5784.88 1277.52C5849.57 1246.85 5908.51 1190.28 5939.71 1128.9C5971.95 1065.46 5972.12 965.853 5940.07 903.078Z" fill="#D57CB1"/>
<path className="path" d="M6131.31 816.715C6091.26 738.256 6004.81 672.562 5905.03 644.782C5702.69 588.432 5471.79 742.335 5472 933.419C5472.15 1069.48 5600.35 1204.15 5757.22 1233.02C5782.05 1237.59 5803.23 1242.9 5804.28 1244.82C5831.45 1294.23 5844.26 1308.22 5878.41 1325.81C5923.16 1348.86 5999.6 1358.25 6005.56 1341.44C6007.61 1335.68 5996.27 1325.56 5980.38 1318.98C5947.66 1305.41 5914.21 1267.45 5914.92 1244.68C5915.2 1235.58 5937.81 1218.84 5971.21 1203.01C6037.94 1171.37 6098.75 1113.01 6130.94 1049.68C6164.21 984.24 6164.38 881.477 6131.31 816.715Z" fill="#D57CA1"/>
<path className="path" d="M6325.44 604.377C6283.99 523.073 6194.51 454.996 6091.23 426.21C5881.78 367.816 5642.79 527.3 5643 725.313C5643.16 866.309 5775.86 1005.86 5938.22 1035.78C5963.93 1040.51 5985.85 1046.02 5986.94 1048.01C6015.06 1099.21 6028.32 1113.71 6063.67 1131.93C6109.99 1155.82 6189.11 1165.55 6195.29 1148.13C6197.4 1142.16 6185.67 1131.68 6169.21 1124.85C6135.35 1110.8 6100.73 1071.46 6101.46 1047.86C6101.75 1038.43 6125.15 1021.09 6159.72 1004.68C6228.8 971.89 6291.74 911.417 6325.06 845.79C6359.49 777.977 6359.67 671.488 6325.44 604.377Z" fill="#D57C8C"/>
<path className="path" d="M6117.24 1041.21C6088.43 984.749 6026.25 937.471 5954.48 917.479C5808.93 876.926 5642.85 987.685 5643 1125.2C5643.11 1223.12 5735.32 1320.04 5848.16 1340.81C5866.02 1344.1 5881.25 1347.93 5882.01 1349.31C5901.55 1384.87 5910.76 1394.93 5935.33 1407.59C5967.52 1424.18 6022.5 1430.94 6026.79 1418.84C6028.26 1414.69 6020.11 1407.41 6008.67 1402.67C5985.14 1392.91 5961.08 1365.59 5961.59 1349.21C5961.79 1342.66 5978.06 1330.61 6002.08 1319.22C6050.08 1296.44 6093.82 1254.45 6116.98 1208.87C6140.9 1161.78 6141.02 1087.82 6117.24 1041.21Z" fill="#D57C8C"/>
<path className="path" d="M6541.75 835.932C6497.54 749.267 6402.12 676.7 6291.98 646.015C6068.63 583.77 5813.77 753.772 5814 964.844C5814.17 1115.14 5955.68 1263.89 6128.82 1295.78C6156.23 1300.83 6179.61 1306.7 6180.77 1308.82C6210.76 1363.4 6224.9 1378.85 6262.59 1398.28C6312 1423.74 6396.36 1434.11 6402.95 1415.55C6405.2 1409.18 6392.69 1398.01 6375.14 1390.73C6339.03 1375.75 6302.11 1333.82 6302.89 1308.67C6303.21 1298.61 6328.16 1280.12 6365.02 1262.63C6438.69 1227.68 6505.81 1163.22 6541.34 1093.27C6578.06 1020.98 6578.25 907.469 6541.75 835.932Z" fill="#D57C7C"/>
<path className="path" d="M6826.88 737.046C6786.12 657.165 6698.16 590.279 6596.63 561.996C6390.74 504.624 6155.79 661.318 6156 855.866C6156.15 994.395 6286.6 1131.5 6446.22 1160.9C6471.49 1165.55 6493.04 1170.96 6494.11 1172.92C6521.75 1223.22 6534.79 1237.46 6569.54 1255.37C6615.08 1278.84 6692.85 1288.4 6698.92 1271.29C6701 1265.42 6689.47 1255.12 6673.29 1248.42C6640 1234.6 6605.97 1195.95 6606.69 1172.77C6606.98 1163.51 6629.98 1146.47 6663.96 1130.34C6731.87 1098.13 6793.75 1038.71 6826.5 974.235C6860.35 907.608 6860.52 802.983 6826.88 737.046Z" fill="#D57C7C"/>
<path className="path" d="M6857.72 566.502C6815.09 483.009 6723.08 413.1 6616.89 383.538C6401.53 323.573 6155.78 487.35 6156 690.693C6156.16 835.484 6292.61 978.791 6459.56 1009.52C6485.99 1014.38 6508.53 1020.03 6509.66 1022.08C6538.57 1074.65 6552.2 1089.54 6588.55 1108.26C6636.19 1132.78 6717.53 1142.78 6723.89 1124.9C6726.06 1118.76 6714 1107.99 6697.08 1100.99C6662.25 1086.55 6626.66 1046.15 6627.41 1021.93C6627.71 1012.24 6651.77 994.429 6687.32 977.578C6758.35 943.907 6823.07 881.806 6857.33 814.413C6892.73 744.774 6892.91 635.419 6857.72 566.502Z" fill="#D57C7C"/>
<path className="path" d="M6857.72 866.502C6815.09 783.009 6723.08 713.1 6616.89 683.538C6401.53 623.573 6155.78 787.35 6156 990.693C6156.16 1135.48 6292.61 1278.79 6459.56 1309.52C6485.99 1314.38 6508.53 1320.03 6509.66 1322.08C6538.57 1374.65 6552.2 1389.54 6588.55 1408.26C6636.19 1432.78 6717.53 1442.78 6723.89 1424.9C6726.06 1418.76 6714 1407.99 6697.08 1400.99C6662.25 1386.55 6626.66 1346.15 6627.41 1321.93C6627.71 1312.24 6651.77 1294.43 6687.32 1277.58C6758.35 1243.91 6823.07 1181.81 6857.33 1114.41C6892.73 1044.77 6892.91 935.419 6857.72 866.502Z" fill="#D57C7C"/>
<path className="path" d="M599.547 326.06C563.126 254.714 484.515 194.975 393.783 169.714C209.778 118.472 -0.188088 258.423 0.000183592 432.184C0.137163 555.911 116.719 678.371 259.364 704.626C281.944 708.78 301.203 713.611 302.162 715.359C326.865 760.287 338.514 773.008 369.568 789.001C410.269 809.961 479.773 818.502 485.2 803.22C487.057 797.978 476.751 788.778 462.294 782.79C432.541 770.455 402.129 735.934 402.771 715.23C403.028 706.956 423.588 691.734 453.957 677.334C514.644 648.561 569.939 595.495 599.213 537.906C629.463 478.398 629.617 384.952 599.547 326.06Z" fill="#D5877C"/>
<path className="path" d="M684.76 316.231C653.55 255.062 586.187 203.844 508.438 182.186C350.761 138.253 170.839 258.242 171 407.218C171.118 513.297 271.018 618.289 393.252 640.799C412.601 644.361 429.105 648.503 429.926 650.001C451.095 688.521 461.077 699.427 487.688 713.138C522.565 731.11 582.124 738.432 586.774 725.33C588.366 720.835 579.535 712.947 567.146 707.814C541.65 697.238 515.59 667.641 516.14 649.891C516.36 642.796 533.978 629.746 560.002 617.4C612.006 592.731 659.388 547.234 684.473 497.859C710.395 446.84 710.527 366.722 684.76 316.231Z" fill="#D58C7C"/>
<path className="path" d="M978.565 270.907C950.283 215.428 889.239 168.975 818.783 149.331C675.898 109.485 512.854 218.312 513 353.43C513.106 449.641 603.635 544.867 714.403 565.282C731.937 568.513 746.892 572.27 747.637 573.629C766.819 608.565 775.866 618.457 799.98 630.893C831.585 647.192 885.557 653.833 889.771 641.95C891.213 637.874 883.21 630.72 871.984 626.064C848.88 616.472 825.264 589.628 825.763 573.529C825.962 567.094 841.927 555.258 865.51 544.061C912.635 521.686 955.573 480.422 978.305 435.64C1001.79 389.366 1001.91 316.702 978.565 270.907Z" fill="#D5977C"/>
<path className="path" d="M1256.56 373.63C1221.78 305.457 1146.7 248.375 1060.06 224.238C884.335 175.275 683.82 309.001 684 475.034C684.131 593.257 795.464 710.27 931.688 735.357C953.252 739.327 971.644 743.943 972.559 745.613C996.15 788.543 1007.28 800.698 1036.93 815.979C1075.8 836.008 1142.18 844.168 1147.36 829.566C1149.13 824.557 1139.29 815.766 1125.48 810.045C1097.07 798.259 1068.03 765.273 1068.64 745.49C1068.89 737.583 1088.52 723.039 1117.52 709.28C1175.48 681.786 1228.28 631.08 1256.24 576.053C1285.13 519.192 1285.27 429.902 1256.56 373.63Z" fill="#D5A67C"/>
<path className="path" d="M1327.31 373.701C1298.62 317.456 1236.69 270.361 1165.22 250.446C1020.26 210.05 854.852 320.38 855 457.363C855.108 554.903 946.949 651.443 1059.32 672.14C1077.11 675.416 1092.28 679.224 1093.04 680.602C1112.5 716.021 1121.68 726.049 1146.14 738.657C1178.2 755.181 1232.96 761.914 1237.23 749.867C1238.69 745.734 1230.58 738.481 1219.19 733.761C1195.75 724.037 1171.79 696.822 1172.3 680.501C1172.5 673.977 1188.69 661.977 1212.62 650.626C1260.43 627.942 1303.99 586.108 1327.05 540.708C1350.88 493.795 1351 420.127 1327.31 373.701Z" fill="#D5B67C"/>
<path className="path" d="M1600.87 354.484C1576.34 306.446 1523.39 266.223 1462.27 249.214C1338.31 214.712 1196.87 308.943 1197 425.939C1197.09 509.246 1275.63 591.699 1371.72 609.377C1386.93 612.174 1399.9 615.427 1400.55 616.603C1417.19 646.854 1425.03 655.419 1445.95 666.187C1473.37 680.301 1520.19 686.051 1523.85 675.762C1525.1 672.232 1518.16 666.037 1508.42 662.006C1488.37 653.701 1467.89 630.457 1468.32 616.517C1468.49 610.946 1482.34 600.697 1502.8 591.001C1543.68 571.628 1580.93 535.898 1600.65 497.122C1621.03 457.055 1621.13 394.136 1600.87 354.484Z" fill="#D5D17C"/>
<path className="path" d="M1926.1 369.53C1892.2 303.108 1819.02 247.492 1734.56 223.975C1563.28 176.27 1367.82 306.561 1368 468.33C1368.13 583.517 1476.65 697.525 1609.43 721.967C1630.45 725.835 1648.38 730.333 1649.27 731.96C1672.27 773.787 1683.11 785.63 1712.02 800.519C1749.91 820.033 1814.61 827.984 1819.66 813.757C1821.39 808.876 1811.79 800.311 1798.34 794.737C1770.64 783.253 1742.33 751.115 1742.93 731.84C1743.17 724.137 1762.3 709.965 1790.57 696.56C1847.07 669.772 1898.54 620.369 1925.79 566.754C1953.95 511.354 1954.09 424.357 1926.1 369.53Z" fill="#93D57C"/>
<path className="path" d="M2199.66 278.313C2169.92 220.098 2105.71 171.354 2031.61 150.742C1881.33 108.931 1709.85 223.125 1710 364.905C1710.11 465.86 1805.33 565.781 1921.83 587.204C1940.27 590.594 1956 594.536 1956.78 595.961C1976.96 632.621 1986.47 643 2011.83 656.049C2045.08 673.153 2101.84 680.121 2106.27 667.652C2107.79 663.374 2099.37 655.868 2087.57 650.982C2063.27 640.917 2038.43 612.75 2038.95 595.857C2039.16 589.105 2055.95 576.685 2080.76 564.935C2130.32 541.458 2175.48 498.158 2199.39 451.169C2224.09 402.613 2224.22 326.365 2199.66 278.313Z" fill="#7CD585"/>
<path className="path" d="M2594.68 338.431C2561.71 273.76 2490.56 219.609 2408.43 196.712C2241.88 150.264 2051.83 277.122 2052 434.626C2052.12 546.777 2157.65 657.779 2286.76 681.578C2307.2 685.344 2324.63 689.723 2325.5 691.307C2347.86 732.032 2358.4 743.562 2386.51 758.059C2423.35 777.059 2486.26 784.8 2491.18 770.948C2492.86 766.196 2483.53 757.857 2470.44 752.429C2443.51 741.248 2415.98 709.957 2416.57 691.19C2416.8 683.69 2435.41 669.892 2462.9 656.84C2517.83 630.759 2567.88 582.657 2594.37 530.456C2621.75 476.516 2621.89 391.812 2594.68 338.431Z" fill="#7CD59F"/>
<path className="path" d="M2935.71 274.174C2902.81 209.613 2831.78 155.554 2749.8 132.695C2583.54 86.3263 2393.83 212.969 2394 370.207C2394.12 482.168 2499.46 592.983 2628.34 616.741C2648.75 620.5 2666.15 624.872 2667.01 626.453C2689.33 667.11 2699.86 678.621 2727.92 693.093C2764.69 712.06 2827.49 719.788 2832.4 705.96C2834.07 701.216 2824.76 692.891 2811.7 687.473C2784.82 676.311 2757.34 645.072 2757.92 626.337C2758.15 618.849 2776.73 605.075 2804.17 592.045C2859 566.008 2908.96 517.988 2935.41 465.875C2962.74 412.026 2962.88 327.465 2935.71 274.174Z" fill="#7CD5CF"/>
<path className="path" d="M3222.25 421.783C3195.08 368.492 3136.44 323.871 3068.75 305.003C2931.49 266.729 2774.86 371.263 2775 501.05C2775.1 593.466 2862.07 684.935 2968.48 704.545C2985.32 707.649 2999.69 711.257 3000.41 712.562C3018.83 746.121 3027.53 755.622 3050.69 767.568C3081.05 783.224 3132.9 789.603 3136.95 778.189C3138.34 774.273 3130.65 767.401 3119.86 762.929C3097.67 753.716 3074.98 727.931 3075.46 712.466C3075.65 706.286 3090.99 694.916 3113.64 684.161C3158.91 662.669 3200.16 623.032 3222 580.017C3244.57 535.569 3244.68 465.771 3222.25 421.783Z" fill="#7CCFD5"/>
<path className="path" d="M3562.84 281.288C3533.39 223.511 3469.82 175.133 3396.45 154.676C3247.64 113.18 3077.85 226.515 3078 367.229C3078.11 467.425 3172.39 566.595 3287.74 587.856C3306 591.221 3321.58 595.133 3322.35 596.548C3342.33 632.932 3351.75 643.233 3376.86 656.184C3409.78 673.159 3465.98 680.075 3470.37 667.7C3471.87 663.454 3463.54 656.004 3451.85 651.155C3427.79 641.166 3403.19 613.211 3403.71 596.444C3403.92 589.743 3420.55 577.416 3445.11 565.755C3494.18 542.454 3538.9 499.481 3562.57 452.844C3587.03 404.654 3587.16 328.979 3562.84 281.288Z" fill="#7CC5D5"/>
<path className="path" d="M4060.03 178.334C4021.15 102.174 3937.23 38.403 3840.37 11.4372C3643.94 -43.2626 3419.8 106.133 3420 291.62C3420.15 423.697 3544.6 554.42 3696.88 582.447C3720.98 586.882 3741.54 592.039 3742.56 593.904C3768.94 641.865 3781.37 655.444 3814.52 672.516C3857.97 694.891 3932.17 704.008 3937.96 687.695C3939.95 682.099 3928.94 672.278 3913.51 665.886C3881.75 652.719 3849.28 615.868 3849.97 593.767C3850.24 584.934 3872.19 568.685 3904.61 553.314C3969.4 522.599 4028.42 465.952 4059.67 404.476C4091.97 340.952 4092.13 241.2 4060.03 178.334Z" fill="#7CBAD5"/>
<path className="path" d="M3951.5 549.441C3929.6 506.546 3882.33 470.629 3827.78 455.442C3717.14 424.634 3590.89 508.776 3591 613.246C3591.08 687.634 3661.18 761.26 3746.95 777.045C3760.53 779.543 3772.11 782.447 3772.69 783.498C3787.54 810.51 3794.54 818.158 3813.22 827.773C3837.69 840.376 3879.48 845.51 3882.74 836.323C3883.86 833.171 3877.66 827.639 3868.97 824.039C3851.08 816.623 3832.79 795.868 3833.18 783.421C3833.34 778.446 3845.7 769.294 3863.96 760.637C3900.45 743.337 3933.7 711.433 3951.3 676.808C3969.49 641.031 3969.58 584.848 3951.5 549.441Z" fill="#7CAFD5"/>
<path className="path" d="M4322.99 246.299C4288.91 179.549 4215.36 123.658 4130.46 100.024C3958.29 52.0831 3761.82 183.019 3762 345.587C3762.13 461.344 3871.21 575.914 4004.68 600.478C4025.81 604.365 4043.83 608.885 4044.73 610.52C4067.84 652.554 4078.74 664.455 4107.8 679.418C4145.89 699.028 4210.92 707.019 4216 692.721C4217.73 687.817 4208.09 679.209 4194.56 673.607C4166.73 662.067 4138.27 629.77 4138.87 610.4C4139.11 602.658 4158.35 588.417 4186.76 574.945C4243.55 548.025 4295.29 498.377 4322.68 444.498C4350.98 388.823 4351.13 301.396 4322.99 246.299Z" fill="#7CA5D5"/>
<path className="path" d="M4420.19 502.609C4394.54 452.382 4339.19 410.326 4275.29 392.543C4145.72 356.469 3997.87 454.993 3998 577.318C3998.1 664.421 4080.19 750.631 4180.64 769.114C4196.54 772.038 4210.1 775.44 4210.78 776.67C4228.17 808.299 4236.38 817.254 4258.24 828.513C4286.9 843.269 4335.85 849.281 4339.67 838.523C4340.98 834.832 4333.72 828.356 4323.54 824.141C4302.59 815.457 4281.17 791.155 4281.62 776.579C4281.8 770.754 4296.28 760.038 4317.67 749.901C4360.4 729.645 4399.34 692.287 4419.95 651.745C4441.25 609.852 4441.36 544.067 4420.19 502.609Z" fill="#7C9FD5"/>
<path className="path" d="M4691.02 243.473C4655.36 173.659 4578.39 115.203 4489.55 90.4841C4309.39 40.3427 4103.82 177.289 4104 347.318C4104.13 468.389 4218.28 588.219 4357.94 613.91C4380.05 617.975 4398.91 622.702 4399.85 624.412C4424.03 668.376 4435.44 680.824 4465.84 696.473C4505.69 716.984 4573.75 725.341 4579.06 710.387C4580.88 705.257 4570.79 696.255 4556.63 690.396C4527.5 678.326 4497.72 644.546 4498.35 624.287C4498.6 616.19 4518.73 601.295 4548.47 587.205C4607.89 559.049 4662.03 507.122 4690.69 450.77C4720.31 392.54 4720.46 301.1 4691.02 243.473Z" fill="#7C95D5"/>
<path className="path" d="M5191.49 319.142C5156.59 250.751 5081.26 193.485 4994.32 169.27C4818.01 120.151 4616.82 254.306 4617 420.872C4617.13 539.475 4728.84 656.863 4865.52 682.031C4887.16 686.013 4905.61 690.644 4906.53 692.319C4930.2 735.387 4941.36 747.581 4971.12 762.912C5010.12 783.004 5076.72 791.191 5081.92 776.542C5083.7 771.517 5073.82 762.698 5059.97 756.958C5031.46 745.134 5002.32 712.043 5002.93 692.196C5003.18 684.264 5022.88 669.673 5051.98 655.87C5110.13 628.288 5163.12 577.419 5191.17 522.215C5220.15 465.171 5220.3 375.595 5191.49 319.142Z" fill="#A37CD5"/>
<path className="path" d="M5190.91 404.228C5166.44 356.299 5113.61 316.167 5052.63 299.198C4928.98 264.774 4787.87 358.791 4788 475.52C4788.09 558.637 4866.44 640.903 4962.3 658.54C4977.47 661.331 4990.42 664.576 4991.06 665.75C5007.66 695.932 5015.49 704.478 5036.36 715.221C5063.71 729.302 5110.42 735.04 5114.07 724.774C5115.31 721.252 5108.39 715.072 5098.67 711.049C5078.68 702.763 5058.24 679.572 5058.67 665.664C5058.85 660.105 5072.66 649.879 5093.07 640.206C5133.85 620.877 5171.01 585.228 5190.69 546.541C5211.01 506.565 5211.12 443.79 5190.91 404.228Z" fill="#BD7CD5"/>
<path className="path" d="M5689.06 375.786C5655.1 309.255 5581.8 253.547 5497.19 229.991C5325.61 182.207 5129.82 312.714 5130 474.749C5130.13 590.126 5238.84 704.321 5371.85 728.804C5392.91 732.678 5410.86 737.184 5411.76 738.813C5434.79 780.71 5445.66 792.572 5474.61 807.485C5512.57 827.032 5577.38 834.996 5582.44 820.745C5584.17 815.857 5574.56 807.277 5561.08 801.694C5533.33 790.191 5504.98 758 5505.57 738.693C5505.81 730.977 5524.99 716.782 5553.3 703.355C5609.89 676.523 5661.45 627.038 5688.75 573.336C5716.96 517.843 5717.1 430.703 5689.06 375.786Z" fill="#D57CC1"/>
<path className="path" d="M5940.07 297.078C5901.25 221.027 5817.45 157.348 5720.74 130.421C5524.61 75.7996 5300.8 224.98 5301 410.201C5301.15 542.088 5425.41 672.624 5577.46 700.61C5601.53 705.039 5622.06 710.188 5623.08 712.051C5649.41 759.943 5661.83 773.502 5694.93 790.55C5738.31 812.893 5812.4 821.997 5818.18 805.707C5820.16 800.119 5809.18 790.312 5793.77 783.93C5762.05 770.781 5729.64 733.984 5730.32 711.914C5730.59 703.094 5752.51 686.868 5784.88 671.519C5849.57 640.848 5908.51 584.282 5939.71 522.895C5971.95 459.463 5972.12 359.853 5940.07 297.078Z" fill="#D57CB1"/>
<path className="path" d="M6131.31 210.715C6091.26 132.256 6004.81 66.5617 5905.03 38.7823C5702.69 -17.5679 5471.79 136.335 5472 327.419C5472.15 463.481 5600.35 598.149 5757.22 627.021C5782.05 631.589 5803.23 636.902 5804.28 638.824C5831.45 688.232 5844.26 702.22 5878.41 719.807C5923.16 742.858 5999.6 752.25 6005.56 735.445C6007.61 729.68 5996.27 719.562 5980.38 712.978C5947.66 699.413 5914.21 661.451 5914.92 638.683C5915.2 629.583 5937.81 612.844 5971.21 597.009C6037.94 565.367 6098.75 507.011 6130.94 443.68C6164.21 378.24 6164.38 275.477 6131.31 210.715Z" fill="#D57CA1"/>
<path className="path" d="M6117.24 435.214C6088.43 378.749 6026.25 331.471 5954.48 311.479C5808.93 270.926 5642.85 381.685 5643 519.201C5643.11 617.12 5735.32 714.036 5848.16 734.814C5866.02 738.102 5881.25 741.925 5882.01 743.308C5901.55 778.865 5910.76 788.933 5935.33 801.589C5967.52 818.178 6022.5 824.937 6026.79 812.843C6028.26 808.694 6020.11 801.413 6008.67 796.674C5985.14 786.912 5961.08 759.592 5961.59 743.207C5961.79 736.658 5978.06 724.611 6002.08 713.216C6050.08 690.444 6093.82 648.447 6116.98 602.87C6140.9 555.775 6141.02 481.821 6117.24 435.214Z" fill="#D57C8C"/>
<path className="path" d="M6541.75 229.932C6497.54 143.267 6402.12 70.7 6291.98 40.0147C6068.63 -22.2298 5813.77 147.772 5814 358.844C5814.17 509.138 5955.68 657.892 6128.82 689.784C6156.23 694.831 6179.61 700.7 6180.77 702.822C6210.76 757.398 6224.9 772.85 6262.59 792.277C6312 817.738 6396.36 828.113 6402.95 809.55C6405.2 803.182 6392.69 792.006 6375.14 784.733C6339.03 769.749 6302.11 727.816 6302.89 702.666C6303.21 692.615 6328.16 674.125 6365.02 656.633C6438.69 621.682 6505.81 557.221 6541.34 487.266C6578.06 414.98 6578.25 301.469 6541.75 229.932Z" fill="#D57C7C"/>
<path className="path" d="M6862.59 224.117C6827.87 156.164 6752.92 99.2647 6666.42 75.2047C6491 26.3994 6290.82 159.696 6291 325.196C6291.13 443.04 6402.28 559.677 6538.27 584.683C6559.8 588.64 6578.16 593.242 6579.07 594.906C6602.62 637.699 6613.73 649.814 6643.34 665.047C6682.14 685.011 6748.4 693.145 6753.58 678.59C6755.35 673.597 6745.52 664.834 6731.74 659.131C6703.37 647.383 6674.38 614.503 6674.99 594.784C6675.24 586.902 6694.84 572.404 6723.79 558.69C6781.65 531.285 6834.37 480.741 6862.28 425.89C6891.11 369.212 6891.26 280.209 6862.59 224.117Z" fill="#D57C7C"/>
<path className="path" d="M599.547 1257.06C563.126 1185.71 484.515 1125.98 393.783 1100.71C209.778 1049.47 -0.188088 1189.42 0.000183592 1363.18C0.137163 1486.91 116.719 1609.37 259.364 1635.63C281.944 1639.78 301.203 1644.61 302.162 1646.36C326.865 1691.29 338.514 1704.01 369.568 1720C410.269 1740.96 479.773 1749.5 485.2 1734.22C487.057 1728.98 476.751 1719.78 462.294 1713.79C432.541 1701.46 402.129 1666.93 402.771 1646.23C403.028 1637.96 423.588 1622.73 453.957 1608.33C514.644 1579.56 569.939 1526.49 599.213 1468.91C629.463 1409.4 629.617 1315.95 599.547 1257.06Z" fill="#D5877C"/>
<path className="path" d="M684.76 1247.23C653.55 1186.06 586.187 1134.84 508.438 1113.19C350.761 1069.25 170.839 1189.24 171 1338.22C171.118 1444.3 271.018 1549.29 393.252 1571.8C412.601 1575.36 429.105 1579.5 429.926 1581C451.095 1619.52 461.077 1630.43 487.688 1644.14C522.565 1662.11 582.124 1669.43 586.774 1656.33C588.366 1651.84 579.535 1643.95 567.146 1638.81C541.65 1628.24 515.59 1598.64 516.14 1580.89C516.36 1573.8 533.978 1560.75 560.002 1548.4C612.006 1523.73 659.388 1478.23 684.473 1428.86C710.395 1377.84 710.527 1297.72 684.76 1247.23Z" fill="#D58C7C"/>
<path className="path" d="M794.614 1518.95C779.39 1489.08 746.53 1464.06 708.604 1453.49C631.689 1432.03 543.921 1490.63 544 1563.39C544.057 1615.19 592.789 1666.47 652.416 1677.46C661.854 1679.2 669.905 1681.22 670.306 1681.95C680.632 1700.77 685.501 1706.09 698.482 1712.79C715.495 1721.57 744.548 1725.14 746.817 1718.74C747.593 1716.55 743.285 1712.7 737.242 1710.19C724.805 1705.02 712.093 1690.57 712.361 1681.9C712.468 1678.44 721.062 1672.06 733.757 1666.03C759.125 1653.98 782.238 1631.77 794.475 1607.65C807.119 1582.74 807.184 1543.61 794.614 1518.95Z" fill="#D5977C"/>
<path className="path" d="M1256.56 1304.63C1221.78 1236.46 1146.7 1179.38 1060.06 1155.24C884.335 1106.28 683.82 1240 684 1406.03C684.131 1524.26 795.464 1641.27 931.688 1666.36C953.252 1670.33 971.644 1674.94 972.559 1676.61C996.15 1719.54 1007.28 1731.7 1036.93 1746.98C1075.8 1767.01 1142.18 1775.17 1147.36 1760.57C1149.13 1755.56 1139.29 1746.77 1125.48 1741.04C1097.07 1729.26 1068.03 1696.27 1068.64 1676.49C1068.89 1668.58 1088.52 1654.04 1117.52 1640.28C1175.48 1612.79 1228.28 1562.08 1256.24 1507.05C1285.13 1450.19 1285.27 1360.9 1256.56 1304.63Z" fill="#D5A67C"/>
<path className="path" d="M1327.31 1304.7C1298.62 1248.46 1236.69 1201.36 1165.22 1181.45C1020.26 1141.05 854.852 1251.38 855 1388.36C855.108 1485.9 946.949 1582.44 1059.32 1603.14C1077.11 1606.42 1092.28 1610.22 1093.04 1611.6C1112.5 1647.02 1121.68 1657.05 1146.14 1669.66C1178.2 1686.18 1232.96 1692.91 1237.23 1680.87C1238.69 1676.73 1230.58 1669.48 1219.19 1664.76C1195.75 1655.04 1171.79 1627.82 1172.3 1611.5C1172.5 1604.98 1188.69 1592.98 1212.62 1581.63C1260.43 1558.94 1303.99 1517.11 1327.05 1471.71C1350.88 1424.8 1351 1351.13 1327.31 1304.7Z" fill="#D5B67C"/>
<path className="path" d="M1600.87 1285.48C1576.34 1237.45 1523.39 1197.22 1462.27 1180.21C1338.31 1145.71 1196.87 1239.94 1197 1356.94C1197.09 1440.25 1275.63 1522.7 1371.72 1540.38C1386.93 1543.17 1399.9 1546.43 1400.55 1547.6C1417.19 1577.85 1425.03 1586.42 1445.95 1597.19C1473.37 1611.3 1520.19 1617.05 1523.85 1606.76C1525.1 1603.23 1518.16 1597.04 1508.42 1593.01C1488.37 1584.7 1467.89 1561.46 1468.32 1547.52C1468.49 1541.95 1482.34 1531.7 1502.8 1522C1543.68 1502.63 1580.93 1466.9 1600.65 1428.12C1621.03 1388.05 1621.13 1325.14 1600.87 1285.48Z" fill="#D5D17C"/>
<path className="path" d="M1607.05 1558.62C1592.53 1530.17 1561.18 1506.35 1525.01 1496.27C1451.64 1475.84 1367.92 1531.65 1368 1600.94C1368.05 1650.28 1414.54 1699.11 1471.41 1709.58C1480.41 1711.24 1488.09 1713.16 1488.48 1713.86C1498.33 1731.78 1502.97 1736.85 1515.35 1743.23C1531.58 1751.59 1559.29 1754.99 1561.46 1748.9C1562.2 1746.81 1558.09 1743.14 1552.32 1740.75C1540.46 1735.83 1528.33 1722.07 1528.59 1713.81C1528.69 1710.51 1536.89 1704.44 1549 1698.7C1573.2 1687.22 1595.24 1666.06 1606.91 1643.1C1618.98 1619.37 1619.04 1582.1 1607.05 1558.62Z" fill="#93D57C"/>
<path className="path" d="M2137.01 1311.89C2111.07 1261.12 2055.08 1218.6 1990.46 1200.62C1859.41 1164.16 1709.87 1263.76 1710 1387.41C1710.1 1475.46 1793.13 1562.61 1894.72 1581.3C1910.81 1584.25 1924.52 1587.69 1925.21 1588.94C1942.8 1620.91 1951.1 1629.96 1973.21 1641.34C2002.2 1656.26 2051.7 1662.34 2055.57 1651.46C2056.89 1647.73 2049.55 1641.19 2039.25 1636.92C2018.06 1628.15 1996.4 1603.58 1996.86 1588.84C1997.04 1582.96 2011.69 1572.12 2033.32 1561.88C2076.54 1541.4 2115.92 1503.63 2136.77 1462.65C2158.31 1420.3 2158.42 1353.8 2137.01 1311.89Z" fill="#7CD585"/>
<path className="path" d="M2594.68 1269.43C2561.71 1204.76 2490.56 1150.61 2408.43 1127.71C2241.88 1081.26 2051.83 1208.12 2052 1365.63C2052.12 1477.78 2157.65 1588.78 2286.76 1612.58C2307.2 1616.34 2324.63 1620.72 2325.5 1622.31C2347.86 1663.03 2358.4 1674.56 2386.51 1689.06C2423.35 1708.06 2486.26 1715.8 2491.18 1701.95C2492.86 1697.2 2483.53 1688.86 2470.44 1683.43C2443.51 1672.25 2415.98 1640.96 2416.57 1622.19C2416.8 1614.69 2435.41 1600.89 2462.9 1587.84C2517.83 1561.76 2567.88 1513.66 2594.37 1461.46C2621.75 1407.52 2621.89 1322.81 2594.68 1269.43Z" fill="#7CD59F"/>
<path className="path" d="M2935.71 1205.17C2902.81 1140.61 2831.78 1086.55 2749.8 1063.7C2583.54 1017.33 2393.83 1143.97 2394 1301.21C2394.12 1413.17 2499.46 1523.98 2628.34 1547.74C2648.75 1551.5 2666.15 1555.87 2667.01 1557.45C2689.33 1598.11 2699.86 1609.62 2727.92 1624.09C2764.69 1643.06 2827.49 1650.79 2832.4 1636.96C2834.07 1632.22 2824.76 1623.89 2811.7 1618.47C2784.82 1607.31 2757.34 1576.07 2757.92 1557.34C2758.15 1549.85 2776.73 1536.08 2804.17 1523.04C2859 1497.01 2908.96 1448.99 2935.41 1396.87C2962.74 1343.03 2962.88 1258.47 2935.71 1205.17Z" fill="#7CD5CF"/>
<path className="path" d="M3222.25 1352.78C3195.08 1299.49 3136.44 1254.87 3068.75 1236C2931.49 1197.73 2774.86 1302.26 2775 1432.05C2775.1 1524.47 2862.07 1615.93 2968.48 1635.55C2985.32 1638.65 2999.69 1642.26 3000.41 1643.56C3018.83 1677.12 3027.53 1686.62 3050.69 1698.57C3081.05 1714.22 3132.9 1720.6 3136.95 1709.19C3138.34 1705.27 3130.65 1698.4 3119.86 1693.93C3097.67 1684.72 3074.98 1658.93 3075.46 1643.47C3075.65 1637.29 3090.99 1625.92 3113.64 1615.16C3158.91 1593.67 3200.16 1554.03 3222 1511.02C3244.57 1466.57 3244.68 1396.77 3222.25 1352.78Z" fill="#7CCFD5"/>
<path className="path" d="M3562.84 1294.29C3533.39 1236.51 3469.82 1188.13 3396.45 1167.68C3247.64 1126.18 3077.85 1239.51 3078 1380.23C3078.11 1480.43 3172.39 1579.59 3287.74 1600.86C3306 1604.22 3321.58 1608.13 3322.35 1609.55C3342.33 1645.93 3351.75 1656.23 3376.86 1669.18C3409.78 1686.16 3465.98 1693.08 3470.37 1680.7C3471.87 1676.45 3463.54 1669 3451.85 1664.16C3427.79 1654.17 3403.19 1626.21 3403.71 1609.44C3403.92 1602.74 3420.55 1590.42 3445.11 1578.76C3494.18 1555.45 3538.9 1512.48 3562.57 1465.84C3587.03 1417.65 3587.16 1341.98 3562.84 1294.29Z" fill="#7CC5D5"/>
<path className="path" d="M4060.03 1199.33C4021.15 1123.17 3937.23 1059.4 3840.37 1032.44C3643.94 977.737 3419.8 1127.13 3420 1312.62C3420.15 1444.7 3544.6 1575.42 3696.88 1603.45C3720.98 1607.88 3741.54 1613.04 3742.56 1614.9C3768.94 1662.86 3781.37 1676.44 3814.52 1693.52C3857.97 1715.89 3932.17 1725.01 3937.96 1708.7C3939.95 1703.1 3928.94 1693.28 3913.51 1686.89C3881.75 1673.72 3849.28 1636.87 3849.97 1614.77C3850.24 1605.93 3872.19 1589.69 3904.61 1574.31C3969.4 1543.6 4028.42 1486.95 4059.67 1425.48C4091.97 1361.95 4092.13 1262.2 4060.03 1199.33Z" fill="#7CBAD5"/>
<path className="path" d="M4269.01 1221.18C4238.21 1160.89 4171.73 1110.4 4095.01 1089.05C3939.4 1045.75 3761.84 1164.02 3762 1310.87C3762.12 1415.43 3860.7 1518.92 3981.33 1541.1C4000.43 1544.61 4016.72 1548.7 4017.53 1550.17C4038.42 1588.14 4048.27 1598.89 4074.53 1612.41C4108.95 1630.12 4167.72 1637.34 4172.31 1624.43C4173.88 1619.99 4165.17 1612.22 4152.94 1607.16C4127.78 1596.74 4102.06 1567.56 4102.61 1550.07C4102.82 1543.07 4120.21 1530.21 4145.89 1518.04C4197.21 1493.72 4243.97 1448.88 4268.73 1400.21C4294.31 1349.92 4294.44 1270.95 4269.01 1221.18Z" fill="#7CA5D5"/>
<path className="path" d="M4479.92 1385.8C4457.09 1341.04 4407.8 1303.57 4350.91 1287.72C4235.53 1255.58 4103.88 1343.37 4104 1452.37C4104.09 1529.98 4177.18 1606.8 4266.62 1623.27C4280.78 1625.88 4292.86 1628.91 4293.46 1630C4308.95 1658.19 4316.25 1666.17 4335.72 1676.2C4361.24 1689.35 4404.82 1694.71 4408.22 1685.12C4409.39 1681.83 4402.93 1676.06 4393.86 1672.3C4375.21 1664.57 4356.14 1642.91 4356.54 1629.92C4356.7 1624.73 4369.59 1615.18 4388.64 1606.15C4426.69 1588.1 4461.36 1554.81 4479.71 1518.69C4498.68 1481.36 4498.78 1422.74 4479.92 1385.8Z" fill="#7C95D5"/>
<path className="path" d="M5191.49 1250.14C5156.59 1181.75 5081.26 1124.49 4994.32 1100.27C4818.01 1051.15 4616.82 1185.31 4617 1351.87C4617.13 1470.47 4728.84 1587.86 4865.52 1613.03C4887.16 1617.01 4905.61 1621.64 4906.53 1623.32C4930.2 1666.39 4941.36 1678.58 4971.12 1693.91C5010.12 1714 5076.72 1722.19 5081.92 1707.54C5083.7 1702.52 5073.82 1693.7 5059.97 1687.96C5031.46 1676.13 5002.32 1643.04 5002.93 1623.2C5003.18 1615.26 5022.88 1600.67 5051.98 1586.87C5110.13 1559.29 5163.12 1508.42 5191.17 1453.21C5220.15 1396.17 5220.3 1306.59 5191.49 1250.14Z" fill="#A37CD5"/>
<path className="path" d="M5190.91 1335.23C5166.44 1287.3 5113.61 1247.17 5052.63 1230.2C4928.98 1195.77 4787.87 1289.79 4788 1406.52C4788.09 1489.64 4866.44 1571.9 4962.3 1589.54C4977.47 1592.33 4990.42 1595.58 4991.06 1596.75C5007.66 1626.93 5015.49 1635.48 5036.36 1646.22C5063.71 1660.3 5110.42 1666.04 5114.07 1655.77C5115.31 1652.25 5108.39 1646.07 5098.67 1642.05C5078.68 1633.76 5058.24 1610.57 5058.67 1596.66C5058.85 1591.11 5072.66 1580.88 5093.07 1571.21C5133.85 1551.88 5171.01 1516.23 5190.69 1477.54C5211.01 1437.56 5211.12 1374.79 5190.91 1335.23Z" fill="#BD7CD5"/>
<path className="path" d="M5689.06 1306.79C5655.1 1240.26 5581.8 1184.55 5497.19 1160.99C5325.61 1113.21 5129.82 1243.71 5130 1405.75C5130.13 1521.13 5238.84 1635.32 5371.85 1659.8C5392.91 1663.68 5410.86 1668.18 5411.76 1669.81C5434.79 1711.71 5445.66 1723.57 5474.61 1738.49C5512.57 1758.03 5577.38 1766 5582.44 1751.75C5584.17 1746.86 5574.56 1738.28 5561.08 1732.69C5533.33 1721.19 5504.98 1689 5505.57 1669.69C5505.81 1661.98 5524.99 1647.78 5553.3 1634.35C5609.89 1607.52 5661.45 1558.04 5688.75 1504.34C5716.96 1448.84 5717.1 1361.7 5689.06 1306.79Z" fill="#D57CC1"/>
<path className="path" d="M5940.07 1228.08C5901.25 1152.03 5817.45 1088.35 5720.74 1061.42C5524.61 1006.8 5300.8 1155.98 5301 1341.2C5301.15 1473.09 5425.41 1603.62 5577.46 1631.61C5601.53 1636.04 5622.06 1641.19 5623.08 1643.05C5649.41 1690.94 5661.83 1704.5 5694.93 1721.55C5738.31 1743.89 5812.4 1753 5818.18 1736.71C5820.16 1731.12 5809.18 1721.31 5793.77 1714.93C5762.05 1701.78 5729.64 1664.98 5730.32 1642.91C5730.59 1634.09 5752.51 1617.87 5784.88 1602.52C5849.57 1571.85 5908.51 1515.28 5939.71 1453.9C5971.95 1390.46 5972.12 1290.85 5940.07 1228.08Z" fill="#D57CB1"/>
<path className="path" d="M6131.31 1141.72C6091.26 1063.26 6004.81 997.562 5905.03 969.782C5702.69 913.432 5471.79 1067.34 5472 1258.42C5472.15 1394.48 5600.35 1529.15 5757.22 1558.02C5782.05 1562.59 5803.23 1567.9 5804.28 1569.82C5831.45 1619.23 5844.26 1633.22 5878.41 1650.81C5923.16 1673.86 5999.6 1683.25 6005.56 1666.44C6007.61 1660.68 5996.27 1650.56 5980.38 1643.98C5947.66 1630.41 5914.21 1592.45 5914.92 1569.68C5915.2 1560.58 5937.81 1543.84 5971.21 1528.01C6037.94 1496.37 6098.75 1438.01 6130.94 1374.68C6164.21 1309.24 6164.38 1206.48 6131.31 1141.72Z" fill="#D57CA1"/>
<path className="path" d="M6541.75 1160.93C6497.54 1074.27 6402.12 1001.7 6291.98 971.015C6068.63 908.77 5813.77 1078.77 5814 1289.84C5814.17 1440.14 5955.68 1588.89 6128.82 1620.78C6156.23 1625.83 6179.61 1631.7 6180.77 1633.82C6210.76 1688.4 6224.9 1703.85 6262.59 1723.28C6312 1748.74 6396.36 1759.11 6402.95 1740.55C6405.2 1734.18 6392.69 1723.01 6375.14 1715.73C6339.03 1700.75 6302.11 1658.82 6302.89 1633.67C6303.21 1623.61 6328.16 1605.12 6365.02 1587.63C6438.69 1552.68 6505.81 1488.22 6541.34 1418.27C6578.06 1345.98 6578.25 1232.47 6541.75 1160.93Z" fill="#D57C7C"/>
<path className="path" d="M6862.59 1246.12C6827.87 1178.16 6752.92 1121.26 6666.42 1097.2C6491 1048.4 6290.82 1181.7 6291 1347.2C6291.13 1465.04 6402.28 1581.68 6538.27 1606.68C6559.8 1610.64 6578.16 1615.24 6579.07 1616.91C6602.62 1659.7 6613.73 1671.81 6643.34 1687.05C6682.14 1707.01 6748.4 1715.15 6753.58 1700.59C6755.35 1695.6 6745.52 1686.83 6731.74 1681.13C6703.37 1669.38 6674.38 1636.5 6674.99 1616.78C6675.24 1608.9 6694.84 1594.4 6723.79 1580.69C6781.65 1553.28 6834.37 1502.74 6862.28 1447.89C6891.11 1391.21 6891.26 1302.21 6862.59 1246.12Z" fill="#D57C7C"/>
</svg>
