<svg width="2500" height="2618" viewBox="0 0 2500 2618" fill="none" xmlns="http://www.w3.org/2000/svg">
<path d="M2409.75 670.804C2263.37 384.326 1947.41 144.453 1582.73 43.0209C843.159 -162.732 -0.756136 399.219 0.000580977 1096.93C0.551142 1593.73 469.126 2085.45 1042.46 2190.87C1133.21 2207.55 1210.62 2226.95 1214.48 2233.97C1313.76 2414.37 1360.59 2465.45 1485.4 2529.66C1648.99 2613.83 1928.35 2648.12 1950.16 2586.76C1957.62 2565.71 1916.2 2528.77 1858.1 2504.73C1738.51 2455.2 1616.27 2316.59 1618.85 2233.45C1619.89 2200.23 1702.52 2139.11 1824.59 2081.29C2068.51 1965.75 2290.75 1752.67 2408.41 1521.43C2529.99 1282.49 2530.61 907.272 2409.75 670.804Z" fill="#212121"/>
<path d="M1821.2 1296.86C1779.99 953.742 1468.26 709.01 1124.93 750.239C781.59 791.467 536.662 1103.04 577.864 1446.16C619.067 1789.28 930.797 2034.01 1274.13 1992.79C1617.47 1951.56 1862.4 1639.98 1821.2 1296.86Z" fill="white"/>
<path fill-rule="evenodd" clip-rule="evenodd" d="M798.593 889.41L923.813 1932.21C739.876 1841.94 561.19 1655.87 534.953 1437.37C508.716 1218.88 641.256 1020.66 798.593 889.41Z" fill="#0058DD"/>
<path fill-rule="evenodd" clip-rule="evenodd" d="M1600.15 1850.99L1474.93 808.195C1658.87 898.464 1866.48 1069.78 1892.72 1288.27C1918.95 1506.77 1757.49 1719.74 1600.15 1850.99Z" fill="#DD2C00"/>
<path d="M799.672 496.125C799.672 500.594 799.5 507.641 799.156 517.266C799.156 526.891 798.984 537.719 798.641 549.75C798.297 561.781 797.781 574.328 797.094 587.391C796.75 600.109 796.062 611.797 795.031 622.453C794 632.766 792.797 641.359 791.422 648.234C790.391 655.109 789.016 658.547 787.297 658.547C782.141 658.547 777.156 654.938 772.344 647.719C767.875 640.156 763.234 632.078 758.422 623.484C757.391 621.422 756.188 615.406 754.812 605.438C753.781 595.125 752.578 582.234 751.203 566.766C750.172 551.297 749.141 534.109 748.109 515.203C747.078 496.297 746.047 477.047 745.016 457.453C743.984 437.859 743.125 418.609 742.438 399.703C742.094 380.797 741.75 363.781 741.406 348.656C741.062 333.531 741.062 320.984 741.406 311.016C741.75 300.703 742.438 294.688 743.469 292.969C744.844 290.562 749.656 288.844 757.906 287.812C766.156 286.438 776.125 285.75 787.812 285.75C799.844 285.75 812.734 286.094 826.484 286.781C840.234 287.469 852.953 288.5 864.641 289.875C876.672 290.906 886.641 292.109 894.547 293.484C902.797 294.859 907.438 296.062 908.469 297.094C909.844 298.469 910.016 302.25 908.984 308.438C908.297 314.281 906.922 320.812 904.859 328.031C903.141 334.906 900.906 341.438 898.156 347.625C895.75 353.812 893.688 357.766 891.969 359.484C890.25 361.203 882.172 361.031 867.734 358.969C853.641 356.906 830.953 354.5 799.672 351.75V437.859C823.734 439.922 842.469 441.812 855.875 443.531C869.625 445.25 876.844 446.453 877.531 447.141C878.906 448.516 879.422 451.266 879.078 455.391C878.734 459.516 877.875 463.984 876.5 468.797C875.125 473.266 873.406 477.562 871.344 481.688C869.281 485.469 867.219 488.047 865.156 489.422C864.125 490.109 857.938 491.141 846.594 492.516C835.594 493.891 819.953 495.094 799.672 496.125ZM1020.36 375.984C1023.11 377.703 1025.69 381.141 1028.09 386.297C1030.84 391.109 1033.25 396.781 1035.31 403.312C1037.72 409.5 1039.61 416.203 1040.98 423.422C1042.7 430.641 1044.08 437.344 1045.11 443.531C1046.48 449.719 1047.34 455.047 1047.69 459.516C1048.03 463.641 1048.03 466.219 1047.69 467.25C1047 468.625 1044.94 470 1041.5 471.375C1038.41 472.75 1033.77 474.297 1027.58 476.016C1021.39 477.734 1012.8 479.625 1001.8 481.688C1001.11 462.781 999.734 448.516 997.672 438.891C995.609 428.922 993.375 421.875 990.969 417.75C988.219 412.938 985.297 410.531 982.203 410.531C979.109 411.906 976.359 413.625 973.953 415.688C971.547 417.406 969.484 419.297 967.766 421.359C965.703 423.766 963.812 426.344 962.094 429.094C961.406 430.125 960.719 432.531 960.031 436.312C959.344 440.094 958.656 445.766 957.969 453.328C957.969 455.734 957.797 460.719 957.453 468.281C957.453 475.844 957.281 484.609 956.938 494.578C956.938 504.547 956.766 515.031 956.422 526.031C956.422 537.031 956.25 547.344 955.906 556.969C955.906 566.25 955.734 574.156 955.391 580.688C955.391 587.219 955.219 591 954.875 592.031C954.188 593.75 952.469 596.156 949.719 599.25C946.969 602.344 943.875 605.266 940.438 608.016C937 610.422 933.734 612.484 930.641 614.203C927.547 615.578 925.484 615.406 924.453 613.688C923.422 612.656 922.391 608.188 921.359 600.281C920.328 592.375 919.125 582.75 917.75 571.406C916.719 559.719 915.516 547 914.141 533.25C912.766 519.5 911.562 506.266 910.531 493.547C909.5 480.828 908.641 469.484 907.953 459.516C907.266 449.203 906.75 441.812 906.406 437.344C906.062 430.812 905.719 423.594 905.375 415.688C905.031 407.781 904.688 400.391 904.344 393.516C904.344 386.297 904.344 380.109 904.344 374.953C904.688 369.453 905.375 366.188 906.406 365.156C907.094 364.125 909.328 363.953 913.109 364.641C917.234 364.984 921.531 366.016 926 367.734C930.812 369.109 935.281 371 939.406 373.406C943.531 375.812 946.281 378.047 947.656 380.109C948.688 381.828 949.719 384.406 950.75 387.844C957.281 384.406 963.469 381.312 969.312 378.562C975.5 375.469 981.344 373.234 986.844 371.859C992.688 370.484 998.359 370.141 1003.86 370.828C1009.36 371.172 1014.86 372.891 1020.36 375.984ZM1104.41 507.984C1109.91 505.922 1116.09 503.688 1122.97 501.281C1130.19 498.531 1137.06 496.125 1143.59 494.062C1150.12 491.656 1155.97 489.594 1161.12 487.875C1166.28 486.156 1170.06 484.781 1172.47 483.75C1172.12 479.969 1171.61 475.672 1170.92 470.859C1170.58 465.703 1170.06 460.891 1169.38 456.422C1168.69 451.609 1167.83 447.484 1166.8 444.047C1165.77 440.609 1164.73 438.547 1163.7 437.859C1160.95 436.828 1156.31 435.969 1149.78 435.281C1143.59 434.25 1137.06 434.422 1130.19 435.797C1123.66 437.172 1117.64 439.75 1112.14 443.531C1106.64 447.312 1103.55 453.328 1102.86 461.578C1102.17 467.078 1102 473.953 1102.34 482.203C1102.69 490.453 1103.38 499.047 1104.41 507.984ZM1216.3 516.234C1215.95 516.922 1211.83 518.297 1203.92 520.359C1196.02 522.422 1186.56 524.656 1175.56 527.062C1164.56 529.125 1152.88 531.359 1140.5 533.766C1128.12 535.828 1117.47 537.547 1108.53 538.922C1110.25 552.672 1112.31 565.047 1114.72 576.047C1117.12 586.703 1119.19 593.406 1120.91 596.156C1122.62 598.562 1124.86 600.797 1127.61 602.859C1130.02 604.578 1132.94 606.297 1136.38 608.016C1140.16 609.391 1144.62 610.422 1149.78 611.109C1153.56 612.141 1157.17 610.766 1160.61 606.984C1163.36 603.547 1165.77 597.531 1167.83 588.938C1170.23 580.344 1171.44 566.766 1171.44 548.203C1182.09 546.484 1190.34 545.453 1196.19 545.109C1202.38 544.766 1206.84 544.766 1209.59 545.109C1213.03 545.453 1215.09 545.969 1215.78 546.656C1216.12 547.688 1216.12 550.266 1215.78 554.391C1215.44 558.516 1214.58 563.672 1213.2 569.859C1212.17 575.703 1210.8 582.234 1209.08 589.453C1207.7 596.328 1205.98 603.031 1203.92 609.562C1201.86 615.75 1199.62 621.422 1197.22 626.578C1194.81 631.391 1192.23 634.828 1189.48 636.891C1181.23 643.078 1170.92 646.172 1158.55 646.172C1146.17 645.828 1133.97 644.109 1121.94 641.016C1109.91 637.578 1099.08 633.625 1089.45 629.156C1079.83 624.344 1073.81 620.391 1071.41 617.297C1069.69 615.234 1068.14 610.078 1066.77 601.828C1065.39 593.234 1064.19 582.922 1063.16 570.891C1062.47 558.859 1061.95 545.625 1061.61 531.188C1061.27 516.75 1061.44 502.656 1062.12 488.906C1063.16 475.156 1064.53 462.438 1066.25 450.75C1068.31 439.062 1071.06 429.609 1074.5 422.391C1079.66 412.078 1088.08 403.656 1099.77 397.125C1111.45 390.594 1123.83 386.125 1136.89 383.719C1149.95 381.312 1162.33 380.969 1174.02 382.688C1186.05 384.406 1194.98 388.188 1200.83 394.031C1204.27 397.469 1207.36 404.344 1210.11 414.656C1212.86 424.625 1214.58 436.828 1215.27 451.266C1215.27 452.641 1215.44 456.594 1215.78 463.125C1216.12 469.656 1216.3 476.703 1216.3 484.266C1216.64 491.484 1216.81 498.359 1216.81 504.891C1216.81 511.422 1216.64 515.203 1216.3 516.234ZM1396.25 440.953C1396.25 446.453 1395.56 454.359 1394.19 464.672C1393.16 474.984 1391.61 486.328 1389.55 498.703C1387.48 510.734 1385.25 523.281 1382.84 536.344C1380.78 549.062 1378.55 560.75 1376.14 571.406C1374.08 582.062 1372.19 591 1370.47 598.219C1369.09 605.438 1368.23 609.391 1367.89 610.078C1367.2 611.109 1365.31 611.797 1362.22 612.141C1359.47 612.141 1356.2 611.797 1352.42 611.109C1348.98 610.422 1345.72 609.391 1342.62 608.016C1339.88 606.641 1338.16 604.922 1337.47 602.859C1337.12 601.484 1336.95 596.672 1336.95 588.422C1337.3 580.172 1337.64 570.375 1337.98 559.031C1338.67 547.344 1339.36 534.969 1340.05 521.906C1340.73 508.5 1341.42 496.125 1342.11 484.781C1343.14 473.094 1343.83 463.125 1344.17 454.875C1344.86 446.625 1345.2 441.641 1345.2 439.922C1345.2 433.734 1344.52 427.891 1343.14 422.391C1342.11 416.547 1340.73 411.562 1339.02 407.438C1337.3 403.312 1335.23 400.219 1332.83 398.156C1330.77 395.75 1328.88 394.891 1327.16 395.578C1322.69 396.266 1318.91 397.469 1315.81 399.188C1312.72 400.562 1310.14 402.109 1308.08 403.828C1305.67 405.891 1303.78 408.297 1302.41 411.047C1302.06 411.734 1301.38 413.797 1300.34 417.234C1299.66 420.672 1299.31 424.625 1299.31 429.094C1299.31 430.469 1299.31 435.453 1299.31 444.047C1299.31 452.297 1299.14 462.266 1298.8 473.953C1298.8 485.641 1298.62 498.359 1298.28 512.109C1298.28 525.516 1298.11 538.062 1297.77 549.75C1297.77 561.094 1297.59 570.891 1297.25 579.141C1296.91 587.391 1296.56 592.031 1296.22 593.062C1295.53 595.125 1293.81 598.047 1291.06 601.828C1288.31 605.266 1285.22 608.531 1281.78 611.625C1278.34 614.719 1275.08 617.125 1271.98 618.844C1268.89 620.219 1266.83 619.875 1265.8 617.812C1264.77 616.781 1263.73 611.797 1262.7 602.859C1261.67 593.578 1260.47 582.406 1259.09 569.344C1258.06 555.938 1256.86 541.5 1255.48 526.031C1254.11 510.219 1252.91 495.094 1251.88 480.656C1250.84 466.219 1249.98 453.156 1249.3 441.469C1248.61 429.781 1248.09 421.359 1247.75 416.203C1247.41 408.984 1247.06 400.906 1246.72 391.969C1246.38 382.688 1246.03 374.094 1245.69 366.188C1245.69 357.938 1245.69 350.891 1245.69 345.047C1246.03 338.859 1246.72 335.078 1247.75 333.703C1248.44 332.328 1250.67 331.984 1254.45 332.672C1258.58 333.359 1262.88 334.734 1267.34 336.797C1272.16 338.516 1276.62 340.75 1280.75 343.5C1284.88 345.906 1287.62 348.312 1289 350.719C1289.69 352.781 1290.55 355.188 1291.58 357.938C1292.61 360.344 1293.47 364.469 1294.16 370.312C1300 366.875 1306.36 363.781 1313.23 361.031C1320.11 357.938 1326.81 355.703 1333.34 354.328C1340.22 352.609 1346.75 352.094 1352.94 352.781C1359.12 353.125 1364.62 354.844 1369.44 357.938C1372.53 360.344 1375.62 364.469 1378.72 370.312C1382.16 376.156 1385.08 383.031 1387.48 390.938C1390.23 398.844 1392.3 407.266 1393.67 416.203C1395.39 424.797 1396.25 433.047 1396.25 440.953ZM1509.69 374.953C1508.31 373.578 1505.39 372.203 1500.92 370.828C1496.45 369.453 1493.36 369.969 1491.64 372.375C1490.61 373.75 1488.89 378.219 1486.48 385.781C1484.08 393.344 1481.5 402.969 1478.75 414.656C1476.34 426.344 1474.11 439.75 1472.05 454.875C1470.33 470 1469.47 485.641 1469.47 501.797C1469.47 513.484 1469.98 524.656 1471.02 535.312C1472.05 545.625 1473.25 554.734 1474.62 562.641C1476.34 570.547 1478.23 576.906 1480.3 581.719C1482.7 586.531 1485.11 589.109 1487.52 589.453C1489.58 589.453 1491.98 587.047 1494.73 582.234C1497.83 577.422 1500.75 571.922 1503.5 565.734C1506.59 559.203 1509.17 553.188 1511.23 547.688C1513.64 541.844 1515.36 538.062 1516.39 536.344C1519.14 531.875 1522.75 528.094 1527.22 525C1531.69 521.562 1535.47 519.844 1538.56 519.844C1540.28 519.844 1541.48 521.047 1542.17 523.453C1543.2 525.859 1543.89 528.781 1544.23 532.219C1544.92 535.312 1545.27 538.578 1545.27 542.016C1545.27 545.453 1545.27 548.203 1545.27 550.266C1545.27 554.047 1544.58 561.094 1543.2 571.406C1541.83 581.719 1539.77 592.203 1537.02 602.859C1534.61 613.516 1531.69 622.969 1528.25 631.219C1525.16 639.469 1521.72 643.422 1517.94 643.078C1514.16 642.734 1508.48 641.016 1500.92 637.922C1493.36 634.828 1485.62 631.219 1477.72 627.094C1470.16 622.969 1463.11 618.844 1456.58 614.719C1450.39 610.25 1446.61 606.812 1445.23 604.406C1443.86 602 1441.8 596.156 1439.05 586.875C1436.3 577.25 1433.38 565.562 1430.28 551.812C1427.53 538.062 1425.12 522.938 1423.06 506.438C1421 489.938 1419.97 473.438 1419.97 456.938C1419.97 440.438 1420.31 424.109 1421 407.953C1422.03 391.797 1423.58 377.359 1425.64 364.641C1427.7 351.922 1430.28 341.609 1433.38 333.703C1436.81 325.797 1440.94 321.672 1445.75 321.328C1459.16 319.953 1472.56 321.156 1485.97 324.938C1499.72 328.375 1511.92 333.188 1522.58 339.375C1533.58 345.219 1542.52 351.578 1549.39 358.453C1556.27 364.984 1559.88 370.484 1560.22 374.953C1560.56 379.766 1560.22 386.469 1559.19 395.062C1558.5 403.656 1557.3 412.422 1555.58 421.359C1554.2 429.953 1552.48 437.859 1550.42 445.078C1548.7 451.953 1547.16 455.906 1545.78 456.938C1542.69 460.031 1539.08 463.297 1534.95 466.734C1530.83 470.172 1526.88 470.859 1523.09 468.797C1521.72 468.109 1520.52 465.531 1519.48 461.062C1518.45 456.25 1517.42 450.406 1516.39 443.531C1515.7 436.656 1515.02 429.266 1514.33 421.359C1513.64 413.453 1512.95 406.234 1512.27 399.703C1511.92 392.828 1511.41 387.156 1510.72 382.688C1510.38 377.875 1510.03 375.297 1509.69 374.953ZM1703.05 422.391C1706.48 424.453 1709.75 428.234 1712.84 433.734C1716.28 439.234 1719.38 445.594 1722.12 452.812C1724.88 459.688 1727.11 467.25 1728.83 475.5C1730.55 483.406 1731.41 490.969 1731.41 498.188C1731.41 503 1730.72 510.219 1729.34 519.844C1727.97 529.125 1726.25 539.438 1724.19 550.781C1722.12 561.781 1719.89 573.125 1717.48 584.812C1715.08 596.5 1712.84 607.156 1710.78 616.781C1708.72 626.406 1706.83 634.484 1705.11 641.016C1703.39 647.547 1702.36 651.156 1702.02 651.844C1701.33 652.875 1699.27 653.562 1695.83 653.906C1692.73 654.25 1689.3 654.078 1685.52 653.391C1682.08 652.703 1678.81 651.672 1675.72 650.297C1672.62 648.922 1670.73 647.203 1670.05 645.141C1669.7 643.766 1669.53 639.469 1669.53 632.25C1669.88 624.688 1670.22 615.75 1670.56 605.438C1671.25 595.125 1671.94 583.953 1672.62 571.922C1673.66 559.891 1674.52 548.719 1675.2 538.406C1675.89 527.75 1676.41 518.641 1676.75 511.078C1677.44 503.516 1677.78 499.047 1677.78 497.672C1678.12 492.172 1677.61 486.844 1676.23 481.688C1675.2 476.188 1673.66 471.547 1671.59 467.766C1669.88 463.984 1667.81 461.062 1665.41 459C1663.34 456.938 1661.28 456.25 1659.22 456.938C1656.12 457.625 1653.03 458.484 1649.94 459.516C1647.19 460.547 1644.78 461.406 1642.72 462.094C1639.97 463.125 1637.56 464.156 1635.5 465.188C1635.16 490.625 1634.64 515.547 1633.95 539.953C1633.27 564.359 1632.41 586.359 1631.38 605.953C1630.34 625.203 1629.14 640.844 1627.77 652.875C1626.73 664.562 1625.53 670.578 1624.16 670.922C1621.41 671.266 1618.31 670.062 1614.88 667.312C1611.78 664.562 1608.69 661.125 1605.59 657C1602.5 653.219 1599.75 649.094 1597.34 644.625C1595.28 640.156 1593.91 636.375 1593.22 633.281C1590.47 599.594 1588.23 569.516 1586.52 543.047C1584.8 516.234 1583.42 492.516 1582.39 471.891C1581.36 451.266 1580.5 433.391 1579.81 418.266C1579.47 403.141 1579.3 390.25 1579.3 379.594C1578.95 354.5 1579.3 337.141 1580.33 327.516C1581.7 320.297 1584.8 313.422 1589.61 306.891C1594.42 300.016 1599.58 294 1605.08 288.844C1610.92 283.688 1616.25 279.906 1621.06 277.5C1626.22 274.75 1629.66 274.062 1631.38 275.438C1632.41 276.469 1633.27 281.281 1633.95 289.875C1634.98 298.125 1635.67 309.297 1636.02 323.391C1636.36 337.141 1636.53 353.125 1636.53 371.344C1636.53 389.219 1636.36 408.125 1636.02 428.062C1649.77 422.562 1662.48 419.125 1674.17 417.75C1686.2 416.375 1695.83 417.922 1703.05 422.391Z" fill="white"/>
</svg>
