<svg width="7106" height="1116" viewBox="0 0 7106 1116" fill="none" xmlns="http://www.w3.org/2000/svg">
<g filter="url(#filter0_d_203_54)">
<path d="M1036.72 291.064C977.874 175.728 850.857 79.1563 704.257 38.3201C406.95 -44.5154 67.6961 181.724 68.0003 462.62C68.2216 662.633 256.589 860.596 487.068 903.039C523.552 909.755 554.67 917.565 556.219 920.39C596.133 993.02 614.957 1013.58 665.132 1039.44C730.895 1073.32 843.196 1087.13 851.964 1062.42C854.965 1053.95 838.314 1039.08 814.955 1029.4C766.881 1009.46 717.742 953.651 718.779 920.182C719.194 906.805 752.414 882.198 801.484 858.921C899.54 812.407 988.883 726.622 1036.18 633.526C1085.06 537.327 1085.31 386.265 1036.72 291.064Z" fill="#949494"/>
</g>
<g filter="url(#filter1_d_203_54)">
<path d="M1539.72 291.064C1480.87 175.728 1353.86 79.1563 1207.26 38.3201C909.95 -44.5154 570.696 181.724 571 462.62C571.222 662.633 759.589 860.596 990.068 903.039C1026.55 909.755 1057.67 917.565 1059.22 920.39C1099.13 993.02 1117.96 1013.58 1168.13 1039.44C1233.89 1073.32 1346.2 1087.13 1354.96 1062.42C1357.97 1053.95 1341.31 1039.08 1317.95 1029.4C1269.88 1009.46 1220.74 953.651 1221.78 920.182C1222.19 906.805 1255.41 882.198 1304.48 858.921C1402.54 812.407 1491.88 726.622 1539.18 633.526C1588.06 537.327 1588.31 386.265 1539.72 291.064Z" fill="#949494"/>
</g>
<g filter="url(#filter2_d_203_54)">
<path d="M2042.72 291.064C1983.87 175.728 1856.86 79.1563 1710.26 38.3201C1412.95 -44.5154 1073.7 181.724 1074 462.62C1074.22 662.633 1262.59 860.596 1493.07 903.039C1529.55 909.755 1560.67 917.565 1562.22 920.39C1602.13 993.02 1620.96 1013.58 1671.13 1039.44C1736.89 1073.32 1849.2 1087.13 1857.96 1062.42C1860.97 1053.95 1844.31 1039.08 1820.95 1029.4C1772.88 1009.46 1723.74 953.651 1724.78 920.182C1725.19 906.805 1758.41 882.198 1807.48 858.921C1905.54 812.407 1994.88 726.622 2042.18 633.526C2091.06 537.327 2091.31 386.265 2042.72 291.064Z" fill="#949494"/>
</g>
<g filter="url(#filter3_d_203_54)">
<path d="M2544.72 291.064C2485.87 175.728 2358.86 79.1563 2212.26 38.3201C1914.95 -44.5154 1575.7 181.724 1576 462.62C1576.22 662.633 1764.59 860.596 1995.07 903.039C2031.55 909.755 2062.67 917.565 2064.22 920.39C2104.13 993.02 2122.96 1013.58 2173.13 1039.44C2238.89 1073.32 2351.2 1087.13 2359.96 1062.42C2362.97 1053.95 2346.31 1039.08 2322.95 1029.4C2274.88 1009.46 2225.74 953.651 2226.78 920.182C2227.19 906.805 2260.41 882.198 2309.48 858.921C2407.54 812.407 2496.88 726.622 2544.18 633.526C2593.06 537.327 2593.31 386.265 2544.72 291.064Z" fill="#949494"/>
</g>
<g filter="url(#filter4_d_203_54)">
<path d="M3047.72 291.064C2988.87 175.728 2861.86 79.1563 2715.26 38.3201C2417.95 -44.5154 2078.7 181.724 2079 462.62C2079.22 662.633 2267.59 860.596 2498.07 903.039C2534.55 909.755 2565.67 917.565 2567.22 920.39C2607.13 993.02 2625.96 1013.58 2676.13 1039.44C2741.89 1073.32 2854.2 1087.13 2862.96 1062.42C2865.97 1053.95 2849.31 1039.08 2825.95 1029.4C2777.88 1009.46 2728.74 953.651 2729.78 920.182C2730.19 906.805 2763.41 882.198 2812.48 858.921C2910.54 812.407 2999.88 726.622 3047.18 633.526C3096.06 537.327 3096.31 386.265 3047.72 291.064Z" fill="#949494"/>
</g>
<g filter="url(#filter5_d_203_54)">
<path d="M3550.72 291.064C3491.87 175.728 3364.86 79.1563 3218.26 38.3201C2920.95 -44.5154 2581.7 181.724 2582 462.62C2582.22 662.633 2770.59 860.596 3001.07 903.039C3037.55 909.755 3068.67 917.565 3070.22 920.39C3110.13 993.02 3128.96 1013.58 3179.13 1039.44C3244.89 1073.32 3357.2 1087.13 3365.96 1062.42C3368.97 1053.95 3352.31 1039.08 3328.95 1029.4C3280.88 1009.46 3231.74 953.651 3232.78 920.182C3233.19 906.805 3266.41 882.198 3315.48 858.921C3413.54 812.407 3502.88 726.622 3550.18 633.526C3599.06 537.327 3599.31 386.265 3550.72 291.064Z" fill="#949494"/>
</g>
<g filter="url(#filter6_d_203_54)">
<path d="M4053.72 291.064C3994.87 175.728 3867.86 79.1563 3721.26 38.3201C3423.95 -44.5154 3084.7 181.724 3085 462.62C3085.22 662.633 3273.59 860.596 3504.07 903.039C3540.55 909.755 3571.67 917.565 3573.22 920.39C3613.13 993.02 3631.96 1013.58 3682.13 1039.44C3747.89 1073.32 3860.2 1087.13 3868.96 1062.42C3871.97 1053.95 3855.31 1039.08 3831.95 1029.4C3783.88 1009.46 3734.74 953.651 3735.78 920.182C3736.19 906.805 3769.41 882.198 3818.48 858.921C3916.54 812.407 4005.88 726.622 4053.18 633.526C4102.06 537.327 4102.31 386.265 4053.72 291.064Z" fill="#949494"/>
</g>
<g filter="url(#filter7_d_203_54)">
<path d="M4556.72 291.064C4497.87 175.728 4370.86 79.1563 4224.26 38.3201C3926.95 -44.5154 3587.7 181.724 3588 462.62C3588.22 662.633 3776.59 860.596 4007.07 903.039C4043.55 909.755 4074.67 917.565 4076.22 920.39C4116.13 993.02 4134.96 1013.58 4185.13 1039.44C4250.89 1073.32 4363.2 1087.13 4371.96 1062.42C4374.97 1053.95 4358.31 1039.08 4334.95 1029.4C4286.88 1009.46 4237.74 953.651 4238.78 920.182C4239.19 906.805 4272.41 882.198 4321.48 858.921C4419.54 812.407 4508.88 726.622 4556.18 633.526C4605.06 537.327 4605.31 386.265 4556.72 291.064Z" fill="#949494"/>
</g>
<g filter="url(#filter8_d_203_54)">
<path d="M5059.72 291.064C5000.87 175.728 4873.86 79.1563 4727.26 38.3201C4429.95 -44.5154 4090.7 181.724 4091 462.62C4091.22 662.633 4279.59 860.596 4510.07 903.039C4546.55 909.755 4577.67 917.565 4579.22 920.39C4619.13 993.02 4637.96 1013.58 4688.13 1039.44C4753.89 1073.32 4866.2 1087.13 4874.96 1062.42C4877.97 1053.95 4861.31 1039.08 4837.95 1029.4C4789.88 1009.46 4740.74 953.651 4741.78 920.182C4742.19 906.805 4775.41 882.198 4824.48 858.921C4922.54 812.407 5011.88 726.622 5059.18 633.526C5108.06 537.327 5108.31 386.265 5059.72 291.064Z" fill="#949494"/>
</g>
<g filter="url(#filter9_d_203_54)">
<path d="M5561.72 291.064C5502.87 175.728 5375.86 79.1563 5229.26 38.3201C4931.95 -44.5154 4592.7 181.724 4593 462.62C4593.22 662.633 4781.59 860.596 5012.07 903.039C5048.55 909.755 5079.67 917.565 5081.22 920.39C5121.13 993.02 5139.96 1013.58 5190.13 1039.44C5255.89 1073.32 5368.2 1087.13 5376.96 1062.42C5379.97 1053.95 5363.31 1039.08 5339.95 1029.4C5291.88 1009.46 5242.74 953.651 5243.78 920.182C5244.19 906.805 5277.41 882.198 5326.48 858.921C5424.54 812.407 5513.88 726.622 5561.18 633.526C5610.06 537.327 5610.31 386.265 5561.72 291.064Z" fill="#949494"/>
</g>
<g filter="url(#filter10_d_203_54)">
<path d="M6064.72 291.064C6005.87 175.728 5878.86 79.1563 5732.26 38.3201C5434.95 -44.5154 5095.7 181.724 5096 462.62C5096.22 662.633 5284.59 860.596 5515.07 903.039C5551.55 909.755 5582.67 917.565 5584.22 920.39C5624.13 993.02 5642.96 1013.58 5693.13 1039.44C5758.89 1073.32 5871.2 1087.13 5879.96 1062.42C5882.97 1053.95 5866.31 1039.08 5842.95 1029.4C5794.88 1009.46 5745.74 953.651 5746.78 920.182C5747.19 906.805 5780.41 882.198 5829.48 858.921C5927.54 812.407 6016.88 726.622 6064.18 633.526C6113.06 537.327 6113.31 386.265 6064.72 291.064Z" fill="#949494"/>
</g>
<g filter="url(#filter11_d_203_54)">
<path d="M6567.72 291.064C6508.87 175.728 6381.86 79.1563 6235.26 38.3201C5937.95 -44.5154 5598.7 181.724 5599 462.62C5599.22 662.633 5787.59 860.596 6018.07 903.039C6054.55 909.755 6085.67 917.565 6087.22 920.39C6127.13 993.02 6145.96 1013.58 6196.13 1039.44C6261.89 1073.32 6374.2 1087.13 6382.96 1062.42C6385.97 1053.95 6369.31 1039.08 6345.95 1029.4C6297.88 1009.46 6248.74 953.651 6249.78 920.182C6250.19 906.805 6283.41 882.198 6332.48 858.921C6430.54 812.407 6519.88 726.622 6567.18 633.526C6616.06 537.327 6616.31 386.265 6567.72 291.064Z" fill="#949494"/>
</g>
<g filter="url(#filter12_d_203_54)">
<path d="M7069.72 291.064C7010.87 175.728 6883.86 79.1563 6737.26 38.3201C6439.95 -44.5154 6100.7 181.724 6101 462.62C6101.22 662.633 6289.59 860.596 6520.07 903.039C6556.55 909.755 6587.67 917.565 6589.22 920.39C6629.13 993.02 6647.96 1013.58 6698.13 1039.44C6763.89 1073.32 6876.2 1087.13 6884.96 1062.42C6887.97 1053.95 6871.31 1039.08 6847.95 1029.4C6799.88 1009.46 6750.74 953.651 6751.78 920.182C6752.19 906.805 6785.41 882.198 6834.48 858.921C6932.54 812.407 7021.88 726.622 7069.18 633.526C7118.06 537.327 7118.31 386.265 7069.72 291.064Z" fill="#949494"/>
</g>
<defs>
<filter id="filter0_d_203_54" x="0" y="0" width="1073" height="1116" filterUnits="userSpaceOnUse" color-interpolation-filters="sRGB">
<feFlood flood-opacity="0" result="BackgroundImageFix"/>
<feColorMatrix in="SourceAlpha" type="matrix" values="0 0 0 0 0 0 0 0 0 0 0 0 0 0 0 0 0 0 127 0" result="hardAlpha"/>
<feOffset dx="-37" dy="10"/>
<feGaussianBlur stdDeviation="15.5"/>
<feComposite in2="hardAlpha" operator="out"/>
<feColorMatrix type="matrix" values="0 0 0 0 0 0 0 0 0 0 0 0 0 0 0 0 0 0 1 0"/>
<feBlend mode="normal" in2="BackgroundImageFix" result="effect1_dropShadow_203_54"/>
<feBlend mode="normal" in="SourceGraphic" in2="effect1_dropShadow_203_54" result="shape"/>
</filter>
<filter id="filter1_d_203_54" x="503" y="0" width="1073" height="1116" filterUnits="userSpaceOnUse" color-interpolation-filters="sRGB">
<feFlood flood-opacity="0" result="BackgroundImageFix"/>
<feColorMatrix in="SourceAlpha" type="matrix" values="0 0 0 0 0 0 0 0 0 0 0 0 0 0 0 0 0 0 127 0" result="hardAlpha"/>
<feOffset dx="-37" dy="10"/>
<feGaussianBlur stdDeviation="15.5"/>
<feComposite in2="hardAlpha" operator="out"/>
<feColorMatrix type="matrix" values="0 0 0 0 0 0 0 0 0 0 0 0 0 0 0 0 0 0 1 0"/>
<feBlend mode="normal" in2="BackgroundImageFix" result="effect1_dropShadow_203_54"/>
<feBlend mode="normal" in="SourceGraphic" in2="effect1_dropShadow_203_54" result="shape"/>
</filter>
<filter id="filter2_d_203_54" x="1006" y="0" width="1073" height="1116" filterUnits="userSpaceOnUse" color-interpolation-filters="sRGB">
<feFlood flood-opacity="0" result="BackgroundImageFix"/>
<feColorMatrix in="SourceAlpha" type="matrix" values="0 0 0 0 0 0 0 0 0 0 0 0 0 0 0 0 0 0 127 0" result="hardAlpha"/>
<feOffset dx="-37" dy="10"/>
<feGaussianBlur stdDeviation="15.5"/>
<feComposite in2="hardAlpha" operator="out"/>
<feColorMatrix type="matrix" values="0 0 0 0 0 0 0 0 0 0 0 0 0 0 0 0 0 0 1 0"/>
<feBlend mode="normal" in2="BackgroundImageFix" result="effect1_dropShadow_203_54"/>
<feBlend mode="normal" in="SourceGraphic" in2="effect1_dropShadow_203_54" result="shape"/>
</filter>
<filter id="filter3_d_203_54" x="1508" y="0" width="1073" height="1116" filterUnits="userSpaceOnUse" color-interpolation-filters="sRGB">
<feFlood flood-opacity="0" result="BackgroundImageFix"/>
<feColorMatrix in="SourceAlpha" type="matrix" values="0 0 0 0 0 0 0 0 0 0 0 0 0 0 0 0 0 0 127 0" result="hardAlpha"/>
<feOffset dx="-37" dy="10"/>
<feGaussianBlur stdDeviation="15.5"/>
<feComposite in2="hardAlpha" operator="out"/>
<feColorMatrix type="matrix" values="0 0 0 0 0 0 0 0 0 0 0 0 0 0 0 0 0 0 1 0"/>
<feBlend mode="normal" in2="BackgroundImageFix" result="effect1_dropShadow_203_54"/>
<feBlend mode="normal" in="SourceGraphic" in2="effect1_dropShadow_203_54" result="shape"/>
</filter>
<filter id="filter4_d_203_54" x="2011" y="0" width="1073" height="1116" filterUnits="userSpaceOnUse" color-interpolation-filters="sRGB">
<feFlood flood-opacity="0" result="BackgroundImageFix"/>
<feColorMatrix in="SourceAlpha" type="matrix" values="0 0 0 0 0 0 0 0 0 0 0 0 0 0 0 0 0 0 127 0" result="hardAlpha"/>
<feOffset dx="-37" dy="10"/>
<feGaussianBlur stdDeviation="15.5"/>
<feComposite in2="hardAlpha" operator="out"/>
<feColorMatrix type="matrix" values="0 0 0 0 0 0 0 0 0 0 0 0 0 0 0 0 0 0 1 0"/>
<feBlend mode="normal" in2="BackgroundImageFix" result="effect1_dropShadow_203_54"/>
<feBlend mode="normal" in="SourceGraphic" in2="effect1_dropShadow_203_54" result="shape"/>
</filter>
<filter id="filter5_d_203_54" x="2514" y="0" width="1073" height="1116" filterUnits="userSpaceOnUse" color-interpolation-filters="sRGB">
<feFlood flood-opacity="0" result="BackgroundImageFix"/>
<feColorMatrix in="SourceAlpha" type="matrix" values="0 0 0 0 0 0 0 0 0 0 0 0 0 0 0 0 0 0 127 0" result="hardAlpha"/>
<feOffset dx="-37" dy="10"/>
<feGaussianBlur stdDeviation="15.5"/>
<feComposite in2="hardAlpha" operator="out"/>
<feColorMatrix type="matrix" values="0 0 0 0 0 0 0 0 0 0 0 0 0 0 0 0 0 0 1 0"/>
<feBlend mode="normal" in2="BackgroundImageFix" result="effect1_dropShadow_203_54"/>
<feBlend mode="normal" in="SourceGraphic" in2="effect1_dropShadow_203_54" result="shape"/>
</filter>
<filter id="filter6_d_203_54" x="3017" y="0" width="1073" height="1116" filterUnits="userSpaceOnUse" color-interpolation-filters="sRGB">
<feFlood flood-opacity="0" result="BackgroundImageFix"/>
<feColorMatrix in="SourceAlpha" type="matrix" values="0 0 0 0 0 0 0 0 0 0 0 0 0 0 0 0 0 0 127 0" result="hardAlpha"/>
<feOffset dx="-37" dy="10"/>
<feGaussianBlur stdDeviation="15.5"/>
<feComposite in2="hardAlpha" operator="out"/>
<feColorMatrix type="matrix" values="0 0 0 0 0 0 0 0 0 0 0 0 0 0 0 0 0 0 1 0"/>
<feBlend mode="normal" in2="BackgroundImageFix" result="effect1_dropShadow_203_54"/>
<feBlend mode="normal" in="SourceGraphic" in2="effect1_dropShadow_203_54" result="shape"/>
</filter>
<filter id="filter7_d_203_54" x="3520" y="0" width="1073" height="1116" filterUnits="userSpaceOnUse" color-interpolation-filters="sRGB">
<feFlood flood-opacity="0" result="BackgroundImageFix"/>
<feColorMatrix in="SourceAlpha" type="matrix" values="0 0 0 0 0 0 0 0 0 0 0 0 0 0 0 0 0 0 127 0" result="hardAlpha"/>
<feOffset dx="-37" dy="10"/>
<feGaussianBlur stdDeviation="15.5"/>
<feComposite in2="hardAlpha" operator="out"/>
<feColorMatrix type="matrix" values="0 0 0 0 0 0 0 0 0 0 0 0 0 0 0 0 0 0 1 0"/>
<feBlend mode="normal" in2="BackgroundImageFix" result="effect1_dropShadow_203_54"/>
<feBlend mode="normal" in="SourceGraphic" in2="effect1_dropShadow_203_54" result="shape"/>
</filter>
<filter id="filter8_d_203_54" x="4023" y="0" width="1073" height="1116" filterUnits="userSpaceOnUse" color-interpolation-filters="sRGB">
<feFlood flood-opacity="0" result="BackgroundImageFix"/>
<feColorMatrix in="SourceAlpha" type="matrix" values="0 0 0 0 0 0 0 0 0 0 0 0 0 0 0 0 0 0 127 0" result="hardAlpha"/>
<feOffset dx="-37" dy="10"/>
<feGaussianBlur stdDeviation="15.5"/>
<feComposite in2="hardAlpha" operator="out"/>
<feColorMatrix type="matrix" values="0 0 0 0 0 0 0 0 0 0 0 0 0 0 0 0 0 0 1 0"/>
<feBlend mode="normal" in2="BackgroundImageFix" result="effect1_dropShadow_203_54"/>
<feBlend mode="normal" in="SourceGraphic" in2="effect1_dropShadow_203_54" result="shape"/>
</filter>
<filter id="filter9_d_203_54" x="4525" y="0" width="1073" height="1116" filterUnits="userSpaceOnUse" color-interpolation-filters="sRGB">
<feFlood flood-opacity="0" result="BackgroundImageFix"/>
<feColorMatrix in="SourceAlpha" type="matrix" values="0 0 0 0 0 0 0 0 0 0 0 0 0 0 0 0 0 0 127 0" result="hardAlpha"/>
<feOffset dx="-37" dy="10"/>
<feGaussianBlur stdDeviation="15.5"/>
<feComposite in2="hardAlpha" operator="out"/>
<feColorMatrix type="matrix" values="0 0 0 0 0 0 0 0 0 0 0 0 0 0 0 0 0 0 1 0"/>
<feBlend mode="normal" in2="BackgroundImageFix" result="effect1_dropShadow_203_54"/>
<feBlend mode="normal" in="SourceGraphic" in2="effect1_dropShadow_203_54" result="shape"/>
</filter>
<filter id="filter10_d_203_54" x="5028" y="0" width="1073" height="1116" filterUnits="userSpaceOnUse" color-interpolation-filters="sRGB">
<feFlood flood-opacity="0" result="BackgroundImageFix"/>
<feColorMatrix in="SourceAlpha" type="matrix" values="0 0 0 0 0 0 0 0 0 0 0 0 0 0 0 0 0 0 127 0" result="hardAlpha"/>
<feOffset dx="-37" dy="10"/>
<feGaussianBlur stdDeviation="15.5"/>
<feComposite in2="hardAlpha" operator="out"/>
<feColorMatrix type="matrix" values="0 0 0 0 0 0 0 0 0 0 0 0 0 0 0 0 0 0 1 0"/>
<feBlend mode="normal" in2="BackgroundImageFix" result="effect1_dropShadow_203_54"/>
<feBlend mode="normal" in="SourceGraphic" in2="effect1_dropShadow_203_54" result="shape"/>
</filter>
<filter id="filter11_d_203_54" x="5531" y="0" width="1073" height="1116" filterUnits="userSpaceOnUse" color-interpolation-filters="sRGB">
<feFlood flood-opacity="0" result="BackgroundImageFix"/>
<feColorMatrix in="SourceAlpha" type="matrix" values="0 0 0 0 0 0 0 0 0 0 0 0 0 0 0 0 0 0 127 0" result="hardAlpha"/>
<feOffset dx="-37" dy="10"/>
<feGaussianBlur stdDeviation="15.5"/>
<feComposite in2="hardAlpha" operator="out"/>
<feColorMatrix type="matrix" values="0 0 0 0 0 0 0 0 0 0 0 0 0 0 0 0 0 0 1 0"/>
<feBlend mode="normal" in2="BackgroundImageFix" result="effect1_dropShadow_203_54"/>
<feBlend mode="normal" in="SourceGraphic" in2="effect1_dropShadow_203_54" result="shape"/>
</filter>
<filter id="filter12_d_203_54" x="6033" y="0" width="1073" height="1116" filterUnits="userSpaceOnUse" color-interpolation-filters="sRGB">
<feFlood flood-opacity="0" result="BackgroundImageFix"/>
<feColorMatrix in="SourceAlpha" type="matrix" values="0 0 0 0 0 0 0 0 0 0 0 0 0 0 0 0 0 0 127 0" result="hardAlpha"/>
<feOffset dx="-37" dy="10"/>
<feGaussianBlur stdDeviation="15.5"/>
<feComposite in2="hardAlpha" operator="out"/>
<feColorMatrix type="matrix" values="0 0 0 0 0 0 0 0 0 0 0 0 0 0 0 0 0 0 1 0"/>
<feBlend mode="normal" in2="BackgroundImageFix" result="effect1_dropShadow_203_54"/>
<feBlend mode="normal" in="SourceGraphic" in2="effect1_dropShadow_203_54" result="shape"/>
</filter>
</defs>
</svg>
