<svg width="auto" height="auto" viewBox="0 0 2934 2910" fill="none" xmlns="http://www.w3.org/2000/svg">
<path d="M1304.57 179.593C1216.2 188.318 1176.17 82.0139 1246.88 26.3902C1287.95 -5.91452 1294.03 -6.37099 1343.39 19.152C1422.78 60.2078 1396.07 170.568 1304.57 179.593Z" fill="white"/>
<path d="M1264.18 334.309C1319.67 225.683 1439.45 134.729 1577.69 96.2687C1858.05 18.2521 2177.97 231.33 2177.68 495.885C2177.47 684.262 1999.84 870.709 1782.5 910.682C1748.1 917.008 1718.75 924.363 1717.29 927.024C1679.65 995.428 1661.9 1014.8 1614.59 1039.14C1552.57 1071.06 1446.67 1084.06 1438.4 1060.79C1435.57 1052.81 1451.28 1038.81 1473.3 1029.69C1518.64 1010.91 1564.98 958.35 1564 926.828C1563.61 914.23 1532.28 891.054 1486.01 869.131C1393.54 825.323 1309.29 744.529 1264.69 656.848C1218.6 566.246 1218.36 423.972 1264.18 334.309Z" fill="white"/>
<path d="M747.236 244.111C760.265 212.915 783.336 190.653 822.97 171.038C929.379 118.375 1092.13 143.572 1147.48 221.301C1213.85 314.525 1150.32 440.183 1019.34 474.731C989.414 482.629 971.96 486.695 955.302 485.66C945.713 489.538 938.639 488.979 938.639 483.782C938.639 483.499 938.586 483.198 938.482 482.88C924.247 479.142 907.946 471.718 883.211 459.916C753.418 397.993 711.045 330.736 747.236 244.111Z" fill="white"/>
<path d="M534.34 299.318C534.34 280.668 541.383 258.366 549.991 249.759C578.526 221.223 637.763 230.874 654.091 266.713C676.301 315.464 650.4 364.527 602.432 364.527C556.577 364.527 534.34 343.23 534.34 299.318Z" fill="white"/>
<path d="M2237.45 348.499C2227.62 320.537 2230.03 307.612 2249 286.667C2261.92 272.389 2276.16 264.016 2292.24 261.438C2294.62 260.811 2296.8 260.569 2298.73 260.72C2311.19 259.935 2324.73 262.413 2339.57 268.108C2353.47 273.443 2360.2 292.51 2360.2 326.549C2360.2 369.118 2355.24 378.312 2328.63 385.003C2278.46 397.588 2250.84 386.529 2237.45 348.499Z" fill="white"/>
<path d="M357.075 514.509C337.291 484.304 337.291 479.504 357.075 449.299C394.662 391.928 482.173 411.348 482.173 477.066C482.173 545.796 394.727 571.971 357.075 514.509Z" fill="white"/>
<path d="M2250.39 605.346C2238.61 558.382 2275.71 488.256 2325.27 463.815C2377.82 437.901 2467.85 437.079 2516.2 462.081C2565.91 487.786 2608 543.123 2608 582.783C2608 627.934 2532.67 699.443 2473.39 710.555C2374.52 729.113 2268.96 679.293 2250.39 605.346Z" fill="white"/>
<path d="M538.514 629.643C531.21 574.828 565.224 516.504 617.652 493.981C632.807 487.46 676.993 484.121 715.857 486.534C775.915 490.277 792.061 497.137 823.453 532.272C924.449 645.306 797.487 791.858 639.536 744.542C576.596 725.683 546.808 691.8 538.514 629.643Z" fill="white"/>
<path d="M1075.45 646.688C1043.16 634.286 1036.02 597.494 1062.22 578.336C1089.02 558.734 1134.27 575.271 1134.27 604.667C1134.27 630.177 1098.69 655.596 1075.45 646.688Z" fill="white"/>
<path d="M373.077 736.273C308.103 778.842 238.003 707.229 280.767 641.954C302.169 609.297 361.835 601.537 388.271 627.973C415.203 654.905 406.895 714.102 373.077 736.273Z" fill="white"/>
<path d="M949.333 667.36C941.834 659.861 939.839 647.014 944.899 638.824C956.428 620.174 993.336 626.382 1000.59 648.175C1007.72 669.603 966.861 684.888 949.333 667.36Z" fill="white"/>
<path d="M2656.57 772.692C2633.15 763.814 2627.06 734.324 2647.65 709.511C2668.1 684.862 2691.89 685.488 2713.25 711.233C2731.24 732.914 2721.19 759.6 2696.53 770.432C2686.01 779.143 2671.23 782.181 2658.99 774.616C2658.14 774.09 2657.33 773.444 2656.57 772.692Z" fill="white"/>
<path d="M944.103 930.832C932.913 871.152 970.148 799.618 1028.45 768.813C1132.49 713.815 1273.45 750.293 1311.83 842.121C1334.99 897.562 1334.56 918.064 1309.12 971.692C1285.44 1021.59 1202.03 1068.79 1137.51 1068.79C1047.73 1068.79 957.98 1004.77 944.103 930.832Z" fill="white"/>
<path d="M2284.08 822.467C2281.65 805.343 2287.52 786.367 2297.12 780.276C2338.87 753.814 2389.39 792.471 2364.55 831.87C2342.94 866.131 2289.36 859.871 2284.08 822.467Z" fill="white"/>
<path d="M69.1714 1063.09C102.009 964.325 189.567 883.8 312.628 846.229C330.561 840.752 377.916 835.77 417.85 835.157C700.651 830.788 880.055 1064.15 765.104 1286.81C745.775 1324.23 729.969 1364.75 729.969 1376.84C729.969 1408.05 793.404 1538.3 808.598 1538.3C815.563 1538.3 821.171 1548.56 821.066 1561.12C820.949 1574.36 816.671 1578.47 810.881 1570.9C805.39 1563.73 767.947 1526.38 727.66 1487.9L656.322 1419.78L654.258 1418.01L574.77 1445.52C324.288 1532.21 75.3443 1403.08 55.938 1176.38C52.5758 1137.14 57.2474 1099.11 69.0496 1063.45L69.0841 1062.27L69.1714 1063.09Z" fill="white"/>
<path d="M45.2697 938.37C18.6381 938.37 -3.18094 902.544 5.94838 873.787C11.3347 856.78 25.6416 847.077 45.2697 847.077C64.8977 847.077 79.2047 856.78 84.591 873.787C93.7203 902.544 71.9012 938.37 45.2697 938.37Z" fill="white"/>
<path d="M810.25 896.202C809.859 891.251 810.537 885.934 812.602 880.555C816.919 869.313 826.674 860.119 834.304 860.119C855.432 860.119 865.774 899.075 849.08 915.769C836.249 928.6 820.112 921.861 813.353 907.801C810.315 905.236 809.127 901.253 810.25 896.202Z" fill="white"/>
<path d="M2277.08 1047.6C2306.58 985.425 2404.96 902.531 2476.39 879.643C2642.38 826.484 2838.28 923.894 2889 1084.8C2906.56 1140.49 2907.95 1163.85 2896.33 1207.02C2875.59 1284.03 2816.74 1358.18 2746.94 1395.2C2713.56 1412.91 2686.02 1433.27 2685.74 1440.46C2685.21 1453.82 2449.7 1644.84 2421.87 1654.49C2413.4 1657.41 2431.61 1629.8 2462.32 1593.11C2493.53 1555.84 2521.23 1507.44 2525.15 1483.39C2531.89 1441.84 2530.09 1439.75 2473.26 1422.98C2310.42 1374.9 2211.54 1185.7 2277.08 1047.6Z" fill="white"/>
<path d="M2876.82 947.552C2854.56 940.131 2838.33 903.496 2847.14 880.542C2857.99 852.281 2906.71 858.254 2926.2 890.233C2937.69 909.091 2935.44 917.62 2915.01 932.788C2900.96 943.222 2883.77 949.873 2876.82 947.552Z" fill="white"/>
<path d="M1984.55 989.168C1941.18 1012.37 1902.54 954.477 1937.83 919.186C1961.87 895.149 1971.9 894.367 1992.42 914.895C2015.4 937.875 2011.49 974.744 1984.55 989.168Z" fill="white"/>
<path d="M2177.62 1042.71C2101.78 1042.71 2072.96 977.822 2125.45 925.328C2139.8 910.982 2163.27 899.245 2177.62 899.245C2208.67 899.245 2255.87 943.026 2255.87 971.836C2255.87 1012.83 2236.19 1036.06 2196.88 1041.47C2192.37 1042.29 2187.56 1042.71 2182.46 1042.71C2181.84 1042.71 2181.22 1042.7 2180.61 1042.68C2179.62 1042.7 2178.63 1042.71 2177.62 1042.71Z" fill="white"/>
<path d="M1364.16 1119.59C1327.43 1150.07 1274.7 1097.34 1305.18 1060.61C1313.36 1050.77 1334 1042.71 1351.05 1042.71C1375.01 1042.71 1382.06 1049.76 1382.06 1073.72C1382.06 1090.76 1374 1111.41 1364.16 1119.59Z" fill="white"/>
<path d="M1886.58 1290.45C1741.28 1290.59 1678.1 1140.31 1796.47 1076.08C1877.37 1032.18 2010.85 1068.98 2028.71 1140.12C2049.12 1221.46 1983.99 1290.36 1886.58 1290.45Z" fill="white"/>
<path d="M847.346 1285.53C847.346 1233.12 878.346 1188.49 930.527 1165.78C984.468 1142.31 1007.17 1142.83 1061.65 1168.81C1119.05 1196.18 1154.14 1263.39 1137.41 1313.91C1121.21 1362.87 1050.28 1407.88 989.333 1407.88C920.811 1407.88 847.346 1344.57 847.346 1285.53Z" fill="white"/>
<path d="M1270.66 1532.22C1189.92 1426.35 1224.19 1275.23 1342.49 1215.51C1499.9 1136.06 1667.45 1224.85 1679.26 1393.99C1683.46 1453.99 1679 1474.42 1653.53 1511.9C1604.44 1584.14 1545.9 1616.55 1464.49 1616.55C1373.3 1616.55 1315.95 1591.6 1270.66 1532.22Z" fill="white"/>
<path d="M2113.71 1375.69C2067.13 1360.9 2056.24 1285.47 2096.24 1254.64C2142.4 1219.06 2203.7 1251.04 2203.7 1310.69C2203.7 1349.14 2150.69 1387.43 2113.71 1375.69Z" fill="white"/>
<path d="M1844.41 1467.35C1807.18 1442.95 1803.66 1413.12 1834.03 1379.56C1862.6 1347.99 1906.96 1349.33 1937.15 1382.68C1959.44 1407.32 1959.86 1412.69 1941.98 1444.54C1917.89 1487.46 1886.35 1494.83 1844.41 1467.35Z" fill="white"/>
<path d="M842.598 1495.14C817.61 1485.54 813.802 1426.1 837.564 1416.51C846.537 1412.9 857.844 1409.47 862.722 1408.91C878.177 1407.11 913.911 1449.47 909.099 1463.89C901.443 1486.87 865.304 1503.85 842.598 1495.14Z" fill="white"/>
<path d="M32.2278 1559.06C-5.37197 1534.42 -9.9627 1492.26 21.2074 1457.82C47.5781 1428.67 63.5022 1427.96 101.05 1454.27C140.293 1481.75 138.545 1532.11 97.4372 1559.06C67.2322 1578.84 62.4328 1578.84 32.2278 1559.06Z" fill="white"/>
<path d="M2127.33 1672.28C2022.8 1672.28 1972.1 1574.5 2035.11 1494.41C2057.67 1465.72 2072.58 1460.05 2125.45 1460.05C2178.32 1460.05 2193.23 1465.72 2215.79 1494.41C2276.36 1571.41 2226.19 1672.28 2127.33 1672.28Z" fill="white"/>
<path d="M2724.48 1537.81C2699.87 1524.64 2690.66 1486.06 2707.99 1468.74C2717.4 1459.34 2777.54 1456.54 2777.54 1465.5C2777.54 1468.5 2780.82 1479.48 2784.82 1489.9C2796.59 1520.57 2754.58 1553.92 2724.48 1537.81Z" fill="white"/>
<path d="M1093.9 1557.86C1058.42 1557.86 1045.02 1521.62 1069.58 1492.02C1090.03 1467.38 1113.82 1468 1135.18 1493.75C1158.34 1521.66 1135.04 1557.86 1093.9 1557.86Z" fill="white"/>
<path d="M2402.24 1572.27C2373.28 1562.58 2364.78 1531.6 2386.81 1505.07C2408.56 1478.85 2435.01 1481.4 2450.99 1511.27C2471.41 1549.42 2453.95 1579.51 2414.08 1574.87C2412.84 1574.72 2411.62 1574.54 2410.43 1574.33C2407.66 1574.06 2404.91 1573.39 2402.24 1572.27Z" fill="white"/>
<path d="M2882.76 1569.51C2850.26 1562.63 2834.37 1531.51 2854.88 1506.79C2886.89 1468.24 2938.9 1490.5 2931.92 1539.77C2928.72 1562.42 2919.49 1570.72 2897.11 1570.9C2892.1 1573.48 2887.94 1573 2882.76 1569.51Z" fill="white"/>
<path d="M511.621 1573.34C494.315 1556.02 493.741 1549.27 508.178 1531.87C530.84 1504.56 563.686 1511.98 570.496 1544.71C572.229 1548.15 572.61 1551.61 571.639 1555.06C571.882 1587.54 537.844 1599.55 511.621 1573.34Z" fill="white"/>
<path d="M1869.36 1676.24C1797.58 1690.6 1759.39 1617.44 1811.48 1565.35C1851.4 1525.42 1930.02 1554.05 1929.63 1608.36C1929.33 1649.58 1913.49 1667.41 1869.36 1676.24Z" fill="white"/>
<path d="M215.101 1769.43C154.743 1709.07 154.743 1667.49 215.101 1607.13C256.891 1565.34 263.753 1561.74 325.133 1566.53C329.464 1566.55 333.656 1566.9 337.953 1567.58C398.15 1572.78 414.448 1580.3 446.542 1616.2C477.686 1651.07 483.268 1666.54 476.63 1699.72C463.275 1766.61 416.403 1802.47 333.326 1809.36C264.582 1815.06 258.778 1813.1 215.101 1769.43Z" fill="white"/>
<path d="M795.595 1669.07C796.065 1631.95 815.38 1602.36 853.867 1579.82C889.575 1558.9 939.317 1571.87 974.504 1611.24C1021.95 1664.35 1011.69 1722.46 949.151 1754.79C876.377 1792.43 794.617 1746.78 795.595 1669.07Z" fill="white"/>
<path d="M676.08 1649.94C653.465 1672.55 618.721 1653.37 629.846 1624.39C639.015 1600.49 671.971 1596.57 685.092 1617.8C689.956 1625.66 685.9 1640.11 676.08 1649.94Z" fill="white"/>
<path d="M2519.93 1757.21C2526.57 1688.02 2554.24 1648.41 2614.52 1621.8C2791.03 1543.88 2964.24 1743.77 2836.12 1877.52C2830.39 1883.49 2825.65 1888.71 2821.84 1893.4C2815.28 1906.05 2811.46 1917.31 2810.2 1927.78C2811.24 1931.69 2813.03 1935.81 2815.5 1940.42C2836.04 1978.79 2833.17 1998.88 2808.49 1989.42C2795.84 1984.55 2780.28 1990.58 2769.98 2004.32C2754.24 2025.32 2751.92 2023.6 2743.92 1984.98C2736.97 1951.33 2728.69 1942.6 2703.77 1942.6C2652.75 1942.6 2589.78 1910.07 2550.56 1863.44C2518.73 1825.61 2514.7 1811.64 2519.93 1757.21Z" fill="white"/>
<path d="M1062.58 1834.36C1020.66 1774.51 1048.43 1668.52 1112.84 1642.53C1191.85 1610.64 1289.02 1641.42 1324.21 1709.47C1347.93 1755.33 1342.17 1793.06 1304.05 1841.52C1254.54 1904.45 1108.64 1900.13 1062.58 1834.36Z" fill="white"/>
<path d="M2383.03 1718.41C2367.01 1721.48 2360.2 1714.44 2360.2 1694.8C2360.2 1675.16 2367.01 1668.12 2383.03 1671.19C2395.59 1673.62 2405.85 1684.24 2405.85 1694.8C2405.85 1700.78 2402.56 1706.77 2397.43 1711.29C2395.08 1715.82 2390.78 1717.88 2385.95 1717.68C2384.99 1717.97 2384.02 1718.21 2383.03 1718.41Z" fill="white"/>
<path d="M1498.44 1904.47C1437.7 1843.72 1449.01 1755.07 1522.59 1715.13C1640.53 1651.14 1785.45 1749.13 1744.89 1865.47C1727.75 1914.62 1674.08 1942.6 1596.9 1942.6C1547.59 1942.6 1529.58 1935.62 1498.44 1904.47Z" fill="white"/>
<path d="M40.8746 1774.52C38.4488 1757.4 44.3176 1738.42 53.9165 1732.33C63.5022 1726.26 74.2879 1721.29 77.8744 1721.29C100.137 1721.29 118.643 1747.91 114.874 1774.52C108.588 1819.08 47.1607 1819.08 40.8746 1774.52Z" fill="white"/>
<path d="M1839.19 2010.73C1810.96 1908.45 1879.09 1798.68 1997.94 1754.92C2072.07 1727.64 2194.51 1735.09 2265.27 1771.2C2392.43 1836.07 2433.41 1976.17 2355.21 2078.69C2284.44 2171.48 2142.38 2212.15 2018.6 2175.05C1947.17 2153.65 1855.47 2069.66 1839.19 2010.73Z" fill="white"/>
<path d="M363.361 2185.79C258.061 2036.39 333.013 1830.72 514.778 1770.27C655.421 1723.49 793.326 1753.12 887.658 1850.39C1028.51 1995.61 974.087 2206.12 774.102 2289.68C743.806 2302.34 692.995 2308.39 632.037 2306.61L537.118 2303.84L458.776 2387.31C415.685 2433.23 361.235 2481.98 337.773 2495.68L295.126 2520.55L329.557 2475.41C414.094 2364.58 424.789 2272.93 363.361 2185.79Z" fill="white"/>
<path d="M140.019 2015.83C123.782 1991.18 129.012 1945.49 150.531 1923.96C198.838 1875.66 287.797 1929.18 267.177 1994.14C250.901 2045.42 168.75 2059.42 140.019 2015.83Z" fill="white"/>
<path d="M2482.3 2033.89C2448.58 2033.89 2430.85 2007.31 2443.18 1975.2C2447.3 1964.44 2464.9 1955.64 2482.3 1955.64C2516.02 1955.64 2533.74 1982.22 2521.43 2014.33C2517.29 2025.09 2499.69 2033.89 2482.3 2033.89Z" fill="white"/>
<path d="M1242.72 2294.67C1046.05 2294.53 980.464 2077.19 1153.83 2000.14C1248.72 1957.96 1381.91 1999.12 1416.22 2081.23C1463.94 2195.45 1383.2 2294.79 1242.72 2294.67Z" fill="white"/>
<path d="M49.5083 2062.91C41.6832 2055.08 38.8139 2039.48 43.1308 2028.24C52.9253 2002.71 85.7256 2001.56 95.2723 2026.42C105.21 2052.33 68.3408 2081.74 49.5083 2062.91Z" fill="white"/>
<path d="M1618.58 2189.2C1576.18 2165.52 1566.14 2107.41 1598.3 2071.87C1625.66 2041.62 1653.63 2040.25 1692.16 2067.24C1733.74 2096.35 1731.12 2157.19 1687.05 2186.05C1656.49 2206.07 1649.36 2206.39 1618.58 2189.2Z" fill="white"/>
<path d="M2560.66 2211.83C2521.23 2165.99 2521.55 2132.2 2561.77 2091.99C2626.26 2027.49 2742.76 2064.8 2742.76 2149.96C2742.76 2243.86 2623.17 2284.5 2560.66 2211.83Z" fill="white"/>
<path d="M1813.92 2168.05C1795.92 2186.05 1765.7 2161.11 1779.14 2139.36C1783.96 2131.56 1793.08 2125.18 1799.4 2125.18C1819.55 2125.18 1828.97 2153 1813.92 2168.05Z" fill="white"/>
<path d="M236.646 2246.97C207.002 2228.26 204.381 2209.21 228.182 2185.41C254.775 2158.82 299.586 2178.86 299.586 2217.35C299.586 2248.48 264.921 2264.8 236.646 2246.97Z" fill="white"/>
<path d="M1452.14 2306.4C1433.29 2290.76 1428.19 2252.95 1442.93 2238.22C1457.67 2223.48 1495.48 2228.58 1511.11 2247.42C1541.59 2284.15 1488.86 2336.88 1452.14 2306.4Z" fill="white"/>
<path d="M1593.62 2550.96C1583.55 2429.55 1625.12 2352.44 1735.32 2288.14C1786.39 2258.33 1804.75 2254.97 1898.18 2258.34C1987.14 2261.53 2011.79 2267.61 2056.9 2297.48C2086.27 2316.92 2126.91 2354.6 2147.22 2381.23C2179.89 2424.05 2184.14 2440.51 2184.14 2523.92C2184.14 2608.8 2180.06 2623.86 2143.29 2674.92C1984.87 2894.9 1615.23 2811.54 1593.62 2550.96Z" fill="white"/>
<path d="M2268.91 2399.28C2268.91 2340.16 2292.5 2306.93 2348.96 2286.5C2350.3 2286.01 2351.6 2285.54 2352.88 2285.08L2353.02 2285.03C2378.5 2275.8 2391.59 2271.05 2404.64 2271.15C2418.44 2271.26 2432.19 2276.77 2460.47 2288.1C2461.83 2288.64 2463.23 2289.2 2464.66 2289.77C2524.98 2313.91 2542.79 2339.6 2542.79 2402.45C2542.79 2471.16 2493.4 2509.92 2405.85 2509.92C2316.61 2509.92 2268.91 2471.39 2268.91 2399.28Z" fill="white"/>
<path d="M905.669 2516.22C836.586 2473.52 834.604 2388.61 901.587 2341.69C917.98 2330.2 956.963 2320.81 988.185 2320.81C1059.19 2320.81 1121.23 2374.54 1121.23 2436.02C1121.23 2524.76 995.293 2571.61 905.669 2516.22Z" fill="white"/>
<path d="M720.683 2508.89C654.287 2529.6 607.818 2444.83 658.043 2394.6C681.036 2371.61 741.25 2375.3 757.331 2400.69C784.392 2443.4 767.112 2494.4 720.683 2508.89Z" fill="white"/>
<path d="M1379 2485.33C1362.76 2460.68 1367.99 2415 1389.51 2393.47C1432.4 2350.58 1512.48 2385.07 1512.48 2446.43C1512.48 2505.71 1411.76 2535.06 1379 2485.33Z" fill="white"/>
<path d="M1238.6 2451.23C1221.22 2451.23 1212.52 2442.53 1212.52 2425.15C1212.52 2407.76 1221.22 2399.06 1238.6 2399.06C1255.99 2399.06 1264.69 2407.76 1264.69 2425.15C1264.69 2442.53 1255.99 2451.23 1238.6 2451.23Z" fill="white"/>
<path d="M553.382 2581.65C522.381 2581.65 498.893 2542.13 514.699 2516.56C527.22 2496.31 582.778 2500.97 591.229 2522.96C603.384 2554.65 585.973 2581.65 553.382 2581.65Z" fill="white"/>
<path d="M1048.63 2674.61C1072.7 2628.08 1096.47 2608.87 1156.97 2587.1C1277.65 2543.66 1419.26 2638.22 1402.7 2751.19C1393.25 2815.65 1323.61 2877.05 1246.9 2888.55C1167.38 2900.47 1080.4 2860.13 1050.71 2797.56C1025.09 2743.56 1024.7 2720.87 1048.63 2674.61Z" fill="white"/>
<path d="M754.866 2643.47C761.765 2625.31 775.12 2607.38 784.549 2603.61C819.175 2589.76 847.972 2595.32 873.429 2620.77C904.821 2652.17 906.047 2670.85 879.207 2709.16C832.308 2776.13 725.821 2719.85 754.866 2643.47Z" fill="white"/>
<path d="M1525.52 2666.42C1514.76 2666.42 1504.02 2652.69 1501.64 2635.92C1498.29 2612.26 1502.69 2606.44 1521.21 2610.01C1549.91 2615.54 1553.81 2666.42 1525.52 2666.42Z" fill="white"/>
<path d="M2252.61 2683.51C2229.66 2687.93 2219.56 2648.38 2238.76 2629.2C2252.33 2615.62 2270.46 2625.3 2274.58 2645.55C2274.73 2645.77 2274.88 2645.99 2275.02 2646.22C2275.18 2646.46 2275.33 2646.7 2275.48 2646.95C2277.71 2650.54 2277.4 2654.7 2275.11 2658.53C2273.27 2670.56 2263.86 2681.33 2252.61 2683.51Z" fill="red"/>
<path d="M1497.98 2864.04C1486.59 2839.08 1488.26 2825.69 1506.1 2798.46C1551.62 2728.98 1658.5 2778.58 1638.13 2859.71C1621.86 2924.51 1526.87 2927.44 1497.98 2864.04Z" fill="white"/>
</svg>
