<svg width="auto" height="auto" viewBox="0 0 6670 1486" fill="none" xmlns="http://www.w3.org/2000/svg">
<path d="M1880 374.451C2000.88 335.573 2123.06 316.134 2246.53 316.134C2370.01 316.134 2464.99 336.869 2531.47 378.339C2547.01 424.993 2554.79 469.487 2554.79 511.822C2554.79 611.177 2513.77 694.55 2431.74 761.939C2349.72 828.464 2243.94 876.414 2114.43 905.789L2083.34 1196.08L1953.82 1209.04L1880 374.451ZM2304.82 549.404C2304.82 482.879 2277.62 433.201 2223.22 400.37C2207.68 400.37 2188.68 403.394 2166.23 409.442L2123.49 817.665C2179.62 786.562 2223.65 746.388 2255.6 697.142C2288.41 647.896 2304.82 598.65 2304.82 549.404Z" fill="#212121"/>
<path d="M2742.46 1220.7C2727.79 1220.7 2716.99 1220.27 2710.09 1219.41C2680.73 1199.54 2656.98 1170.16 2638.85 1131.28C2621.58 1091.54 2612.95 1050.5 2612.95 1008.17C2612.95 952.875 2633.67 912.701 2675.12 887.646C2717.42 862.591 2794.7 850.064 2906.95 850.064C2948.4 850.064 2991.57 853.087 3036.47 859.135L3033.88 830.624C3030.43 796.066 3014.02 768.851 2984.66 748.98C2955.3 728.245 2917.74 717.877 2871.98 717.877C2826.22 717.877 2780.46 732.132 2734.69 760.643L2677.71 572.731C2751.96 542.492 2836.58 527.373 2931.56 527.373C3026.54 527.373 3101.66 548.972 3156.92 592.17C3212.18 634.505 3239.81 701.03 3239.81 791.746C3239.81 812.481 3238.95 828.896 3237.22 840.992L3200.96 1198.67L3072.73 1210.34L3053.31 1022.42H3042.95C3013.59 1084.63 2973.01 1133.44 2921.2 1168.87C2869.39 1203.42 2809.81 1220.7 2742.46 1220.7ZM3041.65 913.565L2973.01 912.269C2916.02 912.269 2869.39 915.293 2833.13 921.341C2821.04 945.532 2814.99 967.131 2814.99 986.138C2814.99 1005.15 2817.58 1023.29 2822.77 1040.57C2827.95 1057.85 2833.56 1069.51 2839.6 1075.56C2943.22 1059.14 3010.57 1005.15 3041.65 913.565Z" fill="#212121"/>
<path d="M3475.63 1210.34L3409.58 305.766L3686.75 263L3603.86 1198.67L3475.63 1210.34Z" fill="#212121"/>
<path d="M3951.63 1220.7C3936.95 1220.7 3926.16 1220.27 3919.25 1219.41C3889.89 1199.54 3866.15 1170.16 3848.02 1131.28C3830.75 1091.54 3822.11 1050.5 3822.11 1008.17C3822.11 952.875 3842.84 912.701 3884.28 887.646C3926.59 862.591 4003.87 850.064 4116.12 850.064C4157.56 850.064 4200.74 853.087 4245.64 859.135L4243.05 830.624C4239.59 796.066 4223.19 768.851 4193.83 748.98C4164.47 728.245 4126.91 717.877 4081.15 717.877C4035.39 717.877 3989.62 732.132 3943.86 760.643L3886.87 572.731C3961.13 542.492 4045.75 527.373 4140.73 527.373C4235.71 527.373 4310.83 548.972 4366.09 592.17C4421.35 634.505 4448.98 701.03 4448.98 791.746C4448.98 812.481 4448.11 828.896 4446.39 840.992L4410.12 1198.67L4281.9 1210.34L4262.47 1022.42H4252.11C4222.75 1084.63 4182.17 1133.44 4130.37 1168.87C4078.56 1203.42 4018.98 1220.7 3951.63 1220.7ZM4250.82 913.565L4182.17 912.269C4125.18 912.269 4078.56 915.293 4042.29 921.341C4030.21 945.532 4024.16 967.131 4024.16 986.138C4024.16 1005.15 4026.75 1023.29 4031.93 1040.57C4037.11 1057.85 4042.73 1069.51 4048.77 1075.56C4152.38 1059.14 4219.73 1005.15 4250.82 913.565Z" fill="#212121"/>
<path d="M5130.34 513.118C5145.88 513.118 5161.43 515.709 5176.97 520.893C5208.05 558.044 5233.09 614.201 5252.09 689.366C5271.95 763.667 5281.88 841.424 5281.88 922.637C5281.88 1027.18 5259 1103.2 5213.23 1150.72C5168.33 1198.24 5085.01 1222 4963.26 1222C4863.97 1222 4769.42 1199.54 4679.62 1154.61L4618.75 305.766L4895.91 263L4849.29 782.674H4860.94C4895.48 699.734 4936.06 634.073 4982.69 585.691C5030.18 537.309 5079.4 513.118 5130.34 513.118ZM4818.2 1135.17C4841.52 1137.76 4874.76 1139.06 4917.93 1139.06C4961.1 1139.06 5002.98 1133.88 5043.56 1123.51C5056.52 1056.98 5062.99 994.346 5062.99 935.596C5062.99 875.982 5060.4 821.121 5055.22 771.011C5050.04 720.901 5044 686.342 5037.09 667.335C4926.57 711.397 4853.61 867.343 4818.2 1135.17Z" fill="#212121"/>
<path d="M5885.48 764.531C5826.76 764.531 5782.3 785.266 5752.08 826.737C5721.85 867.343 5699.84 942.508 5686.02 1052.23L5667.89 1198.67L5539.67 1210.34L5473.61 567.547L5750.78 524.781L5724.88 732.132H5733.94C5803.02 583.531 5891.09 504.478 5998.16 494.974L5961.89 771.011C5929.95 766.691 5904.47 764.531 5885.48 764.531Z" fill="#212121"/>
<path d="M6172.65 1220.7C6157.97 1220.7 6147.18 1220.27 6140.27 1219.41C6110.92 1199.54 6087.17 1170.16 6069.04 1131.28C6051.77 1091.54 6043.14 1050.5 6043.14 1008.17C6043.14 952.875 6063.86 912.701 6105.3 887.646C6147.61 862.591 6224.89 850.064 6337.14 850.064C6378.59 850.064 6421.76 853.087 6466.66 859.135L6464.07 830.624C6460.61 796.066 6444.21 768.851 6414.85 748.98C6385.49 728.245 6347.93 717.877 6302.17 717.877C6256.41 717.877 6210.64 732.132 6164.88 760.643L6107.89 572.731C6182.15 542.492 6266.77 527.373 6361.75 527.373C6456.73 527.373 6531.85 548.972 6587.11 592.17C6642.37 634.505 6670 701.03 6670 791.746C6670 812.481 6669.14 828.896 6667.41 840.992L6631.14 1198.67L6502.92 1210.34L6483.49 1022.42H6473.13C6443.78 1084.63 6403.19 1133.44 6351.39 1168.87C6299.58 1203.42 6240 1220.7 6172.65 1220.7ZM6471.84 913.565L6403.19 912.269C6346.21 912.269 6299.58 915.293 6263.31 921.341C6251.23 945.532 6245.18 967.131 6245.18 986.138C6245.18 1005.15 6247.77 1023.29 6252.95 1040.57C6258.13 1057.85 6263.75 1069.51 6269.79 1075.56C6373.4 1059.14 6440.75 1005.15 6471.84 913.565Z" fill="#212121"/>
<path d="M666.101 91.2353C620.958 95.6922 600.512 41.3893 636.634 12.9753C657.613 -3.52675 660.718 -3.75993 685.934 9.27785C726.486 30.2502 712.842 86.6251 666.101 91.2353Z" fill="#212121"/>
<path d="M645.468 170.268C673.816 114.779 735 68.3176 805.619 48.671C948.835 8.81816 1112.26 117.664 1112.11 252.805C1112 349.033 1021.27 444.274 910.241 464.694C892.666 467.925 877.676 471.682 876.93 473.041C857.703 507.984 848.636 517.877 824.466 530.316C792.788 546.618 738.691 553.26 734.467 541.375C733.022 537.298 741.043 530.142 752.295 525.486C775.453 515.892 799.123 489.044 798.624 472.941C798.424 466.506 782.421 454.667 758.784 443.468C711.55 421.09 668.513 379.818 645.728 335.029C622.184 288.747 622.064 216.07 645.468 170.268Z" fill="#212121"/>
<path d="M381.402 124.193C388.057 108.257 399.843 96.8847 420.089 86.8649C474.445 59.9633 557.582 72.8345 585.856 112.541C619.759 160.162 587.308 224.351 520.4 241.999C505.112 246.033 496.197 248.111 487.687 247.582C482.789 249.563 479.175 249.277 479.175 246.623C479.175 246.478 479.148 246.324 479.095 246.162C471.823 244.252 463.496 240.46 450.861 234.431C384.56 202.799 362.914 168.443 381.402 124.193Z" fill="#212121"/>
<path d="M272.649 152.394C272.649 142.867 276.247 131.474 280.644 127.077C295.221 112.501 325.48 117.431 333.821 135.738C345.167 160.641 331.936 185.704 307.432 185.704C284.008 185.704 272.649 174.825 272.649 152.394Z" fill="#212121"/>
<path d="M1142.64 177.516C1137.62 163.233 1138.85 156.631 1148.54 145.931C1155.14 138.638 1162.41 134.36 1170.63 133.044C1171.84 132.723 1172.96 132.599 1173.94 132.677C1180.31 132.276 1187.22 133.542 1194.81 136.451C1201.91 139.176 1205.35 148.916 1205.35 166.304C1205.35 188.049 1202.81 192.746 1189.22 196.164C1163.59 202.593 1149.48 196.943 1142.64 177.516Z" fill="#212121"/>
<path d="M182.098 262.319C171.991 246.889 171.991 244.437 182.098 229.008C201.298 199.701 246.001 209.621 246.001 243.192C246.001 278.301 201.331 291.672 182.098 262.319Z" fill="#212121"/>
<path d="M1149.25 308.72C1143.24 284.73 1162.18 248.908 1187.5 236.423C1214.35 223.185 1260.34 222.766 1285.03 235.537C1310.43 248.668 1331.93 276.935 1331.93 297.195C1331.93 320.259 1293.45 356.787 1263.17 362.464C1212.66 371.944 1158.74 346.494 1149.25 308.72Z" fill="#212121"/>
<path d="M274.781 321.132C271.05 293.131 288.425 263.338 315.207 251.832C322.948 248.501 345.52 246.796 365.373 248.028C396.052 249.94 404.299 253.445 420.335 271.392C471.927 329.133 407.071 403.995 326.386 379.825C294.235 370.192 279.018 352.883 274.781 321.132Z" fill="#212121"/>
<path d="M549.061 329.839C532.565 323.503 528.921 304.71 542.305 294.923C555.996 284.91 579.107 293.357 579.107 308.374C579.107 321.405 560.933 334.389 549.061 329.839Z" fill="#212121"/>
<path d="M190.272 375.601C157.082 397.346 121.273 360.765 143.118 327.421C154.05 310.739 184.529 306.775 198.034 320.279C211.791 334.036 207.547 364.276 190.272 375.601Z" fill="#212121"/>
<path d="M484.638 340.399C480.807 336.568 479.788 330.006 482.373 325.822C488.262 316.295 507.116 319.466 510.82 330.599C514.464 341.544 493.592 349.352 484.638 340.399Z" fill="#212121"/>
<path d="M1356.74 394.205C1344.77 389.67 1341.66 374.606 1352.18 361.931C1362.63 349.339 1374.78 349.659 1385.69 362.81C1394.88 373.885 1389.75 387.517 1377.15 393.05C1371.78 397.5 1364.22 399.052 1357.98 395.188C1357.54 394.919 1357.13 394.589 1356.74 394.205Z" fill="#212121"/>
<path d="M481.966 474.987C476.25 444.501 495.271 407.959 525.05 392.223C578.201 364.129 650.205 382.763 669.812 429.671C681.644 457.992 681.424 468.464 668.426 495.859C656.327 521.348 613.723 545.459 580.766 545.459C534.904 545.459 489.055 512.754 481.966 474.987Z" fill="#212121"/>
<path d="M1166.46 419.631C1165.22 410.884 1168.22 401.19 1173.12 398.079C1194.45 384.562 1220.26 404.308 1207.56 424.435C1196.53 441.936 1169.16 438.738 1166.46 419.631Z" fill="#212121"/>
<path d="M35.0294 542.546C51.8036 492.096 96.5304 450.961 159.393 431.77C168.554 428.971 192.744 426.427 213.143 426.113C357.605 423.882 449.249 543.087 390.529 656.829C380.656 675.943 372.581 696.642 372.581 702.818C372.581 718.76 404.986 785.295 412.747 785.295C416.305 785.295 419.169 790.538 419.116 796.954C419.056 803.716 416.871 805.814 413.913 801.95C411.108 798.286 391.981 779.206 371.402 759.553L334.961 724.753L333.906 723.852L293.302 737.901C165.349 782.184 38.1827 716.222 28.2695 600.421C26.552 580.376 28.9384 560.949 34.9672 542.733L34.9848 542.128L35.0294 542.546Z" fill="#212121"/>
<path d="M22.8198 478.837C9.21578 478.837 -1.92995 460.537 2.73353 445.847C5.48499 437.159 12.7933 432.203 22.8198 432.203C32.8463 432.203 40.1547 437.159 42.9061 445.847C47.5696 460.537 36.4239 478.837 22.8198 478.837Z" fill="#212121"/>
<path d="M413.591 457.297C413.391 454.768 413.737 452.051 414.792 449.304C416.997 443.562 421.981 438.865 425.878 438.865C436.671 438.865 441.954 458.764 433.426 467.292C426.872 473.847 418.628 470.404 415.176 463.222C413.624 461.911 413.017 459.877 413.591 457.297Z" fill="#212121"/>
<path d="M1162.88 534.633C1177.95 502.874 1228.21 460.53 1264.7 448.838C1349.49 421.683 1449.56 471.442 1475.47 553.64C1484.44 582.087 1485.15 594.019 1479.21 616.07C1468.62 655.41 1438.55 693.284 1402.9 712.198C1385.85 721.245 1371.78 731.645 1371.64 735.316C1371.37 742.144 1251.06 839.718 1236.84 844.648C1232.52 846.14 1241.82 832.036 1257.51 813.296C1273.45 794.256 1287.6 769.532 1289.6 757.247C1293.05 736.022 1292.13 734.956 1263.1 726.388C1179.92 701.825 1129.4 605.178 1162.88 534.633Z" fill="#212121"/>
<path d="M1469.25 483.528C1457.87 479.737 1449.59 461.023 1454.08 449.298C1459.63 434.861 1484.52 437.912 1494.47 454.248C1500.34 463.881 1499.19 468.238 1488.75 475.986C1481.58 481.316 1472.8 484.713 1469.25 483.528Z" fill="#212121"/>
<path d="M1013.45 504.786C991.299 516.638 971.559 487.065 989.587 469.037C1001.86 456.759 1006.99 456.359 1017.47 466.846C1029.21 478.584 1027.21 497.418 1013.45 504.786Z" fill="#212121"/>
<path d="M1112.08 532.134C1073.34 532.134 1058.61 498.99 1085.43 472.175C1092.76 464.847 1104.75 458.851 1112.08 458.851C1127.94 458.851 1152.05 481.216 1152.05 495.932C1152.05 516.876 1142 528.74 1121.92 531.505C1119.61 531.922 1117.16 532.134 1114.55 532.134C1114.23 532.134 1113.92 532.13 1113.61 532.121C1113.1 532.13 1112.59 532.134 1112.08 532.134Z" fill="#212121"/>
<path d="M696.54 571.408C677.78 586.977 650.845 560.042 666.414 541.281C670.591 536.252 681.137 532.134 689.845 532.134C702.083 532.134 705.687 535.739 705.687 547.977C705.687 556.684 701.57 567.23 696.54 571.408Z" fill="#212121"/>
<path d="M963.405 658.688C889.182 658.761 856.911 581.994 917.376 549.183C958.701 526.758 1026.89 545.559 1036.01 581.894C1046.43 623.445 1013.16 658.641 963.405 658.688Z" fill="#212121"/>
<path d="M432.54 656.176C432.54 629.401 448.376 606.604 475.031 595.005C502.586 583.013 514.184 583.28 542.012 596.55C571.332 610.534 589.26 644.864 580.712 670.673C572.438 695.683 536.203 718.674 505.071 718.674C470.068 718.674 432.54 686.336 432.54 656.176Z" fill="#212121"/>
<path d="M648.779 782.19C607.534 728.107 625.042 650.913 685.474 620.407C765.879 579.822 851.468 625.178 857.504 711.579C859.649 742.231 857.37 752.664 844.359 771.811C819.283 808.712 789.377 825.268 747.792 825.268C701.21 825.268 671.917 812.523 648.779 782.19Z" fill="#212121"/>
<path d="M1079.43 702.232C1055.64 694.677 1050.07 656.143 1070.5 640.394C1094.09 622.22 1125.4 638.555 1125.4 669.028C1125.4 688.668 1098.32 708.228 1079.43 702.232Z" fill="#212121"/>
<path d="M941.866 749.053C922.846 736.588 921.047 721.352 936.563 704.21C951.16 688.081 973.817 688.768 989.24 705.803C1000.63 718.387 1000.84 721.132 991.705 737.401C979.4 759.326 963.291 763.09 941.866 749.053Z" fill="#212121"/>
<path d="M430.115 763.25C417.351 758.347 415.405 727.981 427.544 723.084C432.127 721.239 437.903 719.487 440.395 719.2C448.289 718.281 466.544 739.919 464.085 747.288C460.175 759.026 441.714 767.7 430.115 763.25Z" fill="#212121"/>
<path d="M16.1577 795.901C-3.04918 783.316 -5.39424 761.778 10.5282 744.183C23.999 729.293 32.1335 728.933 51.3137 742.371C71.36 756.408 70.4673 782.137 49.4683 795.901C34.0388 806.008 31.5872 806.008 16.1577 795.901Z" fill="#212121"/>
<path d="M1086.39 853.735C1032.99 853.735 1007.09 803.789 1039.28 762.877C1050.8 748.22 1058.42 745.322 1085.43 745.322C1112.44 745.322 1120.05 748.22 1131.58 762.877C1162.52 802.21 1136.89 853.735 1086.39 853.735Z" fill="#212121"/>
<path d="M1391.43 785.048C1378.85 778.32 1374.15 758.613 1383 749.766C1387.81 744.963 1418.53 743.53 1418.53 748.107C1418.53 749.639 1420.21 755.249 1422.25 760.572C1428.26 776.241 1406.8 793.276 1391.43 785.048Z" fill="#212121"/>
<path d="M558.488 795.288C540.36 795.288 533.518 776.774 546.063 761.658C556.509 749.066 568.661 749.386 579.573 762.537C591.405 776.794 579.5 795.288 558.488 795.288Z" fill="#212121"/>
<path d="M1226.82 802.651C1212.03 797.699 1207.68 781.876 1218.94 768.32C1230.05 754.929 1243.56 756.228 1251.72 771.491C1262.15 790.978 1253.23 806.347 1232.87 803.976C1232.23 803.902 1231.61 803.811 1231 803.704C1229.59 803.564 1228.18 803.221 1226.82 802.651Z" fill="#212121"/>
<path d="M1472.28 801.242C1455.68 797.727 1447.56 781.828 1458.04 769.199C1474.39 749.506 1500.96 760.878 1497.39 786.048C1495.76 797.616 1491.04 801.855 1479.61 801.949C1477.05 803.269 1474.93 803.022 1472.28 801.242Z" fill="#212121"/>
<path d="M261.044 803.196C252.203 794.349 251.91 790.898 259.285 782.011C270.861 768.06 287.64 771.854 291.119 788.572C292.004 790.326 292.198 792.095 291.702 793.856C291.826 810.452 274.439 816.585 261.044 803.196Z" fill="#212121"/>
<path d="M954.611 855.76C917.942 863.095 898.436 825.721 925.044 799.112C945.437 778.719 985.596 793.343 985.396 821.084C985.243 842.143 977.155 851.25 954.611 855.76Z" fill="#212121"/>
<path d="M109.574 903.361C78.7417 872.529 78.7417 851.29 109.574 820.458C130.921 799.111 134.427 797.268 165.781 799.718C167.994 799.73 170.135 799.906 172.33 800.253C203.08 802.909 211.406 806.75 227.8 825.088C243.709 842.902 246.56 850.804 243.169 867.752C236.347 901.922 212.404 920.243 169.966 923.761C134.85 926.672 131.885 925.673 109.574 903.361Z" fill="#212121"/>
<path d="M406.105 852.096C406.345 833.136 416.211 818.019 435.871 806.507C454.112 795.821 479.521 802.443 497.496 822.556C521.733 849.684 516.49 879.371 484.545 895.886C447.37 915.113 405.605 891.796 406.105 852.096Z" fill="#212121"/>
<path d="M345.053 842.323C333.501 853.875 315.753 844.075 321.436 829.272C326.12 817.067 342.955 815.061 349.657 825.907C352.142 829.924 350.07 837.306 345.053 842.323Z" fill="#212121"/>
<path d="M1286.94 897.119C1290.33 861.776 1304.47 841.543 1335.26 827.953C1425.42 788.146 1513.9 890.257 1448.45 958.577C1445.53 961.631 1443.11 964.294 1441.16 966.691C1437.81 973.153 1435.86 978.905 1435.22 984.255C1435.74 986.249 1436.66 988.352 1437.92 990.708C1448.41 1010.31 1446.95 1020.57 1434.34 1015.74C1427.88 1013.25 1419.93 1016.33 1414.67 1023.35C1406.63 1034.08 1405.44 1033.2 1401.36 1013.47C1397.81 996.284 1393.58 991.821 1380.85 991.821C1354.78 991.821 1322.62 975.205 1302.59 951.388C1286.32 932.062 1284.27 924.926 1286.94 897.119Z" fill="#212121"/>
<path d="M542.485 936.532C521.073 905.959 535.257 851.816 568.161 838.539C608.52 822.25 658.16 837.972 676.134 872.735C688.252 896.159 685.308 915.433 665.834 940.189C640.545 972.334 566.016 970.129 542.485 936.532Z" fill="#212121"/>
<path d="M1217 877.299C1208.82 878.871 1205.35 875.274 1205.35 865.24C1205.35 855.207 1208.82 851.61 1217 853.182C1223.42 854.421 1228.66 859.844 1228.66 865.24C1228.66 868.294 1226.98 871.357 1224.36 873.665C1223.16 875.976 1220.97 877.03 1218.5 876.931C1218.01 877.078 1217.51 877.201 1217 877.299Z" fill="#212121"/>
<path d="M765.133 972.347C734.108 941.315 739.884 896.026 777.471 875.627C837.717 842.936 911.747 892.995 891.027 952.421C882.273 977.531 854.859 991.821 815.432 991.821C790.243 991.821 781.042 988.256 765.133 972.347Z" fill="#212121"/>
<path d="M20.5747 905.966C19.3355 897.219 22.3335 887.525 27.2368 884.414C32.1335 881.31 37.643 878.771 39.4751 878.771C50.8474 878.771 60.3009 892.369 58.3756 905.966C55.1644 928.724 23.7858 928.724 20.5747 905.966Z" fill="#212121"/>
<path d="M939.201 1026.62C924.778 974.379 959.581 918.304 1020.29 895.953C1058.16 882.016 1120.7 885.82 1156.85 904.267C1221.81 937.405 1242.74 1008.97 1202.79 1061.34C1166.65 1108.74 1094.08 1129.51 1030.85 1110.57C994.357 1099.63 947.515 1056.73 939.201 1026.62Z" fill="#212121"/>
<path d="M185.309 1116.05C131.519 1039.73 169.806 934.673 262.656 903.794C334.5 879.897 404.946 895.033 453.133 944.72C525.084 1018.9 497.283 1126.44 395.126 1169.12C379.65 1175.59 353.694 1178.68 322.555 1177.77L274.068 1176.35L234.049 1218.99C212.037 1242.45 184.223 1267.35 172.238 1274.35L150.453 1287.05L168.041 1264C211.225 1207.38 216.688 1160.57 185.309 1116.05Z" fill="#212121"/>
<path d="M71.2201 1029.23C62.9258 1016.64 65.5973 993.3 76.5898 982.301C101.266 957.631 146.709 984.965 136.176 1018.15C127.861 1044.34 85.8968 1051.5 71.2201 1029.23Z" fill="#212121"/>
<path d="M1267.72 1038.46C1250.49 1038.46 1241.43 1024.88 1247.73 1008.48C1249.84 1002.98 1258.83 998.483 1267.72 998.483C1284.94 998.483 1293.99 1012.06 1287.7 1028.46C1285.59 1033.96 1276.6 1038.46 1267.72 1038.46Z" fill="#212121"/>
<path d="M634.509 1171.67C534.044 1171.6 500.54 1060.57 589.1 1021.21C637.574 999.669 705.607 1020.69 723.135 1062.64C747.512 1120.99 706.267 1171.73 634.509 1171.67Z" fill="#212121"/>
<path d="M24.985 1053.28C20.9878 1049.28 19.5221 1041.31 21.7272 1035.57C26.7305 1022.53 43.4857 1021.94 48.3624 1034.64C53.4389 1047.88 34.6051 1062.9 24.985 1053.28Z" fill="#212121"/>
<path d="M826.505 1117.79C804.846 1105.7 799.716 1076.01 816.145 1057.86C830.122 1042.41 844.412 1041.71 864.092 1055.49C885.331 1070.36 883.992 1101.44 861.481 1116.18C845.871 1126.41 842.227 1126.58 826.505 1117.79Z" fill="#212121"/>
<path d="M1307.74 1129.35C1287.6 1105.94 1287.76 1088.67 1308.31 1068.14C1341.25 1035.18 1400.77 1054.24 1400.77 1097.75C1400.77 1145.72 1339.67 1166.47 1307.74 1129.35Z" fill="#212121"/>
<path d="M926.29 1106.99C917.096 1116.18 901.66 1103.44 908.522 1092.33C910.987 1088.35 915.644 1085.09 918.875 1085.09C929.168 1085.09 933.978 1099.3 926.29 1106.99Z" fill="#212121"/>
<path d="M120.58 1147.3C105.437 1137.75 104.098 1128.01 116.256 1115.86C129.84 1102.27 152.731 1112.51 152.731 1132.17C152.731 1148.07 135.023 1156.41 120.58 1147.3Z" fill="#212121"/>
<path d="M741.483 1177.66C731.856 1169.67 729.251 1150.36 736.779 1142.83C744.307 1135.3 763.621 1137.91 771.609 1147.53C787.178 1166.3 760.243 1193.23 741.483 1177.66Z" fill="#212121"/>
<path d="M813.753 1302.59C808.61 1240.57 829.849 1201.18 886.137 1168.33C912.226 1153.1 921.607 1151.39 969.334 1153.11C1014.78 1154.74 1027.37 1157.85 1050.41 1173.1C1065.41 1183.04 1086.17 1202.28 1096.55 1215.89C1113.24 1237.76 1115.41 1246.17 1115.41 1288.78C1115.41 1332.14 1113.32 1339.83 1094.54 1365.91C1013.62 1478.28 824.792 1435.7 813.753 1302.59Z" fill="#212121"/>
<path d="M1158.71 1225.11C1158.71 1194.91 1170.76 1177.93 1199.6 1167.49C1200.29 1167.25 1200.95 1167.01 1201.6 1166.77L1201.67 1166.74C1214.69 1162.03 1221.38 1159.61 1228.05 1159.66C1235.09 1159.71 1242.12 1162.52 1256.57 1168.31C1257.26 1168.59 1257.97 1168.87 1258.7 1169.17C1289.52 1181.5 1298.62 1194.62 1298.62 1226.73C1298.62 1261.82 1273.39 1281.62 1228.66 1281.62C1183.07 1281.62 1158.71 1261.94 1158.71 1225.11Z" fill="#212121"/>
<path d="M462.333 1284.84C427.044 1263.03 426.031 1219.66 460.248 1195.69C468.622 1189.82 488.535 1185.02 504.484 1185.02C540.753 1185.02 572.445 1212.47 572.445 1243.88C572.445 1289.2 508.115 1313.13 462.333 1284.84Z" fill="#212121"/>
<path d="M367.838 1281.1C333.921 1291.68 310.184 1248.37 335.84 1222.72C347.585 1210.97 378.344 1212.86 386.558 1225.83C400.382 1247.65 391.555 1273.7 367.838 1281.1Z" fill="#212121"/>
<path d="M704.122 1269.07C695.827 1256.47 698.499 1233.14 709.491 1222.14C731.403 1200.23 772.308 1217.85 772.308 1249.19C772.308 1279.47 720.857 1294.47 704.122 1269.07Z" fill="#212121"/>
<path d="M632.404 1251.64C623.523 1251.64 619.08 1247.2 619.08 1238.32C619.08 1229.44 623.523 1224.99 632.404 1224.99C641.284 1224.99 645.728 1229.44 645.728 1238.32C645.728 1247.2 641.284 1251.64 632.404 1251.64Z" fill="#212121"/>
<path d="M282.376 1318.26C266.54 1318.26 254.542 1298.08 262.616 1285.01C269.012 1274.67 297.392 1277.05 301.71 1288.29C307.919 1304.47 299.025 1318.26 282.376 1318.26Z" fill="#212121"/>
<path d="M535.363 1365.75C547.655 1341.98 559.8 1332.17 590.706 1321.05C652.35 1298.86 724.688 1347.16 716.227 1404.87C711.403 1437.8 675.828 1469.16 636.641 1475.04C596.022 1481.13 551.592 1460.52 536.423 1428.56C523.338 1400.97 523.138 1389.38 535.363 1365.75Z" fill="#212121"/>
<path d="M385.299 1349.84C388.823 1340.57 395.645 1331.41 400.462 1329.48C418.15 1322.41 432.86 1325.25 445.864 1338.25C461.9 1354.29 462.526 1363.83 448.816 1383.4C424.859 1417.61 370.463 1388.86 385.299 1349.84Z" fill="#212121"/>
<path d="M778.97 1361.57C773.474 1361.57 767.985 1354.55 766.772 1345.99C765.06 1333.9 767.305 1330.93 776.765 1332.75C791.429 1335.58 793.421 1361.57 778.97 1361.57Z" fill="#212121"/>
<path d="M1150.38 1370.3C1138.66 1372.55 1133.5 1352.35 1143.31 1342.55C1150.24 1335.62 1159.5 1340.56 1161.6 1350.91C1161.68 1351.02 1161.76 1351.13 1161.83 1351.25C1161.91 1351.37 1161.99 1351.5 1162.07 1351.62C1163.21 1353.46 1163.05 1355.58 1161.88 1357.54C1160.94 1363.68 1156.13 1369.19 1150.38 1370.3Z" fill="#212121"/>
<path d="M764.9 1462.52C759.084 1449.77 759.937 1442.93 769.051 1429.02C792.301 1393.53 846.897 1418.86 836.491 1460.31C828.184 1493.41 779.657 1494.9 764.9 1462.52Z" fill="#212121"/>
<path d="M1015.02 267.65C1022.63 188.407 964.525 117.99 885.231 110.37C805.938 102.75 735.485 160.812 727.869 240.056C720.254 319.299 778.361 389.716 857.654 397.336C936.948 404.956 1007.4 346.894 1015.02 267.65Z" fill="white"/>
<path fill-rule="evenodd" clip-rule="evenodd" d="M804.944 125.628L781.8 366.462C744.85 337.095 713.796 286.427 718.645 235.966C723.495 185.505 763.077 147.421 804.944 125.628Z" fill="#0058DD"/>
<path fill-rule="evenodd" clip-rule="evenodd" d="M938 381.473L961.144 140.639C998.094 170.006 1036.38 218.778 1031.53 269.238C1026.68 319.699 979.867 359.68 938 381.473Z" fill="#DD2C00"/>
<path d="M330.108 582.922C326.821 521.329 274.649 463.371 213.159 466.663C151.668 469.955 104.143 533.25 107.43 594.843C110.716 656.437 163.229 703.699 224.719 700.407C286.21 697.115 333.394 644.515 330.108 582.922Z" fill="white"/>
<path fill-rule="evenodd" clip-rule="evenodd" d="M152.371 491.95L163.185 685.486C131.563 667.24 96.7412 634.065 94.6484 594.843C92.5557 555.622 122.871 513.469 152.371 491.95Z" fill="#00DD4B"/>
<path fill-rule="evenodd" clip-rule="evenodd" d="M284.316 679.001L269.959 481.582C301.581 499.828 345.003 543.701 347.096 582.922C349.189 622.144 313.815 657.483 284.316 679.001Z" fill="#DD2C00"/>
<path d="M1316.35 671.226C1362.59 671.226 1419.74 632.69 1419.74 585.152C1419.74 537.615 1362.59 499.078 1316.35 499.078C1270.11 499.078 1215.15 537.615 1215.15 585.152C1215.15 632.69 1270.11 671.226 1316.35 671.226Z" fill="#FFC107"/>
<path fill-rule="evenodd" clip-rule="evenodd" d="M1400.81 538.82L1234.78 537.25C1249.71 513.624 1287.08 499.078 1316.53 499.078C1345.97 499.078 1385.88 515.194 1400.81 538.82Z" fill="#DD2C00"/>
<path fill-rule="evenodd" clip-rule="evenodd" d="M1230.51 627.815L1402.02 630.061C1387.09 653.686 1345.8 674.22 1316.35 674.22C1286.9 674.22 1245.44 651.441 1230.51 627.815Z" fill="#DD2C00"/>
<path d="M224.974 1057.23L418.504 1067.92C402.455 1102.68 363.383 1129.44 318.709 1126.97C274.035 1124.51 237.096 1093.54 224.974 1057.23Z" fill="#FFC107"/>
<path d="M421.826 1006.93L232.539 988.955C248.587 954.198 284.259 933.177 328.933 935.646C373.607 938.114 409.704 970.611 421.826 1006.93Z" fill="black"/>
<path d="M232.539 988.955C228.231 998.285 221.446 1012.58 220.855 1023.28C220.264 1033.97 221.696 1047.48 224.95 1057.23L418.48 1067.92C422.788 1058.59 425.412 1048.44 426.003 1037.75C426.594 1027.05 425.104 1016.67 421.85 1006.93L232.539 988.955Z" fill="#DD2C00"/>
</svg>
