<svg width="250px" height="250px" viewBox="-250 -10 3229 2948" fill="none" xmlns="http://www.w3.org/2000/svg">
<path id="about_bubble" d="M85.6972 636.982C224.706 364.948 524.743 137.169 871.04 40.8518C1573.34 -154.527 2374.72 379.09 2374 1041.62C2373.48 1513.38 1928.52 1980.3 1384.08 2080.41C1297.9 2096.25 1224.39 2114.67 1220.73 2121.33C1126.45 2292.64 1081.99 2341.14 963.461 2402.12C808.117 2482.04 542.842 2514.6 522.129 2456.34C515.04 2436.35 554.373 2401.27 609.552 2378.44C723.111 2331.41 839.186 2199.78 836.736 2120.84C835.756 2089.29 757.284 2031.25 641.373 1976.35C409.746 1866.64 198.701 1664.3 86.9717 1444.72C-28.4823 1217.83 -29.0707 861.527 85.6972 636.982Z" fill="#212121"/>
<path id="about_bubble_small" d="M2896.44 1944.39C2843.62 1840.87 2729.62 1754.2 2598.05 1717.55C2331.21 1643.2 2026.73 1846.26 2027 2098.37C2027.2 2277.89 2196.26 2455.57 2403.12 2493.66C2435.86 2499.69 2463.79 2506.7 2465.18 2509.23C2501.01 2574.42 2517.9 2592.88 2562.93 2616.08C2621.96 2646.49 2722.75 2658.88 2730.62 2636.71C2733.31 2629.11 2718.37 2615.76 2697.4 2607.07C2654.25 2589.17 2610.15 2539.09 2611.08 2509.05C2611.46 2497.04 2641.27 2474.95 2685.31 2454.06C2773.32 2412.31 2853.5 2335.32 2895.96 2251.76C2939.82 2165.42 2940.05 2029.84 2896.44 1944.39Z" fill="#7CCAD5"/>
</svg>
