<svg width="2933" height="2910" viewBox="0 -200 2933 3310" fill="none" xmlns="http://www.w3.org/2000/svg">
<!-- first group -->
<path id="Set1" d="M32.0271 1559.06C-5.57265 1534.42 -10.1634 1492.26 21.0067 1457.82C47.3774 1428.67 63.3016 1427.96 100.849 1454.27C140.092 1481.75 138.345 1532.11 97.2365 1559.06C67.0315 1578.84 62.2321 1578.84 32.0271 1559.06Z" fill="#212121"/>
<path id="Set1" d="M40.6739 1774.52C38.2481 1757.4 44.1169 1738.42 53.7158 1732.33C63.3016 1726.26 74.0872 1721.29 77.6737 1721.29C99.9362 1721.29 118.443 1747.91 114.674 1774.52C108.387 1819.08 46.9601 1819.08 40.6739 1774.52Z" fill="#212121"/>
<path id="Set1" d="M45.069 938.37C18.4375 938.37 -3.38162 902.544 5.7477 873.787C11.134 856.78 25.441 847.077 45.069 847.077C64.697 847.077 79.004 856.78 84.3903 873.787C93.5196 902.544 71.7005 938.37 45.069 938.37Z" fill="#212121"/>
<path id="Set1" d="M49.3076 2062.91C41.4825 2055.08 38.6133 2039.48 42.9301 2028.24C52.7246 2002.71 85.5249 2001.56 95.0716 2026.42C105.009 2052.33 68.1401 2081.74 49.3076 2062.91Z" fill="#212121"/>

<!-- second group -->
<!-- italy blob -->
<path id="Set2" d="M68.9707 1063.09C101.808 964.325 189.366 883.8 312.428 846.229C330.36 840.752 377.715 835.77 417.65 835.157C700.45 830.788 879.854 1064.15 764.903 1286.81C745.575 1324.23 729.768 1364.75 729.768 1376.84C729.768 1408.05 793.204 1538.3 808.398 1538.3C815.362 1538.3 820.97 1548.56 820.866 1561.12C820.748 1574.36 816.471 1578.47 810.68 1570.9C805.189 1563.73 767.746 1526.38 727.46 1487.9L656.121 1419.78L654.057 1418.01L574.57 1445.52C324.087 1532.21 75.1436 1403.08 55.7373 1176.38C52.3751 1137.14 57.0467 1099.11 68.8489 1063.45L68.8834 1062.27L68.9707 1063.09Z" fill="#212121"/>
<path id="Set2" d="M139.818 2015.83C123.581 1991.18 128.811 1945.49 150.33 1923.96C198.637 1875.66 287.596 1929.18 266.977 1994.14C250.7 2045.42 168.55 2059.42 139.818 2015.83Z" fill="#212121"/>
<path id="Set2" d="M214.9 1769.43C154.543 1709.07 154.543 1667.49 214.9 1607.13C256.69 1565.34 263.552 1561.74 324.933 1566.53C329.264 1566.55 333.456 1566.9 337.752 1567.58C397.949 1572.78 414.248 1580.3 446.342 1616.2C477.486 1651.07 483.068 1666.54 476.429 1699.72C463.074 1766.61 416.202 1802.47 333.125 1809.36C264.381 1815.06 258.578 1813.1 214.9 1769.43Z" fill="#212121"/>
<path id="Set2" d="M236.446 2246.97C206.801 2228.26 204.18 2209.21 227.981 2185.41C254.574 2158.82 299.386 2178.86 299.386 2217.35C299.386 2248.48 264.72 2264.8 236.446 2246.97Z" fill="#212121"/>
<path id="Set2" d="M356.874 514.509C337.09 484.304 337.09 479.504 356.874 449.299C394.461 391.928 481.972 411.348 481.972 477.066C481.972 545.796 394.526 571.971 356.874 514.509Z" fill="#212121"/>


<path id="Set3" d="M363.161 2185.79C257.86 2036.39 332.812 1830.72 514.577 1770.27C655.221 1723.49 793.125 1753.12 887.457 1850.39C1028.31 1995.61 973.886 2206.12 773.902 2289.68C743.606 2302.34 692.794 2308.39 631.837 2306.61L536.918 2303.84L458.575 2387.31C415.485 2433.23 361.035 2481.98 337.572 2495.68L294.925 2520.55L329.356 2475.41C413.894 2364.58 424.588 2272.93 363.161 2185.79Z" fill="#212121"/>
<path id="Set3" d="M372.877 736.273C307.902 778.842 237.802 707.229 280.566 641.954C301.968 609.297 361.635 601.537 388.071 627.973C415.002 654.905 406.694 714.102 372.877 736.273Z" fill="#212121"/>
<path id="Set3" d="M511.421 1573.34C494.114 1556.02 493.54 1549.27 507.978 1531.87C530.64 1504.56 563.486 1511.98 570.295 1544.71C572.028 1548.15 572.409 1551.61 571.438 1555.06C571.681 1587.54 537.643 1599.55 511.421 1573.34Z" fill="#212121"/>
<path id="Set3" d="M534.14 299.318C534.14 280.668 541.182 258.366 549.79 249.759C578.326 221.223 637.562 230.874 653.89 266.713C676.101 315.464 650.2 364.527 602.231 364.527C556.376 364.527 534.14 343.23 534.14 299.318Z" fill="#212121"/>
<path id="Set3" d="M538.313 629.643C531.01 574.828 565.023 516.504 617.451 493.981C632.606 487.46 676.792 484.121 715.657 486.534C775.715 490.277 791.86 497.137 823.252 532.272C924.249 645.306 797.286 791.858 639.336 744.542C576.395 725.683 546.608 691.8 538.313 629.643Z" fill="#212121"/>
<path id="Set3" d="M553.181 2581.65C522.18 2581.65 498.692 2542.13 514.499 2516.56C527.019 2496.31 582.577 2500.97 591.028 2522.96C603.183 2554.65 585.773 2581.65 553.181 2581.65Z" fill="#212121"/>
<path id="Set3" d="M675.879 1649.94C653.264 1672.55 618.521 1653.37 629.646 1624.39C638.814 1600.49 671.771 1596.57 684.891 1617.8C689.755 1625.66 685.699 1640.11 675.879 1649.94Z" fill="#212121"/>
<path id="Set3" d="M720.482 2508.89C654.086 2529.6 607.618 2444.83 657.842 2394.6C680.835 2371.61 741.049 2375.3 757.13 2400.69C784.192 2443.4 766.911 2494.4 720.482 2508.89Z" fill="#212121"/>


<path id="Set4" d="M747.035 244.111C760.064 212.915 783.135 190.653 822.77 171.038C929.178 118.375 1091.93 143.572 1147.28 221.301C1213.65 314.525 1150.12 440.183 1019.14 474.731C989.213 482.629 971.76 486.695 955.101 485.66C945.512 489.538 938.438 488.979 938.438 483.782C938.438 483.499 938.385 483.198 938.281 482.88C924.047 479.142 907.745 471.718 883.01 459.916C753.217 397.993 710.844 330.736 747.035 244.111Z" fill="#212121"/>
<path id="Set4" d="M754.665 2643.47C761.564 2625.31 774.919 2607.38 784.348 2603.61C818.974 2589.76 847.771 2595.32 873.229 2620.77C904.62 2652.17 905.846 2670.85 879.006 2709.16C832.108 2776.13 725.621 2719.85 754.665 2643.47Z" fill="#212121"/>
<path id="Set4" d="M795.395 1669.07C795.864 1631.95 815.179 1602.36 853.666 1579.82C889.375 1558.9 939.116 1571.87 974.303 1611.24C1021.75 1664.35 1011.49 1722.46 948.95 1754.79C876.176 1792.43 794.417 1746.78 795.395 1669.07Z" fill="#212121"/>
<path id="Set4" d="M810.05 896.202C809.658 891.251 810.336 885.934 812.401 880.555C816.718 869.313 826.474 860.119 834.103 860.119C855.231 860.119 865.573 899.075 848.88 915.769C836.048 928.6 819.911 921.861 813.152 907.801C810.114 905.236 808.926 901.253 810.05 896.202Z" fill="#212121"/>
<path id="Set4" d="M842.398 1495.14C817.409 1485.54 813.601 1426.1 837.364 1416.51C846.336 1412.9 857.644 1409.47 862.521 1408.91C877.976 1407.11 913.711 1449.47 908.898 1463.89C901.243 1486.87 865.104 1503.85 842.398 1495.14Z" fill="#212121"/>
<path id="Set4" d="M847.145 1285.53C847.145 1233.12 878.145 1188.49 930.326 1165.78C984.267 1142.31 1006.97 1142.83 1061.45 1168.81C1118.85 1196.18 1153.94 1263.39 1137.21 1313.91C1121.01 1362.87 1050.08 1407.88 989.132 1407.88C920.61 1407.88 847.145 1344.57 847.145 1285.53Z" fill="#212121"/>
<path id="Set4" d="M905.468 2516.22C836.385 2473.52 834.403 2388.61 901.386 2341.69C917.78 2330.2 956.762 2320.81 987.984 2320.81C1058.98 2320.81 1121.02 2374.54 1121.02 2436.02C1121.02 2524.76 995.092 2571.61 905.468 2516.22Z" fill="#212121"/>
<path id="Set4" d="M943.903 930.832C932.713 871.152 969.947 799.618 1028.24 768.813C1132.29 713.815 1273.25 750.293 1311.63 842.121C1334.79 897.562 1334.36 918.064 1308.92 971.692C1285.23 1021.59 1201.83 1068.79 1137.31 1068.79C1047.53 1068.79 957.779 1004.77 943.903 930.832Z" fill="#212121"/>
<path id="Set4" d="M949.133 667.36C941.633 659.861 939.638 647.014 944.698 638.824C956.227 620.174 993.136 626.382 1000.39 648.175C1007.52 669.603 966.661 684.888 949.133 667.36Z" fill="#212121"/>


<path id="Set5" d="M1048.43 2674.61C1072.5 2628.08 1096.27 2608.87 1156.77 2587.1C1277.45 2543.66 1419.06 2638.22 1402.49 2751.19C1393.05 2815.65 1323.41 2877.05 1246.7 2888.55C1167.18 2900.47 1080.2 2860.13 1050.51 2797.56C1024.89 2743.56 1024.5 2720.87 1048.43 2674.61Z" fill="#212121"/>
<path id="Set5" d="M1062.38 1834.36C1020.46 1774.51 1048.22 1668.52 1112.64 1642.53C1191.65 1610.64 1288.82 1641.42 1324.01 1709.47C1347.73 1755.33 1341.97 1793.06 1303.85 1841.52C1254.34 1904.45 1108.44 1900.13 1062.38 1834.36Z" fill="#212121"/>
<path id="Set5" d="M1075.25 646.688C1042.96 634.286 1035.82 597.494 1062.02 578.336C1088.82 558.734 1134.07 575.271 1134.07 604.667C1134.07 630.177 1098.49 655.596 1075.25 646.688Z" fill="#212121"/>
<path id="Set5" d="M1093.7 1557.86C1058.21 1557.86 1044.82 1521.62 1069.38 1492.02C1089.83 1467.38 1113.62 1468 1134.98 1493.75C1158.14 1521.66 1134.84 1557.86 1093.7 1557.86Z" fill="#212121"/>
<path id="Set5" d="M1238.4 2451.23C1221.02 2451.23 1212.32 2442.53 1212.32 2425.15C1212.32 2407.76 1221.02 2399.06 1238.4 2399.06C1255.79 2399.06 1264.49 2407.76 1264.49 2425.15C1264.49 2442.53 1255.79 2451.23 1238.4 2451.23Z" fill="#212121"/>
<path id="Set5" d="M1242.52 2294.67C1045.85 2294.53 980.263 2077.19 1153.63 2000.14C1248.52 1957.96 1381.71 1999.12 1416.02 2081.23C1463.74 2195.45 1383 2294.79 1242.52 2294.67Z" fill="#212121"/>
<path id="Set5" d="M1263.98 334.309C1319.47 225.683 1439.25 134.729 1577.49 96.2687C1857.85 18.2521 2177.77 231.33 2177.48 495.885C2177.27 684.262 1999.64 870.709 1782.3 910.682C1747.9 917.008 1718.55 924.363 1717.09 927.024C1679.45 995.428 1661.7 1014.8 1614.39 1039.14C1552.37 1071.06 1446.47 1084.06 1438.2 1060.79C1435.37 1052.81 1451.08 1038.81 1473.1 1029.69C1518.44 1010.91 1564.77 958.35 1563.8 926.828C1563.41 914.23 1532.08 891.054 1485.81 869.131C1393.34 825.323 1309.09 744.529 1264.49 656.848C1218.4 566.246 1218.16 423.972 1263.98 334.309Z" fill="#212121"/> 
<path id="Set5" d="M1270.46 1532.22C1189.72 1426.35 1223.99 1275.23 1342.29 1215.51C1499.7 1136.06 1667.24 1224.85 1679.06 1393.99C1683.26 1453.99 1678.8 1474.42 1653.33 1511.9C1604.24 1584.14 1545.69 1616.55 1464.29 1616.55C1373.1 1616.55 1315.75 1591.6 1270.46 1532.22Z" fill="#212121"/>
<path id="Set5" d="M1304.37 179.593C1216 188.318 1175.97 82.0139 1246.68 26.3902C1287.75 -5.91452 1293.83 -6.37099 1343.19 19.152C1422.58 60.2078 1395.87 170.568 1304.37 179.593Z" fill="#212121"/> 
<path id="Set5" d="M1363.96 1119.59C1327.23 1150.07 1274.5 1097.34 1304.98 1060.61C1313.16 1050.77 1333.8 1042.71 1350.85 1042.71C1374.81 1042.71 1381.86 1049.76 1381.86 1073.72C1381.86 1090.76 1373.8 1111.41 1363.96 1119.59Z" fill="#212121"/>


<path id="Set6" d="M1378.8 2485.33C1362.56 2460.68 1367.79 2415 1389.31 2393.47C1432.2 2350.58 1512.28 2385.07 1512.28 2446.43C1512.28 2505.71 1411.56 2535.06 1378.8 2485.33Z" fill="#212121"/>
<path id="Set6" d="M1451.94 2306.4C1433.09 2290.76 1427.99 2252.95 1442.73 2238.22C1457.47 2223.48 1495.27 2228.58 1510.91 2247.42C1541.39 2284.15 1488.66 2336.88 1451.94 2306.4Z" fill="#212121"/>
<path id="Set6" d="M1497.78 2864.04C1486.39 2839.08 1488.06 2825.69 1505.9 2798.46C1551.42 2728.98 1658.3 2778.58 1637.93 2859.71C1621.66 2924.51 1526.67 2927.44 1497.78 2864.04Z" fill="#212121"/>
<path id="Set6" d="M1498.24 1904.47C1437.5 1843.72 1448.81 1755.07 1522.39 1715.13C1640.33 1651.14 1785.25 1749.13 1744.69 1865.47C1727.55 1914.62 1673.88 1942.6 1596.7 1942.6C1547.39 1942.6 1529.38 1935.62 1498.24 1904.47Z" fill="#212121"/>
<path id="Set6" d="M1525.32 2666.42C1514.56 2666.42 1503.82 2652.69 1501.44 2635.92C1498.09 2612.26 1502.49 2606.44 1521.01 2610.01C1549.71 2615.54 1553.61 2666.42 1525.32 2666.42Z" fill="#212121"/>
<path id="Set6" d="M1593.41 2550.96C1583.35 2429.55 1624.92 2352.44 1735.11 2288.14C1786.19 2258.33 1804.55 2254.97 1897.98 2258.34C1986.94 2261.53 2011.59 2267.61 2056.7 2297.48C2086.07 2316.92 2126.71 2354.6 2147.02 2381.23C2179.69 2424.05 2183.94 2440.51 2183.94 2523.92C2183.94 2608.8 2179.86 2623.86 2143.09 2674.92C1984.67 2894.9 1615.02 2811.54 1593.41 2550.96Z" fill="#212121"/>
<path id="Set6" d="M1618.38 2189.2C1575.98 2165.52 1565.94 2107.41 1598.1 2071.87C1625.46 2041.62 1653.43 2040.25 1691.96 2067.24C1733.54 2096.35 1730.92 2157.19 1686.85 2186.05C1656.29 2206.07 1649.16 2206.39 1618.38 2189.2Z" fill="#212121"/>
<path id="Set6" d="M1813.72 2168.05C1795.72 2186.05 1765.5 2161.11 1778.94 2139.36C1783.76 2131.56 1792.88 2125.18 1799.2 2125.18C1819.35 2125.18 1828.77 2153 1813.72 2168.05Z" fill="#212121"/>
<path id="Set6" d="M1838.99 2010.73C1810.76 1908.45 1878.89 1798.68 1997.74 1754.92C2071.87 1727.64 2194.31 1735.09 2265.07 1771.2C2392.23 1836.07 2433.21 1976.17 2355.01 2078.69C2284.24 2171.48 2142.18 2212.15 2018.4 2175.05C1946.97 2153.65 1855.27 2069.66 1838.99 2010.73Z" fill="#212121"/>
<path id="Set6" d="M1844.21 1467.35C1806.98 1442.95 1803.45 1413.12 1833.83 1379.56C1862.4 1347.99 1906.76 1349.33 1936.95 1382.68C1959.24 1407.32 1959.66 1412.69 1941.78 1444.54C1917.69 1487.46 1886.15 1494.83 1844.21 1467.35Z" fill="#212121"/>
<path id="Set6" d="M1869.16 1676.24C1797.38 1690.6 1759.19 1617.44 1811.28 1565.35C1851.2 1525.42 1929.82 1554.05 1929.43 1608.36C1929.13 1649.58 1913.29 1667.41 1869.16 1676.24Z" fill="#212121"/>
<path id="Set6" d="M1886.37 1290.45C1741.08 1290.59 1677.9 1140.31 1796.27 1076.08C1877.17 1032.18 2010.65 1068.98 2028.51 1140.12C2048.92 1221.46 1983.78 1290.36 1886.37 1290.45Z" fill="#212121"/>
<path id="Set6" d="M1984.35 989.168C1940.98 1012.37 1902.34 954.477 1937.63 919.186C1961.67 895.149 1971.69 894.367 1992.22 914.895C2015.2 937.875 2011.29 974.744 1984.35 989.168Z" fill="#212121"/>
<path id="Set6" d="M2113.51 1375.69C2066.93 1360.9 2056.04 1285.47 2096.04 1254.64C2142.2 1219.06 2203.5 1251.04 2203.5 1310.69C2203.5 1349.14 2150.49 1387.43 2113.51 1375.69Z" fill="#212121"/>
<path id="Set6" d="M2127.13 1672.28C2022.6 1672.28 1971.9 1574.5 2034.91 1494.41C2057.47 1465.72 2072.38 1460.05 2125.25 1460.05C2178.12 1460.05 2193.03 1465.72 2215.59 1494.41C2276.16 1571.41 2225.99 1672.28 2127.13 1672.28Z" fill="#212121"/>
<path id="Set6" d="M2177.42 1042.71C2101.58 1042.71 2072.76 977.822 2125.25 925.328C2139.6 910.982 2163.07 899.245 2177.42 899.245C2208.47 899.245 2255.67 943.026 2255.67 971.836C2255.67 1012.83 2235.99 1036.06 2196.68 1041.47C2192.17 1042.29 2187.36 1042.71 2182.26 1042.71C2181.64 1042.71 2181.02 1042.7 2180.41 1042.68C2179.42 1042.7 2178.43 1042.71 2177.42 1042.71Z" fill="#212121"/>

<path id="Set7" d="M2237.25 348.499C2227.42 320.537 2229.83 307.612 2248.8 286.667C2261.72 272.389 2275.96 264.016 2292.04 261.438C2294.42 260.811 2296.6 260.569 2298.53 260.72C2310.99 259.935 2324.53 262.413 2339.37 268.108C2353.27 273.443 2360 292.51 2360 326.549C2360 369.118 2355.03 378.312 2328.43 385.003C2278.26 397.588 2250.63 386.529 2237.25 348.499Z" fill="#212121"/>
<path id="Set7" d="M2250.19 605.346C2238.41 558.382 2275.51 488.256 2325.06 463.815C2377.62 437.901 2467.65 437.079 2516 462.081C2565.71 487.786 2607.8 543.123 2607.8 582.783C2607.8 627.934 2532.47 699.443 2473.19 710.555C2374.32 729.113 2268.76 679.293 2250.19 605.346Z" fill="#212121"/>
<path id="Set7" d="M2252.41 2683.51C2229.45 2687.93 2219.36 2648.38 2238.56 2629.2C2252.13 2615.62 2270.26 2625.3 2274.37 2645.55C2274.53 2645.77 2274.67 2645.99 2274.82 2646.22C2274.98 2646.46 2275.13 2646.7 2275.28 2646.95C2277.51 2650.54 2277.2 2654.7 2274.91 2658.53C2273.07 2670.56 2263.66 2681.33 2252.41 2683.51Z" fill="#212121"/>
<path id="Set7" d="M2268.71 2399.28C2268.71 2340.16 2292.3 2306.93 2348.76 2286.5C2350.1 2286.01 2351.4 2285.54 2352.68 2285.08L2352.81 2285.03C2378.3 2275.8 2391.39 2271.05 2404.44 2271.15C2418.24 2271.26 2431.99 2276.77 2460.27 2288.1C2461.63 2288.64 2463.03 2289.2 2464.46 2289.77C2524.77 2313.91 2542.59 2339.6 2542.59 2402.45C2542.59 2471.16 2493.2 2509.92 2405.65 2509.92C2316.4 2509.92 2268.71 2471.39 2268.71 2399.28Z" fill="#212121"/>
<path id="Set7" d="M2276.87 1047.6C2306.38 985.425 2404.76 902.531 2476.19 879.643C2642.18 826.484 2838.08 923.894 2888.8 1084.8C2906.35 1140.49 2907.75 1163.85 2896.13 1207.02C2875.39 1284.03 2816.53 1358.18 2746.73 1395.2C2713.36 1412.91 2685.82 1433.27 2685.54 1440.46C2685.01 1453.82 2449.5 1644.84 2421.67 1654.49C2413.2 1657.41 2431.41 1629.8 2462.12 1593.11C2493.33 1555.84 2521.03 1507.44 2524.94 1483.39C2531.69 1441.84 2529.89 1439.75 2473.06 1422.98C2310.22 1374.9 2211.34 1185.7 2276.87 1047.6Z" fill="#212121"/>
<path id="Set7" d="M2283.88 822.467C2281.45 805.343 2287.32 786.367 2296.92 780.276C2338.67 753.814 2389.19 792.471 2364.35 831.87C2342.74 866.131 2289.16 859.871 2283.88 822.467Z" fill="#212121"/>
<path id="Set7" d="M2382.83 1718.41C2366.81 1721.48 2360 1714.44 2360 1694.8C2360 1675.16 2366.81 1668.12 2382.83 1671.19C2395.39 1673.62 2405.65 1684.24 2405.65 1694.8C2405.65 1700.78 2402.36 1706.77 2397.23 1711.29C2394.88 1715.82 2390.58 1717.88 2385.75 1717.68C2384.79 1717.97 2383.82 1718.21 2382.83 1718.41Z" fill="#212121"/>
<path id="Set7" d="M2402.04 1572.27C2373.08 1562.58 2364.58 1531.6 2386.61 1505.07C2408.36 1478.85 2434.81 1481.4 2450.79 1511.27C2471.21 1549.42 2453.75 1579.51 2413.88 1574.87C2412.64 1574.72 2411.42 1574.54 2410.23 1574.33C2407.46 1574.06 2404.71 1573.39 2402.04 1572.27Z" fill="#212121"/>
<path id="Set7" d="M2482.1 2033.89C2448.38 2033.89 2430.65 2007.31 2442.98 1975.2C2447.1 1964.44 2464.7 1955.64 2482.1 1955.64C2515.81 1955.64 2533.54 1982.22 2521.23 2014.33C2517.09 2025.09 2499.49 2033.89 2482.1 2033.89Z" fill="#212121"/>
<path id="Set7" d="M2519.73 1757.21C2526.37 1688.02 2554.04 1648.41 2614.32 1621.8C2790.83 1543.88 2964.04 1743.77 2835.92 1877.52C2830.19 1883.49 2825.45 1888.71 2821.64 1893.4C2815.08 1906.05 2811.26 1917.31 2810 1927.78C2811.03 1931.69 2812.83 1935.81 2815.3 1940.42C2835.84 1978.79 2832.97 1998.88 2808.29 1989.42C2795.64 1984.55 2780.08 1990.58 2769.78 2004.32C2754.04 2025.32 2751.72 2023.6 2743.72 1984.98C2736.77 1951.33 2728.49 1942.6 2703.57 1942.6C2652.55 1942.6 2589.58 1910.07 2550.36 1863.44C2518.53 1825.61 2514.5 1811.64 2519.73 1757.21Z" fill="#212121"/>
<path id="Set7" d="M2560.46 2211.83C2521.03 2165.99 2521.34 2132.2 2561.57 2091.99C2626.06 2027.49 2742.56 2064.8 2742.56 2149.96C2742.56 2243.86 2622.97 2284.5 2560.46 2211.83Z" fill="#212121"/>
<path id="Set7" d="M2656.37 772.692C2632.95 763.814 2626.85 734.324 2647.45 709.511C2667.9 684.862 2691.69 685.488 2713.05 711.233C2731.04 732.914 2720.99 759.6 2696.33 770.432C2685.81 779.143 2671.02 782.181 2658.79 774.616C2657.94 774.09 2657.13 773.444 2656.37 772.692Z" fill="#212121"/>
<path id="Set7" d="M2724.28 1537.81C2699.67 1524.64 2690.46 1486.06 2707.79 1468.74C2717.2 1459.34 2777.34 1456.54 2777.34 1465.5C2777.34 1468.5 2780.62 1479.48 2784.62 1489.9C2796.39 1520.57 2754.38 1553.92 2724.28 1537.81Z" fill="#212121"/>
<path id="Set7" d="M2876.62 947.552C2854.36 940.131 2838.13 903.496 2846.94 880.542C2857.79 852.281 2906.51 858.254 2926 890.233C2937.49 909.091 2935.24 917.62 2914.81 932.788C2900.76 943.222 2883.57 949.873 2876.62 947.552Z" fill="#212121"/>
<path id="Set7" d="M2882.56 1569.51C2850.06 1562.63 2834.17 1531.51 2854.68 1506.79C2886.69 1468.24 2938.7 1490.5 2931.72 1539.77C2928.52 1562.42 2919.29 1570.72 2896.91 1570.9C2891.9 1573.48 2887.74 1573 2882.56 1569.51Z" fill="#212121"/>


<!-- flags -->
<!-- france -->
<g id="Set5">
<path d="M1987.41 524.946C2002.32 369.818 1888.57 231.97 1733.34 217.052C1578.12 202.135 1440.19 315.799 1425.29 470.927C1410.38 626.055 1524.13 763.904 1679.36 778.821C1834.58 793.738 1972.5 680.075 1987.41 524.946Z" fill="white"/>
<path fill-rule="evenodd" clip-rule="evenodd" d="M1576.17 246.921L1530.86 718.381C1458.53 660.892 1397.74 561.703 1407.23 462.92C1416.72 364.138 1494.21 289.583 1576.17 246.921Z" fill="#0058DD"/>
<path fill-rule="evenodd" clip-rule="evenodd" d="M1836.64 747.767L1881.95 276.307C1954.28 333.796 2029.24 429.272 2019.74 528.054C2010.25 626.837 1918.6 705.104 1836.64 747.767Z" fill="#DD2C00"/>
</g>

<!-- italy -->
<g id="Set2">
<path d="M646.621 1142.13C640.188 1021.55 538.055 908.094 417.68 914.538C297.304 920.982 204.27 1044.89 210.703 1165.47C217.137 1286.04 319.936 1378.56 440.311 1372.12C560.687 1365.67 653.055 1262.7 646.621 1142.13Z" fill="white"/>
<path fill-rule="evenodd" clip-rule="evenodd" d="M298.68 964.04L319.85 1342.91C257.947 1307.19 189.779 1242.25 185.682 1165.47C181.585 1088.69 240.931 1006.16 298.68 964.04Z" fill="#00DD4B"/>
<path fill-rule="evenodd" clip-rule="evenodd" d="M556.978 1330.21L528.874 943.743C590.777 979.462 675.782 1065.35 679.878 1142.13C683.975 1218.91 614.727 1288.09 556.978 1330.21Z" fill="#DD2C00"/>
</g>

<!-- spain -->
<g id="Set7"> 
<path d="M2577.31 1314.99C2667.83 1314.99 2779.7 1239.55 2779.7 1146.49C2779.7 1053.43 2667.83 977.994 2577.31 977.994C2486.78 977.994 2379.19 1053.43 2379.19 1146.49C2379.19 1239.55 2486.78 1314.99 2577.31 1314.99Z" fill="#FFC107"/>
<path fill-rule="evenodd" clip-rule="evenodd" d="M2742.64 1055.79L2417.62 1052.72C2446.84 1006.47 2520.01 977.994 2577.65 977.994C2635.3 977.994 2713.42 1009.54 2742.64 1055.79Z" fill="#DD2C00"/>
<path fill-rule="evenodd" clip-rule="evenodd" d="M2409.27 1230.01L2745.01 1234.41C2715.79 1280.66 2634.95 1320.86 2577.31 1320.86C2519.66 1320.86 2438.49 1276.26 2409.27 1230.01Z" fill="#DD2C00"/>
</g>

<!-- germany -->
<g id="Set3">
<path d="M440.81 2070.64L819.667 2091.58C788.25 2159.62 711.761 2212.01 624.307 2207.18C536.852 2202.34 464.54 2141.73 440.81 2070.64Z" fill="#FFC107"/>
<path d="M826.17 1972.16L455.618 1936.99C487.035 1868.94 556.867 1827.79 644.322 1832.63C731.777 1837.46 802.44 1901.08 826.17 1972.16Z" fill="black"/>
<path d="M455.618 1936.99C447.185 1955.25 433.902 1983.24 432.745 2004.18C431.589 2025.11 434.393 2051.56 440.763 2070.64L819.62 2091.57C828.053 2073.31 833.191 2053.44 834.348 2032.5C835.504 2011.57 832.587 1991.25 826.217 1972.17L455.618 1936.99Z" fill="#DD2C00"/>
</g>
</svg>
